<svg width="267" height="275" viewBox="0 0 267 275" fill="none" xmlns="http://www.w3.org/2000/svg">
<path d="M211.626 269.014C210.55 270.9 211.22 273.293 213.122 274.36C215.024 275.426 217.439 274.762 218.515 272.877L244.544 227.64L266.491 189.48C267.566 187.594 266.896 185.2 264.994 184.134C263.199 183.127 260.947 183.662 259.795 185.311C256.788 189.016 252.673 191.588 248.155 192.744C243.676 193.89 238.777 193.638 234.147 191.713C229.091 189.611 225.243 185.869 222.971 181.379C220.686 176.863 219.988 171.584 221.25 166.447C221.278 166.352 221.303 166.257 221.323 166.161C222.255 161.982 216.193 159.138 213.744 163.873C213.678 164.002 213.669 164.152 213.634 164.29L213.608 164.388C211.829 171.433 212.772 178.692 215.912 184.897C219.008 191.016 224.232 196.106 231.082 198.954C237.333 201.553 243.993 201.882 250.12 200.314C250.531 200.209 250.939 200.095 251.345 199.973L237.655 223.777L211.626 269.014Z" fill="#FFE578"/>
<path d="M170.14 201.535C162.666 192.612 148.498 190.726 139.215 197.509C130.811 203.306 127.929 215.952 130.341 225.31C132.937 234.297 139.591 239.824 146.022 244.594C150.866 248.14 156.049 250.831 161.565 253.008C163.403 253.718 164.805 254.38 166.835 255.091C168.41 255.544 171.252 253.481 171.711 251.918C172.154 250.414 171.506 247.4 170.056 246.876C168.546 246.258 166.866 245.46 165.311 244.654C155.094 239.394 139.369 230.4 141.963 217.62C142.249 214.536 143.87 210.663 146.797 209.453C150.179 207.916 154.465 209.258 156.02 212.428C158.277 216.858 163.731 218.636 168.201 216.398C174.019 213.455 174.78 205.921 170.14 201.535Z" fill="#FFE578"/>
<path d="M214.922 217.943C215.2 217.287 214.888 216.532 214.226 216.257C213.564 215.981 212.802 216.29 212.525 216.947C211.971 218.256 212.005 219.668 212.509 220.894L212.513 220.904C213.021 222.126 213.994 223.157 215.313 223.705C216.639 224.257 218.065 224.223 219.3 223.722C220.533 223.222 221.575 222.255 222.131 220.941C222.409 220.285 222.097 219.529 221.435 219.254C220.773 218.979 220.011 219.288 219.734 219.944C219.455 220.602 218.933 221.087 218.316 221.337C217.698 221.588 216.983 221.605 216.319 221.328C215.652 221.051 215.163 220.535 214.912 219.927L214.909 219.921C214.658 219.313 214.643 218.605 214.922 217.943Z" fill="#FFE578"/>
<path d="M164.53 249.402C163.454 251.288 164.124 253.681 166.026 254.748C167.928 255.814 170.343 255.15 171.419 253.265L206.27 192.688C207.346 190.802 206.676 188.408 204.773 187.341C202.871 186.275 200.456 186.939 199.38 188.825L164.53 249.402Z" fill="#FFE578"/>
<path d="M191.118 203.182C190.042 205.068 190.712 207.461 192.614 208.528C194.516 209.594 196.931 208.93 198.007 207.045L220.889 167.283C221.965 165.397 221.295 163.003 219.393 161.937C217.49 160.87 215.075 161.534 214 163.42L191.118 203.182Z" fill="#FFE578"/>
<path d="M172.991 218.914C171.377 219.179 170.286 220.692 170.554 222.292C170.822 223.891 172.349 224.973 173.962 224.707L199.455 220.51C201.068 220.244 202.159 218.731 201.891 217.132C201.623 215.532 200.097 214.451 198.483 214.717L172.991 218.914Z" fill="#FFE578"/>
<path d="M238.962 251.674C239.852 253.036 241.688 253.425 243.061 252.542C244.435 251.66 244.828 249.84 243.938 248.478L230.987 228.696C230.097 227.334 228.261 226.945 226.887 227.827C225.513 228.709 225.12 230.529 226.01 231.891L238.962 251.674Z" fill="#FFE578"/>
<path d="M203.787 213.388C205.3 214.017 207.041 213.311 207.676 211.811C208.311 210.311 207.599 208.585 206.086 207.956L182.726 198.243C181.213 197.614 179.471 198.32 178.837 199.819C178.202 201.319 178.914 203.045 180.427 203.674L203.787 213.388Z" fill="#FFE578"/>
<path d="M252.791 233.758C254.304 234.387 256.045 233.681 256.68 232.181C257.314 230.681 256.602 228.955 255.089 228.326L232.004 218.727C230.491 218.098 228.75 218.804 228.115 220.304C227.48 221.804 228.193 223.53 229.706 224.159L252.791 233.758Z" fill="#FFE578"/>
<path d="M228.454 208.405C228.743 207.721 228.418 206.934 227.729 206.648C227.039 206.361 226.245 206.683 225.956 207.366C225.379 208.73 225.415 210.202 225.94 211.479L225.944 211.489C226.473 212.763 227.487 213.836 228.861 214.408C230.242 214.982 231.728 214.947 233.014 214.426C234.299 213.905 235.385 212.897 235.965 211.528C236.254 210.844 235.929 210.057 235.239 209.77C234.55 209.484 233.756 209.806 233.466 210.489C233.176 211.175 232.632 211.68 231.989 211.941C231.345 212.202 230.601 212.219 229.909 211.932C229.214 211.642 228.704 211.105 228.443 210.472L228.44 210.465C228.179 209.831 228.162 209.094 228.454 208.405Z" fill="#FFE578"/>
<path d="M214.281 202.513C214.57 201.829 214.246 201.042 213.556 200.755C212.866 200.468 212.072 200.79 211.783 201.474C211.206 202.838 211.242 204.31 211.767 205.586L211.771 205.597C212.299 206.87 213.313 207.944 214.688 208.515C216.069 209.09 217.555 209.054 218.841 208.533C220.126 208.012 221.212 207.005 221.791 205.635C222.081 204.952 221.756 204.165 221.066 203.878C220.376 203.591 219.582 203.913 219.293 204.597C219.003 205.283 218.459 205.787 217.816 206.048C217.172 206.309 216.428 206.327 215.736 206.039C215.04 205.75 214.531 205.213 214.269 204.579L214.267 204.572C214.005 203.939 213.989 203.202 214.281 202.513Z" fill="#FFE578"/>
<path d="M1.95744 54.7867C2.91218 57.0179 4.1769 59.0623 5.68651 60.8922C7.24212 62.7775 9.03579 64.3982 10.9972 65.7259C12.1693 66.5176 13.6393 66.5452 14.8101 65.9224L15.2784 65.6951C15.5127 65.5736 15.7299 65.4566 15.9185 65.3482L16.0647 65.2599C19.8337 63.1021 22.6232 59.804 24.1672 56.0162C25.735 52.1712 26.0254 47.8077 24.76 43.6065C24.6718 43.305 24.56 42.9662 24.4255 42.5912L24.3999 42.5226C24.2596 42.1353 24.1403 41.8237 24.0455 41.6026C23.7802 40.9826 23.4658 40.3542 23.1046 39.7195C22.7602 39.1136 22.3804 38.5285 21.9678 37.9629C20.9429 36.5591 19.0956 36.0958 17.5508 36.7492L17.5477 36.7424L2.2483 43.2002C0.674546 43.8645 -0.194745 45.4843 0.0370831 47.0859C0.141368 48.3395 0.34811 49.6078 0.659701 50.8796C0.991327 52.231 1.42318 53.5383 1.95744 54.7867ZM11.3851 56.2845C10.3408 55.0189 9.44683 53.5595 8.74578 51.9214C8.33768 50.9674 8.0243 50.0365 7.80341 49.136L7.73084 48.8263L17.3782 44.7542L17.4949 45.0512C17.5578 45.2259 17.6264 45.44 17.7001 45.687L17.7058 45.7005C18.4774 48.2557 18.2961 50.9247 17.3328 53.2873C16.5241 55.2708 15.1673 57.0308 13.3638 58.3195C12.652 57.6965 11.9892 57.017 11.3851 56.2845Z" fill="#FFE578"/>
<path d="M83.6038 145.384C84.1726 147.319 86.2172 148.429 88.17 147.861C90.123 147.294 91.2453 145.265 90.6765 143.329L77.173 96.7608L65.7752 57.4845C65.2064 55.5494 63.1619 54.44 61.2089 55.0076C59.3659 55.5429 58.2628 57.3804 58.6228 59.2122C59.1604 63.6059 58.2163 67.9973 56.0581 71.7377C53.9186 75.4459 50.5667 78.5249 46.2644 80.3409C41.5666 82.3238 36.551 82.4442 32.0563 81.0357C27.5363 79.6192 23.533 76.6574 20.8997 72.4902C20.854 72.4099 20.8059 72.3318 20.755 72.2562C20.5022 71.8451 20.2705 71.438 20.0615 71.0356C19.8384 70.607 19.6148 70.1314 19.392 69.6102C18.9303 68.5315 18.5742 67.4636 18.3207 66.4173C18.1278 65.6207 17.9858 64.8364 17.8929 64.0696C20.7424 61.9714 22.885 59.1628 24.168 56.0159C25.7358 52.1708 26.0262 47.8074 24.7608 43.6061C24.6726 43.3046 24.5608 42.9658 24.4263 42.5909L24.4007 42.5222C24.3133 42.2809 24.2339 42.0691 24.1637 41.89L63.049 25.4766C63.8242 25.1494 64.4282 24.5905 64.8143 23.916L73.6433 10.6217L111.672 76.7544L135.057 117.402L138.415 123.244C139.415 124.997 141.662 125.611 143.432 124.615C145.201 123.62 145.825 121.392 144.824 119.639L141.467 113.797L118.081 73.1493L77.0789 1.84509C76.8001 1.36102 76.4069 0.931931 75.9057 0.603531C74.2122 -0.505814 71.9293 -0.0421448 70.8075 1.63892L59.1586 19.1788L17.5488 36.7421L17.5519 36.7489C17.3027 36.8542 17.0614 36.9887 16.8326 37.1531C15.1864 38.3362 14.8168 40.6167 16.0071 42.2468C16.2477 42.5769 16.4745 42.9271 16.685 43.2975C16.879 43.6388 17.0706 44.0288 17.2583 44.4675C17.3664 44.7198 17.4407 44.9014 17.4851 45.0192L17.4961 45.0508C17.559 45.2255 17.6275 45.4397 17.7012 45.6867L17.7069 45.7001C18.4786 48.2553 18.2972 50.9244 17.3339 53.287C16.3706 55.6499 14.6292 57.6957 12.282 59.0053L12.2858 59.0121C11.1394 59.6525 10.3772 60.8829 10.4102 62.2768C10.4153 62.5157 10.4211 62.7508 10.43 62.9487C10.4433 63.2466 10.4603 63.524 10.4847 63.7609L10.4885 63.7605C10.5972 65.2465 10.8219 66.7111 11.1668 68.1347C11.5276 69.6233 12.0054 71.0768 12.6041 72.4755C12.8702 73.0976 13.1737 73.7358 13.5138 74.3887C13.8328 75.0025 14.1625 75.5837 14.502 76.1321L14.5509 76.2133C18.1321 81.96 23.6244 86.0435 29.8359 87.9899C35.9608 89.9094 42.7776 89.7529 49.1428 87.0661C54.9505 84.6149 59.4981 80.4192 62.4246 75.347C62.621 75.007 62.8096 74.6628 62.9909 74.3153L70.1008 98.8155L83.6038 145.384Z" fill="#FFE578"/>
<path d="M143.431 124.615C167.612 113.388 173.521 99.2921 167.66 80.2035C167.304 79.2711 166.344 78.1041 164.659 78.7168C163.503 79.2556 162.972 80.3997 163.439 81.7489C166.11 90.2535 157.846 111.901 138.262 115.599C143.431 124.615 138.262 115.599 143.431 124.615Z" fill="#FFE578"/>
<path d="M56.066 43.9099C56.4865 42.721 55.8555 41.4204 54.6571 41.0056C53.4587 40.5908 52.1456 41.2188 51.7252 42.4077C51.3987 43.3293 51.2411 44.317 51.2728 45.3237C51.3035 46.299 51.508 47.2722 51.9041 48.198C52.401 49.3587 53.7534 49.8989 54.9251 49.4042C56.0968 48.9098 56.644 47.5676 56.1471 46.4069C55.9681 45.9886 55.8762 45.57 55.8637 45.1698C55.8503 44.7471 55.9209 44.3195 56.066 43.9099Z" fill="#FFE578"/>
<path d="M58.009 41.8394C59.1805 41.3449 59.7276 40.003 59.2311 38.8422C58.7342 37.6815 57.3818 37.1413 56.21 37.6358C55.1412 38.0871 54.2104 38.7511 53.4489 39.5615C52.6634 40.3979 52.0749 41.3787 51.7153 42.4311C51.3079 43.6256 51.9536 44.9198 53.1576 45.3215C54.3613 45.7232 55.6679 45.0809 56.0753 43.8865C56.2313 43.4292 56.481 43.0096 56.8097 42.6595C57.1241 42.3253 57.5276 42.0426 58.009 41.8394Z" fill="#FFE578"/>
<path d="M62.6108 43.6776C63.1074 44.8384 64.46 45.3786 65.6316 44.8839C66.8032 44.3894 67.3503 43.0476 66.8538 41.8868C65.9778 39.8403 64.3488 38.3431 62.4235 37.5743C60.4961 36.8046 58.2708 36.7652 56.2082 37.6357C55.0366 38.1304 54.4893 39.4723 54.9861 40.633C55.4827 41.7938 56.8354 42.334 58.0071 41.8393C58.8991 41.4627 59.8621 41.4798 60.6953 41.8126C61.5274 42.1448 62.2318 42.7924 62.6108 43.6776Z" fill="#FFE578"/>
</svg>
