<svg width="14" height="12" viewBox="0 0 14 12" fill="none" xmlns="http://www.w3.org/2000/svg">
<path fill-rule="evenodd" clip-rule="evenodd" d="M7 11.8082C10.866 11.8082 14 9.1649 14 5.90412C14 2.64336 10.866 0 7 0C3.134 0 0 2.64336 0 5.90412C0 9.1649 3.134 11.8082 7 11.8082ZM7.875 2.95206C7.875 2.54447 7.48326 2.21405 7 2.21405C6.51675 2.21405 6.125 2.54447 6.125 2.95206V5.90412C6.125 6.09984 6.21719 6.28759 6.38128 6.42597L8.85614 8.51337C9.19782 8.80164 9.75187 8.80164 10.0936 8.51337C10.4353 8.22518 10.4353 7.75787 10.0936 7.46967L7.875 5.59843V2.95206Z" fill="#572922"/>
</svg>
