<svg width="30" height="30" viewBox="0 0 30 30" fill="none" xmlns="http://www.w3.org/2000/svg">
<g clip-path="url(#clip0_405_1602)">
<path d="M0.15625 14.4811C0.15625 7.72829 0.15625 4.35191 2.25408 2.25408C4.35191 0.15625 7.72829 0.15625 14.4811 0.15625H15.6749C22.4277 0.15625 25.804 0.15625 27.9019 2.25408C29.9997 4.35191 29.9997 7.72829 29.9997 14.4811V15.6749C29.9997 22.4277 29.9997 25.804 27.9019 27.9019C25.804 29.9997 22.4277 29.9997 15.6749 29.9997H14.4811C7.72829 29.9997 4.35191 29.9997 2.25408 27.9019C0.15625 25.804 0.15625 22.4277 0.15625 15.6749V14.4811Z" fill="#572922"/>
<path d="M15.9842 21.6435C9.05065 21.6435 5.09593 16.9384 4.93115 9.10919H8.40426C8.51834 14.8556 11.0787 17.2897 13.1068 17.7916V9.10919H16.3772V14.0652C18.38 13.8519 20.4839 11.5935 21.1937 9.10919H24.4641C23.919 12.1706 21.6374 14.429 20.0149 15.3575C21.6374 16.1103 24.236 18.0802 25.2247 21.6435H21.6247C20.8515 19.2596 18.925 17.4152 16.3772 17.1642V21.6435H15.9842Z" fill="white"/>
</g>
<defs>
<clipPath id="clip0_405_1602">
<rect width="29.8435" height="29.8435" fill="white" transform="translate(0.15625 0.15625)"/>
</clipPath>
</defs>
</svg>
