<svg width="79" height="87" viewBox="0 0 79 87" fill="none" xmlns="http://www.w3.org/2000/svg">
<path fill-rule="evenodd" clip-rule="evenodd" d="M7.21 27.7673C9.05207 25.8261 12.1283 22.9875 15.6282 20.8082C19.1282 18.6289 23.0886 17.1455 27.6201 16.2115C32.1516 15.2776 37.2725 14.893 40.6619 14.8197C44.0513 14.7465 45.746 15.0029 47.8828 15.6621C50.0196 16.3214 52.6353 17.4019 54.5142 18.3176C56.4115 19.2516 57.5905 20.0207 59.2667 21.7056C60.9614 23.3904 63.1535 25.9543 65.0508 28.5182C66.9482 31.0821 68.5508 33.6093 69.7849 35.9535C71.0191 38.2976 71.9033 40.4219 72.5112 42.5097C73.1191 44.5974 73.4506 46.6302 73.7085 49.1575C73.9664 51.6847 74.1322 54.7248 73.948 57.4901C73.7454 60.2554 73.1927 62.7644 72.3638 64.8887C71.5349 67.0131 70.4481 68.7529 69.3428 70.3645C68.2376 71.976 67.0955 73.4594 65.2719 75.2908C63.4482 77.1221 60.9246 79.3014 57.5168 81.0595C54.109 82.8176 49.817 84.1728 46.2249 84.8504C42.6513 85.528 39.7777 85.5097 36.683 85.0335C33.5884 84.5757 30.2727 83.66 26.3306 81.9202C22.3886 80.1805 17.8387 77.6166 14.2283 74.8146C10.6178 72.0127 7.94683 68.936 5.84688 65.0719C3.74692 61.2077 2.23643 56.5378 1.75749 52.344C1.27856 48.1502 1.83117 44.4143 2.40221 41.0629C2.97325 37.7116 3.54429 34.7448 4.13376 32.7303C4.72322 30.7341 5.34952 29.6903 7.19158 27.749L7.21 27.7673Z" fill="#FFD639"/>
<path d="M59.6737 77.8548C60.4285 77.5058 61.3304 77.8548 61.6618 78.6079C62.0115 79.3609 61.6618 80.261 60.9071 80.5916C57.0967 82.3365 53.2863 84.0631 49.9913 85.0734C48.2794 85.606 46.7331 85.9367 45.2237 86.1203C43.7327 86.304 42.2416 86.3408 40.6402 86.304C39.1307 86.2489 37.5477 86.1203 35.9646 85.9183C34.2711 85.6979 32.5776 85.4224 31.0314 85.0917C29.5219 84.7795 28.0861 84.4121 26.724 83.9897C25.3434 83.5672 24.0732 83.108 22.9136 82.6304C21.7355 82.1345 20.6126 81.5835 19.4897 80.959C18.4037 80.3344 17.3176 79.6365 16.1947 78.8283C15.0167 77.9834 13.8017 77.0098 12.6052 75.9445C11.5192 74.971 10.47 73.924 9.51275 72.8587C8.50033 71.7015 7.56154 70.4892 6.71478 69.2035C5.88644 67.9361 5.13172 66.5952 4.45063 65.1993C3.78796 63.8033 3.1805 62.3522 2.6835 60.8461C2.16808 59.3215 1.7447 57.7419 1.43177 56.1071C1.10043 54.454 0.879541 52.7274 0.750687 50.9825C0.621833 49.2743 0.603425 47.5477 0.695464 45.8395C0.787502 44.1312 0.971579 42.4598 1.24769 40.8434C1.5054 39.2454 1.83674 37.7025 2.2049 36.2698C2.55464 34.8187 2.9412 33.4595 3.43821 32.1186C3.93522 30.7594 4.52427 29.4369 5.29739 28.0409C6.07051 26.6633 7.00931 25.2306 8.07695 23.853C9.12619 22.4938 10.2859 21.1713 11.5376 19.959C12.7525 18.7651 14.041 17.6631 15.3296 16.6896C16.7102 15.6426 18.1091 14.7242 19.4529 13.9895C21.9564 12.5935 24.2205 11.7853 26.3558 11.0139L26.8712 10.8302C28.9145 10.0955 30.8473 9.39748 32.8905 8.90155C33.9766 8.62603 35.1179 8.40562 36.2407 8.22194C37.382 8.03826 38.4312 7.89131 39.4069 7.78111C40.272 7.6709 41.2108 7.57906 42.1864 7.50559C43.4566 7.39538 44.0824 7.34028 44.7267 7.28517C45.555 7.2117 46.2913 7.83621 46.3466 8.66277C46.4202 9.48932 45.7943 10.224 44.966 10.2791C43.9536 10.3526 42.9227 10.4445 42.4625 10.4812C41.7078 10.5547 40.8427 10.6465 39.7566 10.7751C38.7626 10.8853 37.7318 11.0322 36.7193 11.1975C35.7069 11.3629 34.6577 11.5649 33.6268 11.8221C31.6572 12.318 29.8349 12.9609 27.902 13.6588L27.3866 13.8425C25.3986 14.5589 23.2633 15.312 20.9439 16.6161C19.729 17.2957 18.4405 18.1406 17.1704 19.0958C15.9739 19.9958 14.7774 21.0244 13.6729 22.1081C12.5316 23.2285 11.4456 24.4592 10.4884 25.7082C9.51275 26.9756 8.64759 28.2797 7.9481 29.5287C7.26701 30.7594 6.73319 31.9533 6.2914 33.1656C5.84962 34.3962 5.48147 35.6636 5.15013 37.0045C4.81879 38.3821 4.48745 39.8331 4.24815 41.3393C4.00885 42.8455 3.82477 44.4068 3.73273 45.9864C3.6591 47.5477 3.67751 49.1641 3.78796 50.7621C3.8984 52.3784 4.1193 53.9765 4.43223 55.5194C4.74516 57.0439 5.13172 58.5133 5.59191 59.8909C6.0521 61.2869 6.60434 62.6094 7.2302 63.8951C7.83765 65.1625 8.53714 66.3932 9.29186 67.5504C10.0466 68.7075 10.8933 69.8096 11.8321 70.875C12.7341 71.9036 13.6913 72.8403 14.6485 73.7036C15.753 74.6955 16.8942 75.5955 17.9803 76.3853C19.0111 77.1201 19.9867 77.7629 20.9992 78.3323C21.9748 78.8834 22.9872 79.3793 24.0917 79.8385C25.2145 80.3161 26.3926 80.7385 27.6075 81.1059C28.8592 81.4916 30.203 81.8223 31.6572 82.1345C33.1666 82.4468 34.7681 82.7223 36.3512 82.9243C37.8422 83.108 39.3332 83.2366 40.7506 83.2917C42.168 83.3468 43.4934 83.2917 44.8739 83.1264C46.2361 82.9611 47.6167 82.6672 49.1261 82.208C52.237 81.2528 55.9738 79.5446 59.6921 77.8548H59.6737Z" fill="#572922"/>
<path fill-rule="evenodd" clip-rule="evenodd" d="M41.8442 1.1955C42.809 1.83718 44.4975 3.1572 45.9448 4.33055C47.4094 5.50391 48.6327 6.51226 49.4942 7.3006C50.3557 8.08895 50.8553 8.65729 51.131 9.13397C51.4239 9.61064 51.4928 9.99565 51.4239 10.399C51.355 10.784 51.131 11.1873 50.304 11.994C49.4769 12.819 48.0641 14.0657 46.6857 15.2941C45.3073 16.5041 43.9634 17.6774 43.1019 18.3925C42.2404 19.1075 41.8614 19.3825 41.534 19.4741C41.2067 19.5658 40.9654 19.4741 40.7759 19.3275C40.5864 19.1808 40.4485 18.9608 40.3624 16.8341C40.2762 14.7074 40.2246 10.6923 40.1901 7.94228C40.1556 5.19224 40.1384 3.74388 40.1901 2.73553C40.2246 1.72718 40.3279 1.1955 40.483 0.902165C40.6381 0.608826 40.8621 0.553826 41.8269 1.1955H41.8442Z" fill="#572922"/>
<path d="M74.9376 64.554C75.246 63.4376 73.6315 62.3584 72.5793 62.9724C72.3616 63.1027 72.1984 63.3074 72.1439 63.5492C72.0895 63.7539 72.017 63.9586 71.9444 64.1633C71.7811 64.6471 71.5634 65.1123 71.3276 65.5588C70.8015 66.5636 72.1802 67.8289 73.3775 67.4195C73.6496 67.3265 73.8492 67.159 73.9762 66.9357C74.2664 66.3961 74.5022 65.8565 74.7018 65.2797C74.7925 65.0378 74.865 64.7959 74.9195 64.554H74.9376Z" fill="#572922"/>
<path d="M71.0975 70.6089C71.584 69.5638 70.3425 68.1196 69.2856 68.4997C69.0507 68.5757 68.8829 68.7467 68.7655 68.9747C68.6816 69.1648 68.581 69.3548 68.4803 69.5448C68.2286 69.9819 67.9602 70.3999 67.6582 70.799C66.9871 71.6731 67.9938 73.2503 69.1514 73.1363C69.4198 73.0982 69.6211 72.9842 69.7889 72.7942C70.158 72.3192 70.4768 71.8441 70.7787 71.312C70.8962 71.084 71.0136 70.875 71.1311 70.6469L71.0975 70.6089Z" fill="#572922"/>
<path d="M67.2136 75.1639C67.9748 74.3883 66.7529 73.0114 65.4308 73.1538C65.1503 73.1855 64.91 73.2962 64.7497 73.4545C64.6095 73.597 64.4693 73.7394 64.309 73.866C63.9484 74.1984 63.5478 74.4833 63.1272 74.7682C62.1857 75.3855 63.1071 76.8416 64.4893 76.9049C64.8098 76.9207 65.0702 76.8574 65.2905 76.7149C65.7913 76.3826 66.2721 76.0344 66.6928 75.6545C66.873 75.4962 67.0533 75.3221 67.2136 75.1639Z" fill="#572922"/>
<path d="M76.8352 58.7529C77.0618 57.6177 75.2869 56.6873 74.2484 57.3944C74.0218 57.5433 73.8896 57.748 73.833 58.0085C73.7952 58.2132 73.7386 58.4179 73.6819 58.6226C73.5497 59.125 73.3798 59.5903 73.1721 60.0555C72.7189 61.0976 74.2672 62.2327 75.4568 61.7303C75.7401 61.6186 75.9289 61.4325 76.0422 61.1906C76.2876 60.6324 76.4954 60.0741 76.6464 59.4786C76.7031 59.2367 76.7786 58.9948 76.8163 58.7343L76.8352 58.7529Z" fill="#572922"/>
<path d="M78.7337 52.7796C78.7337 51.629 76.5677 51.0537 75.5909 51.9259C75.3786 52.1115 75.2724 52.3528 75.2724 52.594C75.2724 52.7982 75.2724 53.0209 75.2512 53.225C75.2087 53.7261 75.1238 54.2271 74.9964 54.7282C74.7203 55.8417 76.6739 56.6582 77.9055 55.9345C78.1816 55.7675 78.3514 55.5633 78.4151 55.3035C78.5638 54.7096 78.67 54.1158 78.7124 53.5219C78.7337 53.2621 78.7337 53.0209 78.7337 52.7611V52.7796Z" fill="#572922"/>
<path d="M78.6845 47.0031C78.6018 45.8575 76.8809 45.4325 76.1859 46.3749C76.037 46.5781 75.9708 46.8183 75.9873 47.0585C76.0039 47.2618 76.0039 47.4835 76.0204 47.6868C76.0204 48.2041 75.9873 48.703 75.9212 49.2019C75.7722 50.329 77.3607 51.0127 78.2543 50.2181C78.4529 50.0334 78.5852 49.8116 78.6183 49.553C78.7011 48.9617 78.7341 48.3519 78.7341 47.7607C78.7341 47.502 78.7176 47.2618 78.7011 47.0031H78.6845Z" fill="#572922"/>
<path d="M78.3749 40.1655C78.0603 39.0561 75.8162 38.9452 75.1241 40.0176C74.9773 40.2579 74.9354 40.4983 74.9983 40.7386C75.0612 40.942 75.1031 41.1454 75.1451 41.3672C75.25 41.8664 75.3129 42.3656 75.3129 42.8833C75.3548 44.0111 77.4521 44.3809 78.4168 43.438C78.6265 43.2161 78.7524 42.9758 78.7314 42.7169C78.7104 42.1068 78.6475 41.5151 78.5217 40.9235C78.4587 40.6831 78.4168 40.4243 78.3329 40.184L78.3749 40.1655Z" fill="#572922"/>
<path d="M77.0011 34.2986C76.5104 33.2313 74.5288 33.4935 74.0948 34.6544C74.0004 34.9165 74.0193 35.16 74.1136 35.3846C74.208 35.5719 74.2835 35.7779 74.359 35.9838C74.5477 36.4707 74.6798 36.9575 74.7742 37.4631C75.0006 38.5865 76.9445 38.624 77.6239 37.538C77.7749 37.2945 77.8315 37.0324 77.7749 36.7703C77.6428 36.1711 77.4918 35.5906 77.2653 35.0102C77.171 34.7667 77.0766 34.542 76.9634 34.2986H77.0011Z" fill="#572922"/>
<path d="M74.4927 28.4856C73.7499 27.4989 71.5217 28.0492 71.2377 29.3015C71.1722 29.5672 71.2377 29.8139 71.3906 30.0416C71.5217 30.2313 71.6528 30.4021 71.7838 30.5918C72.0678 31.0472 72.33 31.5216 72.5266 31.996C73.0072 33.0776 75.2136 32.8309 75.8034 31.6165C75.9345 31.3319 75.9563 31.0662 75.8471 30.8195C75.6068 30.2313 75.3009 29.681 74.9514 29.1308C74.7985 28.9031 74.6456 28.6943 74.4927 28.4666V28.4856Z" fill="#572922"/>
<path d="M70.7157 23.6431C70.0395 22.7516 68.4397 23.6044 68.3903 24.8836C68.3738 25.155 68.4562 25.4069 68.6047 25.6008C68.7366 25.7752 68.8521 25.9303 68.9675 26.1047C69.2479 26.5311 69.4953 26.9769 69.7097 27.4421C70.2044 28.4693 71.8207 27.9266 72.1176 26.6474C72.1835 26.3567 72.1505 26.0853 72.0516 25.8333C71.7877 25.2713 71.5073 24.7479 71.1775 24.244C71.0455 24.0308 70.8971 23.837 70.7487 23.6431H70.7157Z" fill="#572922"/>
<path d="M66.688 18.8312C65.9276 18.0396 64.5176 19.1874 64.6285 20.5133C64.6602 20.7903 64.7552 21.0278 64.9136 21.2059C65.0562 21.3444 65.183 21.5027 65.3255 21.661C65.6424 22.037 65.9276 22.4328 66.1969 22.8682C66.783 23.8181 68.2722 22.9869 68.3831 21.6215C68.3989 21.3048 68.3514 21.0476 68.2088 20.8101C67.892 20.2956 67.5593 19.8206 67.1791 19.3655C67.0207 19.1874 66.8622 19.0093 66.7038 18.8312H66.688Z" fill="#572922"/>
<path d="M61.7218 14.9372C60.9059 14.4094 59.6898 15.5969 59.9515 16.6525C60.013 16.8834 60.1362 17.0483 60.3055 17.1638C60.4595 17.2627 60.6134 17.3617 60.752 17.4772C61.106 17.7411 61.4293 18.0214 61.7372 18.3348C62.4146 19.0276 63.7385 18.0874 63.6769 16.9494C63.6615 16.6855 63.5691 16.4711 63.4152 16.3226C63.0457 15.9598 62.6609 15.6134 62.2452 15.3C62.0759 15.1681 61.8912 15.0526 61.7218 14.9372Z" fill="#572922"/>
<path d="M31.1104 32.5931C31.1905 32.6731 31.2505 32.7332 31.3305 32.8132C31.4106 32.8932 31.4706 32.9533 31.5506 33.0333C32.0309 33.5535 32.351 34.0538 32.5311 34.574C32.7112 35.0942 32.8112 35.6745 32.8112 36.3348C32.8112 36.875 32.7512 37.5153 32.6511 38.2356C32.5311 38.956 32.411 39.7763 32.271 40.7367C32.2309 41.0769 32.2109 41.397 32.1909 41.7572C32.1709 42.0974 32.1709 42.4575 32.1709 42.8377C32.0709 44.2383 31.9508 45.6189 31.8708 46.9995C31.7707 48.3802 31.6707 49.7208 31.5706 51.0413C31.3906 53.3624 31.2105 55.5634 31.0504 57.6443C30.8903 59.7252 30.7503 61.586 30.6302 63.2068C30.6302 63.2468 30.6302 63.2868 30.6302 63.3468C30.6302 63.4069 30.6302 63.4469 30.6302 63.4869C30.5302 64.4073 30.3901 65.0876 30.2501 65.5278C30.11 65.968 29.7298 66.1881 29.1496 66.1881L28.5893 66.2481C28.3292 66.2081 28.0291 66.1481 27.6489 66.048C27.2887 65.948 26.8485 65.8279 26.3283 65.6279C26.2883 65.5878 26.2483 65.5678 26.1882 65.5478C26.1282 65.5278 26.0882 65.5278 26.0482 65.5278C24.9477 64.9876 24.1673 64.3873 23.7071 63.767C23.2469 63.1467 23.0268 62.2664 23.0268 61.1258C23.0268 60.6456 23.0669 60.1054 23.1269 59.4851C23.2069 58.8648 23.287 58.1645 23.407 57.3842C23.5471 56.6238 23.7071 55.6834 23.8672 54.6029C24.0273 53.5225 24.1874 52.3619 24.3274 51.1014C24.4275 50.361 24.5475 49.6207 24.6275 48.8404C24.7276 48.08 24.8076 47.2997 24.8677 46.5393C24.9477 45.9791 25.0077 45.4388 25.0677 44.8986C25.1278 44.3384 25.1878 43.7981 25.2678 43.2379C25.3079 42.9377 25.3279 42.6776 25.3279 42.4375C25.3279 42.1974 25.3279 41.9973 25.3279 41.8572C25.3279 41.5571 25.3079 41.317 25.2478 41.1369C25.1878 40.9568 25.1278 40.8168 25.0477 40.7568C25.0077 40.7968 24.9677 40.8168 24.9277 40.8368C24.8877 40.8568 24.8276 40.8768 24.7676 40.9168C24.7276 40.9568 24.6676 40.9969 24.6075 41.0169C24.5275 41.0569 24.4875 41.0969 24.4475 41.1369C24.3674 41.1769 24.3074 41.197 24.2474 41.217C24.1874 41.237 24.1273 41.237 24.0473 41.237H23.5071C23.287 41.237 23.0268 41.1369 22.7067 40.9368C22.3865 40.7367 21.9864 40.3966 21.4661 39.9164C20.9059 39.2961 20.4857 38.8159 20.2056 38.4557C19.9054 38.1156 19.7654 37.7954 19.7654 37.5553C19.7654 37.3752 19.8254 37.1952 19.9655 37.0351C20.0855 36.875 20.2456 36.6749 20.4257 36.4548C20.8259 36.0947 21.266 35.6945 21.7263 35.2943C22.1865 34.8941 22.6667 34.494 23.1869 34.0938C23.5471 33.8337 23.9072 33.5736 24.2674 33.2934C24.6075 33.0133 24.9677 32.7532 25.3479 32.4931C25.528 32.353 25.708 32.2129 25.8681 32.1129C26.0282 31.9928 26.1882 31.8928 26.3283 31.7727C26.6485 31.4726 26.9486 31.2725 27.1887 31.1325C27.4288 31.0124 27.6489 30.9324 27.869 30.9324H28.4092C28.7094 30.9324 29.0695 31.0524 29.4897 31.3125C29.9099 31.5727 30.4501 31.9928 31.1104 32.5731V32.5931ZM38.5938 45.9591C38.5938 45.9191 38.5938 45.899 38.5738 45.879C38.5538 45.859 38.5338 45.839 38.4937 45.799C38.3537 45.5789 38.2336 45.3388 38.1336 45.0787C38.0335 44.8186 37.9935 44.4984 37.9935 44.0782C37.9935 43.3379 38.1136 42.2174 38.3737 40.6967C38.6338 39.1761 38.994 36.915 39.4742 33.8937C39.5542 33.4535 39.7543 33.1334 40.0744 32.9333C40.3946 32.7332 40.7748 32.6131 41.1749 32.5731C41.275 32.5331 41.395 32.5131 41.4951 32.5131C41.6151 32.5131 41.7152 32.5131 41.8352 32.5131H42.3755C42.7756 32.5931 43.2759 32.6531 43.8561 32.7132C44.4364 32.7732 45.0767 32.7932 45.737 32.7932C45.817 32.7932 45.877 32.7932 45.9571 32.7932C46.0371 32.7932 46.0971 32.7932 46.1772 32.7932C47.1376 32.7532 48.038 32.6732 48.8784 32.5131C49.7187 32.373 50.299 32.1529 50.5791 31.8528C50.8793 31.7127 51.1394 31.6127 51.3995 31.5526C51.6596 31.4926 51.8797 31.4726 52.0598 31.4726H52.6C53.1803 31.4726 53.6605 31.6927 54.0407 32.1129C54.4008 32.5331 54.721 33.0933 54.9811 33.7937C55.0211 33.8737 55.0411 33.9537 55.0611 34.0338C55.0811 34.1338 55.1012 34.2138 55.1412 34.2739C55.1812 34.494 55.2012 34.694 55.2212 34.8741C55.2412 35.0542 55.2412 35.2143 55.2412 35.3744C55.2412 36.6549 54.5209 37.4553 53.0602 37.7754C51.6196 38.0956 49.9388 38.2356 48.018 38.2356C47.978 38.2356 47.958 38.2356 47.938 38.2356C47.9179 38.2356 47.8979 38.2356 47.8579 38.2356C46.8575 38.2756 46.2572 38.3757 46.0171 38.5358C45.777 38.6958 45.6169 39.1961 45.5569 40.0564C45.5569 40.0965 45.5569 40.1365 45.5569 40.1965C45.5569 40.2565 45.5569 40.2966 45.5569 40.3366C45.4769 40.8568 45.4168 41.317 45.3368 41.7172C45.2568 42.1174 45.2367 42.4775 45.2367 42.7576C45.2367 43.2779 45.3768 43.598 45.6569 43.7581C45.9371 43.8982 46.3572 43.9782 46.9575 43.9782C47.2576 43.9782 47.5578 43.9982 47.8579 44.0382C48.1781 44.0782 48.4782 44.1583 48.7583 44.2583C50.1189 44.6185 51.4195 45.4589 52.7001 46.7394C53.9606 48.02 54.9811 49.7408 55.7614 51.9217C55.9815 52.502 56.1416 53.1023 56.2216 53.7025C56.3217 54.3028 56.3617 54.9031 56.3617 55.4833C56.3617 57.7643 55.6814 59.7652 54.3208 61.486C52.9602 63.2068 51.4595 64.4873 49.7988 65.3477C49.1785 65.6679 48.5582 65.908 47.938 66.068C47.3177 66.2081 46.7174 66.2881 46.1772 66.2881L46.1171 66.4082H45.5569H45.3968C44.8166 66.3682 44.1162 66.2881 43.3359 66.1681C42.5555 66.048 41.7552 65.8079 40.9348 65.4878C40.2345 65.1877 39.5542 64.8275 38.8939 64.4073C38.2336 63.9871 37.6334 63.4869 37.0731 62.8866C36.7129 62.4464 36.4328 62.0463 36.2527 61.7061C36.0727 61.3659 35.9726 61.0258 35.9726 60.6856C35.9726 60.5056 36.0126 60.3055 36.0927 60.0854C36.1727 59.8653 36.2327 59.6252 36.3128 59.3651C36.4928 59.0049 36.753 58.7048 37.0531 58.4847C37.3732 58.2646 37.6934 58.1445 38.0135 58.1045C38.0535 58.1045 38.0936 58.1045 38.1536 58.1045C38.2136 58.1045 38.2536 58.1045 38.2936 58.1045H38.8339C38.9139 58.1045 38.974 58.1045 39.054 58.1045C39.134 58.1045 39.2141 58.1245 39.3341 58.1645C39.6342 58.2446 39.9144 58.3846 40.2145 58.5847C40.5146 58.7848 40.7547 59.0249 40.9348 59.325C41.235 59.8053 41.5751 60.1454 41.9753 60.3455C42.3755 60.5456 42.7756 60.6856 43.1758 60.7657C43.476 60.7257 43.7561 60.6656 44.0562 60.6056C44.3564 60.5256 44.5965 60.4455 44.7765 60.3255C44.8566 60.3255 44.8966 60.3255 44.9366 60.3055C44.9766 60.2855 45.0166 60.2655 45.0567 60.2254C45.9771 59.7852 46.7574 59.1049 47.4177 58.1645C48.078 57.2241 48.5782 56.2437 48.8984 55.2232C49.0184 54.863 49.0985 54.4829 49.1385 54.1027C49.1985 53.7225 49.2185 53.3424 49.2185 52.9822C49.2185 52.6821 49.1985 52.402 49.1385 52.1018C49.0785 51.8017 49.0184 51.5416 48.9384 51.3215C48.6783 50.5611 48.3181 49.9809 47.8579 49.5807C47.3977 49.2005 46.7574 48.9804 45.897 48.9404C45.6369 48.9804 45.3568 49.0004 45.0767 49.0204C44.7765 49.0405 44.4564 49.0805 44.0962 49.1605C43.9762 49.2405 43.8761 49.3006 43.7561 49.3606C43.656 49.4206 43.516 49.4606 43.3759 49.5007C43.2959 49.5007 43.2158 49.5007 43.1358 49.5207C43.0358 49.5407 42.9557 49.5407 42.8957 49.5407H42.3555C41.8152 49.5407 41.295 49.3406 40.8348 48.9604C40.3746 48.5802 39.9544 48.1401 39.5942 47.6598C39.3341 47.3197 39.114 47.0195 38.9339 46.7194C38.7539 46.4193 38.6138 46.1792 38.5538 45.9991L38.5938 45.9591Z" fill="#572922"/>
</svg>
