<svg width="80" height="88" viewBox="0 0 80 88" fill="none" xmlns="http://www.w3.org/2000/svg">
<path fill-rule="evenodd" clip-rule="evenodd" d="M33.6185 44.6012C33.1793 44.4215 32.3806 44.5214 31.6219 45.3C30.8632 46.0987 30.1445 47.5761 29.1262 48.9737C28.1279 50.3913 26.8301 51.709 25.0133 52.7073C23.1964 53.7056 20.8803 54.3645 18.8438 55.1631C16.8273 55.9618 15.1102 56.8602 13.7126 57.7986C12.315 58.737 11.2369 59.6954 10.1986 60.7336C9.16041 61.7718 8.16212 62.8899 7.24369 64.1877C6.32527 65.4854 5.4867 66.9429 4.94763 68.4004C4.40855 69.858 4.14899 71.3155 3.76964 72.8728C3.37033 74.4301 2.83125 76.1073 2.47187 77.7245C2.11248 79.3417 1.95276 80.939 1.85293 82.2966C1.7531 83.6743 1.71317 84.8323 3.05088 85.6509C4.40855 86.4695 7.14387 86.9287 10.3783 86.9087C13.6128 86.8888 17.3065 86.3896 20.9402 86.1501C24.554 85.9304 28.108 85.9704 31.2027 86.0901C34.3173 86.2099 36.9728 86.4296 40.1673 86.5693C43.3618 86.7091 47.0555 86.7889 50.5895 86.8289C54.1034 86.8488 57.4377 86.8089 60.5125 86.789C63.5872 86.769 66.4223 86.769 68.3989 86.6093C70.3756 86.4495 71.4936 86.1101 71.7732 84.5328C72.0527 82.9555 71.4537 80.1204 70.8348 77.6047C70.2158 75.089 69.537 72.8728 68.9979 71.1358C68.4588 69.3788 68.0396 68.101 67.5204 66.7034C67.0013 65.3058 66.3824 63.8083 65.6636 62.6303C64.9648 61.4524 64.1662 60.5739 63.1679 59.7952C62.1696 59.0165 60.9517 58.3577 59.3345 57.7387C57.7172 57.1198 55.6807 56.5408 53.8838 55.822C52.0869 55.1232 50.5495 54.2846 49.2917 53.3462C48.0139 52.4078 47.0156 51.3696 46.197 50.4712C45.3584 49.5727 44.6995 48.834 43.5216 48.3149C42.3436 47.7957 40.6465 47.4963 39.0093 47.1169C37.3721 46.7176 35.7948 46.2184 34.9762 45.7393C34.1576 45.2601 34.0777 44.8208 33.6185 44.6412V44.6012Z" fill="#39AC55"/>
<path fill-rule="evenodd" clip-rule="evenodd" d="M20.886 19.3845C21.1855 19.9436 21.5449 19.6241 22.4434 18.9852C23.3418 18.3463 24.7993 17.3879 25.8974 16.4895C26.9756 15.591 27.6944 14.7524 28.1935 13.9738C28.6927 13.1751 28.9921 12.4364 29.2317 11.8374C29.4913 11.2385 29.6909 10.7793 30.1901 11.0787C30.6892 11.3982 31.4879 12.4763 32.6259 13.3149C33.764 14.1535 35.2614 14.7325 36.7389 15.1318C38.2163 15.5311 39.6739 15.7308 41.2112 15.9704C42.7486 16.19 44.3858 16.4495 45.7834 16.4895C47.201 16.5294 48.3989 16.3697 49.5969 16.1301C50.7748 15.9105 51.9528 15.611 52.8313 14.7924C53.7298 13.9738 54.3288 12.6161 53.8695 10.8591C53.4103 9.10212 51.873 6.96578 50.1559 5.46835C48.4388 3.97091 46.5621 3.11238 44.4856 2.51341C42.4092 1.91443 40.1331 1.57501 37.817 1.43525C35.501 1.29549 33.1251 1.39532 30.9887 1.8745C28.8724 2.35368 26.9956 3.23218 25.6579 4.1506C24.3201 5.06903 23.5415 6.02739 22.9026 7.20537C22.2637 8.38335 21.7645 9.80093 21.3253 11.2984C20.8661 12.7958 20.4468 14.3731 20.3669 15.8905C20.2871 17.4079 20.5466 18.8454 20.8461 19.4045L20.886 19.3845Z" fill="#572922"/>
<path d="M35.761 2.13293C33.8842 2.39249 32.4866 3.05136 31.1289 3.69027L29.9909 4.20938L29.0125 4.60869C27.595 5.1877 26.1375 5.78668 25.0793 6.98463C24.4803 7.66346 23.9612 8.56192 23.5419 9.56021C23.0428 10.7582 22.6634 12.0759 22.4039 13.3138C22.1643 14.4718 22.0644 15.5699 22.0245 16.6481C22.0046 17.7662 22.0644 18.9042 22.2042 20.1621C22.344 21.4199 22.5436 22.8175 22.7832 24.255C23.0228 25.7125 23.3223 27.19 23.6018 28.6076C23.9013 30.0252 24.2008 31.4228 24.5801 32.7605C24.9395 34.0383 25.3788 35.2362 25.8979 36.2745C26.417 37.2927 27.0359 38.1912 27.7148 38.9898C28.3936 39.8084 29.1523 40.5471 29.891 41.2459C30.6298 41.9447 31.3885 42.6236 32.1871 43.2425C32.9658 43.8415 33.7644 44.4005 34.6629 44.8597C35.5613 45.319 36.5596 45.6983 37.5779 45.9778C38.5762 46.2374 39.5745 46.3971 40.5727 46.4171C41.571 46.437 42.5494 46.3372 43.5077 46.1176C44.4661 45.898 45.4045 45.5386 46.3229 45.0594C47.2413 44.5603 48.1398 43.9413 48.9783 43.2226C49.7969 42.5038 50.5756 41.6852 51.2345 40.7867C51.9133 39.8883 52.4724 38.89 52.9715 37.8318C53.4707 36.7536 53.9099 35.6156 54.2693 34.4176C54.6486 33.1997 54.9681 31.9219 55.2476 30.6441C55.5271 29.3264 55.7867 28.0086 56.0063 26.6909C56.2259 25.3532 56.4456 24.0354 56.6252 22.7576C56.8049 21.4798 56.9647 20.2419 57.0845 19.1238C57.2043 17.9658 57.3041 16.9076 57.344 15.8894C57.3839 14.8911 57.4039 13.9327 57.344 13.0143C57.3041 12.1358 57.1843 11.2773 56.9647 10.4786C56.745 9.69997 56.4056 8.96124 55.8666 8.22251C55.3275 7.50374 54.5887 6.78497 53.7502 6.14606C52.8317 5.42729 51.7935 4.78839 50.7553 4.28924C49.777 3.81006 48.7987 3.45068 47.7405 3.17116C46.6623 2.87167 45.5043 2.65205 44.1866 2.47235C42.7091 2.25273 41.012 2.07304 39.3948 2.01314C38.097 1.95324 36.8391 1.99317 35.761 2.13293ZM30.3503 2.01314C31.8277 1.31434 33.3651 0.595568 35.5014 0.296081C36.6994 0.136355 38.0571 0.0964231 39.4547 0.15632C41.1717 0.216218 42.9087 0.415876 44.4261 0.6355C45.8238 0.835158 47.0616 1.07475 48.1997 1.37423C49.3577 1.69369 50.4359 2.093 51.534 2.63208C52.672 3.19112 53.83 3.88993 54.8483 4.68856C55.8067 5.42729 56.6652 6.26586 57.3041 7.12439C57.9829 8.04281 58.4222 9.00117 58.7017 9.9795C58.9812 10.9379 59.081 11.9162 59.1409 12.9145C59.2008 13.8928 59.1809 14.911 59.1409 15.9692C59.081 17.0274 59.0012 18.1455 58.8614 19.3235C58.7416 20.5015 58.5819 21.7593 58.4022 23.0172C58.2225 24.3149 58.0029 25.6527 57.7833 26.9904C57.5437 28.3281 57.3041 29.7057 57.0046 31.0235C56.7051 32.3612 56.3657 33.6989 55.9863 34.9567C55.587 36.2345 55.1278 37.4524 54.5887 38.6105C54.0497 39.7685 53.4108 40.8666 52.6521 41.8649C51.9133 42.8632 51.0548 43.7816 50.1364 44.6002C49.198 45.4188 48.1797 46.1176 47.1415 46.6766C46.0833 47.2357 45.0052 47.655 43.8871 47.9145C42.7889 48.1741 41.6309 48.2939 40.4729 48.2539C39.3349 48.214 38.1768 48.0343 37.0588 47.7548C35.9007 47.4553 34.7827 47.0161 33.7644 46.4969C32.7661 45.9778 31.8477 45.3789 31.0091 44.7C30.1905 44.0611 29.3919 43.3224 28.5933 42.5836C27.7946 41.8249 26.996 41.0463 26.2573 40.1678C25.4986 39.2693 24.7998 38.271 24.2008 37.113C23.6218 35.955 23.1626 34.6572 22.7633 33.2796C22.3839 31.9419 22.0644 30.4844 21.745 28.9869C21.4455 27.5095 21.146 25.9921 20.9064 24.5545C20.6668 23.097 20.4472 21.6795 20.3075 20.3617C20.1677 19.044 20.1078 17.8261 20.1278 16.6281C20.1477 15.4102 20.2875 14.2122 20.5271 12.9744C20.7866 11.6167 21.2059 10.1792 21.7849 8.86141C22.2841 7.70339 22.903 6.62524 23.6417 5.78668C24.9795 4.26928 26.6366 3.59044 28.2538 2.93157L29.1922 2.53225L30.2904 2.03311L30.3503 2.01314Z" fill="#572922"/>
<path d="M22.3231 18.6445C22.4829 18.7643 22.7424 18.7842 23.0818 18.7243C23.5411 18.6445 24.1201 18.4448 24.719 18.1453C25.338 17.8458 25.9769 17.4864 26.5958 17.0871C27.2347 16.6678 27.8736 16.2286 28.4127 15.7694C28.9318 15.3501 29.3511 14.9508 29.6706 14.5714C30.01 14.1921 30.2895 13.8327 30.5091 13.4733C30.9284 12.8144 31.188 12.1556 31.4275 11.6165L31.4874 11.4767C31.6472 11.0774 31.8069 10.738 32.0664 10.4585C32.5257 9.9793 33.0647 9.83954 33.7835 10.2788C34.083 10.4784 34.4024 10.7779 34.7818 11.1773C35.1811 11.5965 35.7002 12.1156 36.2792 12.5549C36.7584 12.9143 37.3175 13.2138 37.9164 13.4733C38.6152 13.7728 39.354 14.0324 40.1127 14.232C41.4703 14.5914 42.848 14.7911 44.2656 15.0107L44.6649 15.0706C46.1224 15.2902 47.6597 15.5098 48.9575 15.5498C49.6164 15.5697 50.2353 15.5298 50.8343 15.4699C51.4133 15.41 51.9923 15.3102 52.5713 15.2103C53.1304 15.1105 53.6694 14.9907 54.1486 14.811C54.5879 14.6513 55.0072 14.4317 55.3466 14.0923C55.706 13.7528 56.0054 13.3136 56.1452 12.7546C56.265 12.2754 56.285 11.6964 56.1053 11.0575C55.9056 10.3187 55.4664 9.46019 54.8874 8.62163C54.2684 7.72317 53.4898 6.84467 52.6712 6.1259C51.8725 5.4271 51.034 4.88802 50.1754 4.42881C49.277 3.9696 48.3386 3.63018 47.3603 3.35066C46.3819 3.07114 45.3637 2.85151 44.3055 2.67182C43.2074 2.49213 42.0693 2.37233 40.8913 2.31243C39.7134 2.25254 38.4954 2.23257 37.3374 2.31243C36.2992 2.37233 35.2809 2.51209 34.3226 2.73172C33.3243 2.95134 32.3659 3.27079 31.4874 3.65014C30.589 4.02949 29.7504 4.44878 28.9717 4.90799C28.1931 5.34724 27.4943 5.80645 26.8554 6.26566C26.2364 6.72488 25.6774 7.22402 25.1782 7.78307C24.6991 8.32214 24.2598 8.90115 23.8805 9.50012C23.4612 10.159 23.1218 10.8778 22.8023 11.6165C22.5028 12.3552 22.2433 13.094 22.0636 13.8327C21.9039 14.5315 21.7841 15.2303 21.7441 15.9091C21.7042 16.6279 21.7441 17.3068 21.8839 17.8458C21.9837 18.2252 22.1235 18.5047 22.3032 18.6445H22.3231ZM23.3614 20.5412C22.5428 20.661 21.824 20.5612 21.225 20.1219C20.6859 19.7226 20.3465 19.0837 20.1469 18.325C19.9472 17.5863 19.8873 16.7078 19.9472 15.8293C19.9871 15.0506 20.1069 14.232 20.3066 13.4134C20.5062 12.5749 20.7858 11.7163 21.1252 10.9177C21.4646 10.0991 21.8639 9.30047 22.3431 8.54177C22.7824 7.823 23.2815 7.14416 23.8405 6.54519C24.4195 5.90628 25.0585 5.34724 25.7772 4.80816C26.476 4.28905 27.2547 3.7899 28.0733 3.31072C28.8919 2.83155 29.8103 2.37233 30.7687 1.97302C31.747 1.55373 32.8052 1.19435 33.9233 0.95476C34.9815 0.71517 36.0995 0.575409 37.2176 0.495546C38.4555 0.415683 39.7333 0.435649 40.9912 0.495546C42.1891 0.555443 43.407 0.695204 44.585 0.874896C45.7231 1.05459 46.8212 1.29418 47.8594 1.59367C48.9575 1.91312 49.9957 2.29247 50.994 2.79161C52.0123 3.31072 52.9706 3.92966 53.8891 4.7283C54.8275 5.5469 55.706 6.54519 56.4048 7.56344C57.1036 8.56173 57.6227 9.61992 57.8822 10.5783C58.1418 11.5566 58.1218 12.4351 57.9222 13.1938C57.6826 14.1122 57.1834 14.851 56.5845 15.41C56.0454 15.9091 55.4264 16.2486 54.7676 16.4882C54.1486 16.7277 53.5097 16.8675 52.8908 16.9873C52.2918 17.1071 51.6529 17.2069 50.994 17.2668C50.3352 17.3267 49.6364 17.3667 48.8777 17.3467C47.4401 17.3068 45.8828 17.0672 44.3654 16.8475L43.9661 16.7876C42.4686 16.568 41.0511 16.3484 39.5936 15.969C38.775 15.7494 37.9364 15.4699 37.1378 15.1305C36.419 14.811 35.7601 14.4516 35.1611 14.0124C34.4623 13.4933 33.8833 12.9143 33.4241 12.4351L33.1446 12.1556L33.0847 12.2754C32.8252 12.8943 32.5257 13.633 32.0265 14.4117C31.747 14.851 31.4275 15.2902 31.0083 15.7494C30.589 16.2086 30.1098 16.6679 29.5508 17.147C28.9717 17.6262 28.2929 18.1254 27.5542 18.5846C26.8753 19.0238 26.1566 19.4231 25.4578 19.7625C24.719 20.1219 23.9803 20.3815 23.3015 20.4813L23.3614 20.5412Z" fill="#572922"/>
<path d="M21.5674 23.6963L24.1829 22.7179C25.0614 22.3985 25.88 22.099 26.6387 21.8594C27.4174 21.6198 28.1561 21.4202 28.8349 21.2604C29.5337 21.1207 30.1926 21.0208 30.8115 20.9809C31.4505 20.941 32.0295 20.9809 32.6284 21.0408C33.1875 21.1007 33.7665 21.2205 34.4054 21.3403C35.0643 21.4801 35.823 21.6398 36.5218 21.8195C37.1207 21.9792 37.6798 22.1389 38.0991 22.2787L38.6781 22.4983C39.1772 22.698 39.5765 22.8577 40.1955 22.7778C40.7945 22.7179 41.6929 22.4584 42.6313 22.1789C43.1903 22.0191 43.7494 21.8594 44.4083 21.6997C45.2269 21.5 46.0055 21.3603 46.7443 21.2604C47.483 21.1606 48.2217 21.1007 48.9205 21.0807C49.6393 21.0608 50.3381 21.0608 50.977 21.1207C51.6359 21.1606 52.2548 21.2405 52.8139 21.3603C53.3929 21.4801 53.912 21.6198 54.3912 21.7995C54.8703 21.9792 55.2896 22.1589 55.6889 22.3386C56.0483 22.4983 56.4077 22.698 56.7871 22.8976L57.8053 23.4567L56.8869 25.0539L55.9285 24.5149C55.629 24.3551 55.2896 24.1754 54.9103 23.9958C54.5509 23.8161 54.1715 23.6563 53.8122 23.5365C53.4128 23.3968 52.9936 23.277 52.5144 23.1772C52.0152 23.0773 51.4762 23.0174 50.8971 22.9775C50.2782 22.9376 49.6393 22.9176 49.0004 22.9376C48.3615 22.9575 47.7026 23.0174 47.0038 23.0973C46.325 23.1971 45.6062 23.3169 44.8675 23.4966C44.3683 23.6164 43.7494 23.7961 43.1704 23.9558C42.1721 24.2353 41.2137 24.5149 40.455 24.5947C39.3769 24.7145 38.7979 24.4949 38.0392 24.1954L37.5201 23.9958C37.1008 23.836 36.6016 23.6963 36.1025 23.5765C35.4436 23.4167 34.7248 23.257 34.0859 23.1173C33.5069 22.9975 32.9878 22.8976 32.4687 22.8377C31.9696 22.7778 31.4904 22.7579 30.9713 22.7778C30.4522 22.7978 29.8931 22.8976 29.2742 23.0174C28.6552 23.1572 27.9764 23.3369 27.2377 23.5765C26.479 23.8161 25.6803 24.0956 24.8617 24.3951L22.2862 25.3734L21.6273 23.6563L21.5674 23.6963Z" fill="#572922"/>
<path d="M26.7956 23.7559C26.9952 24.854 27.1949 25.9521 27.4544 26.9504C27.5543 27.3697 27.6741 27.789 27.8138 28.1883C27.9536 28.6475 28.0933 29.0468 28.2131 29.3463C28.313 29.5859 28.3928 29.8055 28.4927 29.9253C28.5526 30.0052 28.6524 30.0651 28.8121 30.125C29.0517 30.2248 29.4111 30.2847 29.8304 30.3047C30.2696 30.3446 30.7288 30.3247 31.1481 30.2847C31.5674 30.2248 31.9667 30.125 32.3461 30.0052C32.7454 29.8654 33.1247 29.7057 33.5041 29.526C33.8834 29.3463 34.2628 29.1666 34.6222 28.967C34.9616 28.7673 35.281 28.5677 35.5406 28.348C35.7802 28.1484 35.9998 27.9288 36.1595 27.6692C36.3193 27.4096 36.459 27.0902 36.5588 26.6909C36.6786 26.2716 36.7385 25.7126 36.7984 25.1136C36.8583 24.4347 36.8783 23.7958 36.8983 23.137L38.7351 23.1969C38.7151 23.9156 38.6752 24.6544 38.6353 25.2533C38.5754 25.9322 38.4955 26.5711 38.3558 27.1301C38.216 27.7291 37.9964 28.2282 37.7169 28.6475C37.4373 29.0668 37.0979 29.4262 36.7186 29.7456C36.3592 30.0451 35.9599 30.3247 35.5406 30.5443C35.1413 30.7639 34.722 30.9835 34.2827 31.1832C33.8435 31.3828 33.4042 31.5825 32.945 31.7223C32.4659 31.882 31.9467 32.0217 31.3877 32.0816C30.8287 32.1615 30.2297 32.1615 29.7106 32.1216C29.1515 32.0816 28.6125 31.9818 28.1932 31.8221C27.6741 31.6224 27.3346 31.3629 27.0751 31.0235C26.8355 30.724 26.6957 30.3845 26.536 29.9852C26.3962 29.6059 26.2365 29.1666 26.0968 28.7074C25.977 28.3081 25.8372 27.8689 25.7174 27.3697C25.4579 26.3714 25.2582 25.2134 25.0386 24.0554L26.8555 23.716L26.7956 23.7559Z" fill="#572922"/>
<path d="M42.6484 23.2171L43.3672 26.3118C43.467 26.751 43.5669 27.1503 43.7066 27.5097C43.8464 27.8491 44.0061 28.1486 44.2657 28.4681C44.5452 28.8075 44.9245 29.1469 45.3638 29.4464C45.7831 29.7259 46.2223 29.9655 46.6815 30.1252C47.0808 30.265 47.5001 30.3449 47.8994 30.3648C48.3986 30.4048 48.8778 30.3449 49.2771 30.285C49.6165 30.2251 49.896 30.1452 50.1156 30.0454C50.3353 29.9455 50.515 29.8257 50.7146 29.646C50.9342 29.4464 51.1539 29.2068 51.3535 28.9273C51.5332 28.6677 51.7129 28.3483 51.8527 27.9889C52.0124 27.6095 52.1322 27.1503 52.252 26.6911C52.3518 26.2519 52.4516 25.7328 52.5515 25.2336L53.0706 22.4983L54.8875 22.8377L54.3684 25.573C54.2685 26.0522 54.1887 26.5514 54.0489 27.1304C53.9291 27.6694 53.7694 28.2085 53.5697 28.6877C53.3701 29.1669 53.1305 29.5862 52.8709 29.9655C52.5714 30.3848 52.272 30.7442 51.9325 31.0237C51.6131 31.3032 51.2737 31.5428 50.8743 31.7225C50.495 31.9022 50.0757 32.022 49.5965 32.1018C49.0774 32.2017 48.4585 32.2416 47.7796 32.2017C47.2206 32.1617 46.6416 32.0619 46.0826 31.8822C45.4636 31.6826 44.8447 31.3431 44.3056 30.9838C43.7266 30.5844 43.2075 30.1252 42.8281 29.646C42.4288 29.1669 42.1892 28.6877 41.9896 28.1885C41.8099 27.7094 41.6901 27.2502 41.5703 26.751L40.8315 23.6363L42.6285 23.2171H42.6484Z" fill="#572922"/>
<path d="M32.4456 44.3803C32.0463 45.1989 31.647 46.0175 31.1478 46.9359C30.6886 47.7944 30.2095 48.613 29.6504 49.4117C29.0914 50.2103 28.4525 50.969 27.7337 51.6678C26.995 52.3666 26.1564 53.0055 25.1781 53.5446C23.8803 54.2634 22.3429 54.8024 20.8455 55.3415C20.1866 55.5811 19.5277 55.8007 18.9088 56.0603C17.9704 56.4396 17.0919 56.819 16.2933 57.2383C15.4348 57.6775 14.6561 58.1367 13.9573 58.6159C13.2984 59.0552 12.6994 59.5144 12.1404 59.9935C11.6013 60.4528 11.0822 60.9319 10.5631 61.451C10.044 61.9702 9.54485 62.5092 9.08563 63.0283C8.60645 63.5674 8.14724 64.1664 7.70799 64.7853C7.24878 65.4242 6.80953 66.123 6.43018 66.8218C6.0708 67.4608 5.77131 68.1196 5.53172 68.7785C5.17234 69.7568 4.93275 70.7551 4.71312 71.7734L4.39367 73.151C4.23394 73.8099 4.05425 74.4488 3.87456 75.0877C3.59504 76.0461 3.31552 77.0244 3.11586 77.9827C2.93617 78.7814 2.81637 79.56 2.71654 80.2788C2.61671 80.9976 2.55682 81.7363 2.49692 82.4351C2.45699 83.054 2.41706 83.6131 2.51688 84.0324C2.59675 84.3718 2.81637 84.6713 3.25562 84.9308C3.83463 85.2703 4.73309 85.5498 5.89111 85.7494C7.10902 85.9491 8.54656 86.0689 10.1239 86.0489C12.1005 86.0289 14.2767 85.8493 16.5129 85.6296C17.9105 85.5098 19.3281 85.3701 20.6259 85.2902C22.4428 85.1704 24.2397 85.1305 26.1564 85.1305C28.0531 85.1305 30.0298 85.1704 32.1861 85.2303C34.7816 85.3102 37.6168 85.41 40.412 85.5098L46.0423 85.7095C48.2585 85.7894 50.2951 85.8493 52.1918 85.8892C54.1085 85.9291 55.9254 85.9491 57.6624 85.9691C60.3578 85.989 62.9334 85.9691 65.3892 85.9491L68.4839 85.9291C71.1793 85.9092 73.6351 85.8892 75.412 85.7494C76.2905 85.6696 76.9494 85.5697 77.3687 85.3501C77.6682 85.1904 77.8678 84.9109 77.9477 84.4317C78.0675 83.7528 77.9876 82.7346 77.8079 81.6165C77.6282 80.4385 77.3288 79.1208 77.0093 77.8829C76.6898 76.6051 76.3704 75.4271 76.0709 74.3889C75.7515 73.2908 75.452 72.3124 75.1924 71.4539L74.4537 69.1179C74.1941 68.3592 73.9745 67.7003 73.7349 67.0614C73.4753 66.3826 73.1958 65.6638 72.8963 65.005C72.5969 64.3461 72.2774 63.7072 71.938 63.1481C71.6185 62.6091 71.2791 62.1299 70.8998 61.7106C70.5204 61.2913 70.1211 60.912 69.6619 60.5725C69.2027 60.2132 68.7035 59.8937 68.1045 59.5743C67.5056 59.2548 66.8267 58.9354 66.068 58.6359C65.3493 58.3563 64.4907 58.0768 63.6322 57.7973C62.594 57.4579 61.5158 57.0985 60.5974 56.7191C59.679 56.3598 58.8005 55.9604 58.0019 55.5212C57.2032 55.082 56.4445 54.6227 55.7856 54.1236C55.1068 53.6245 54.5278 53.1053 53.9887 52.5862C53.4496 52.0671 52.9904 51.5879 52.5712 51.1287C52.1319 50.6695 51.7526 50.2303 51.3932 49.791C51.0138 49.3318 50.6744 48.8327 50.3549 48.2337C49.736 47.0956 49.2169 45.6781 48.9573 44.9593L48.6978 44.2605L50.4348 43.6415L50.7143 44.4002C50.9739 45.0991 51.4531 46.3968 51.9722 47.3752C52.2317 47.8543 52.5113 48.2736 52.8307 48.6729C53.1701 49.0922 53.5295 49.4915 53.9089 49.9108C54.3082 50.3501 54.7674 50.8292 55.2466 51.2885C55.7257 51.7477 56.2648 52.2268 56.8638 52.6661C57.4628 53.1053 58.1416 53.5246 58.8604 53.9239C59.5991 54.3233 60.3977 54.6826 61.2563 55.0221C62.2546 55.4214 63.2329 55.7408 64.1912 56.0603C65.0697 56.3598 65.9283 56.6393 66.7069 56.9388C67.5655 57.2782 68.3042 57.6176 68.9631 57.957C69.6419 58.3164 70.2209 58.7157 70.76 59.115C71.319 59.5343 71.7982 59.9935 72.2375 60.4927C72.6767 60.9918 73.096 61.5708 73.4754 62.2097C73.8547 62.8287 74.1941 63.5475 74.5335 64.2662C74.853 64.985 75.1525 65.7237 75.412 66.4425C75.6916 67.2012 75.9311 67.88 76.1508 68.5589L76.9095 70.9148C77.189 71.8133 77.4885 72.8116 77.8079 73.8897C78.1274 75.0078 78.4468 76.2058 78.7663 77.4437C79.0857 78.7215 79.3852 80.0791 79.5849 81.337C79.7845 82.6547 79.8644 83.8527 79.7246 84.7511C79.545 85.8493 79.0258 86.5281 78.2072 86.9873C77.5084 87.3667 76.6299 87.5064 75.5119 87.6063C73.7349 87.766 71.1992 87.766 68.444 87.7859L65.3692 87.8059C62.9134 87.8259 60.3179 87.8458 57.6225 87.8259C55.8455 87.8059 54.0287 87.7859 52.1319 87.746C50.1952 87.7061 48.1587 87.6462 45.9625 87.5663L40.3121 87.3667C37.497 87.2668 34.6219 87.167 32.1062 87.0871C29.9499 87.0272 27.9733 86.9873 26.1165 86.9873C24.2796 86.9873 22.5027 87.0272 20.6858 87.147C19.2482 87.2269 17.9305 87.3667 16.6127 87.4665C14.3366 87.6661 12.1204 87.8658 10.064 87.8858C8.38683 87.9057 6.8295 87.7859 5.53172 87.5663C4.17405 87.3267 3.036 86.9873 2.2773 86.5081C1.35887 85.969 0.919621 85.2702 0.699997 84.4916C0.520305 83.7728 0.560236 83.074 0.620134 82.3153C0.680031 81.6365 0.739929 80.8977 0.839758 80.0791C0.939587 79.2605 1.07935 78.4419 1.25904 77.6233C1.47866 76.6251 1.75818 75.6068 2.03771 74.6285C2.2174 73.9896 2.39709 73.3307 2.55682 72.7517L2.87627 71.414C3.13582 70.3159 3.37541 69.2577 3.77473 68.1795C4.05425 67.4408 4.39367 66.702 4.79299 65.9833C5.21227 65.2046 5.69145 64.4459 6.19059 63.7671C6.66977 63.1082 7.16892 62.4693 7.66806 61.8703C8.20714 61.2514 8.72625 60.6923 9.24536 60.1932C9.76447 59.6741 10.3235 59.155 10.9225 58.6359C11.5215 58.1367 12.1604 57.6376 12.8991 57.1384C13.6578 56.6393 14.4964 56.1401 15.4148 55.661C16.2733 55.2217 17.1917 54.8024 18.21 54.4031C18.8489 54.1436 19.5278 53.904 20.2066 53.6644C21.6242 53.1652 23.0817 52.6461 24.2596 51.9873C25.0982 51.528 25.817 50.989 26.4359 50.39C27.0748 49.791 27.6139 49.1122 28.113 48.4134C28.6122 47.6946 29.0714 46.9159 29.5107 46.1173C29.91 45.3786 30.3292 44.5001 30.7685 43.6216L32.4257 44.4202L32.4456 44.3803Z" fill="#572922"/>
<path d="M28.6722 49.1135L28.6922 49.1335C30.6488 50.5511 32.6055 51.9487 34.4224 52.8272C35.3008 53.2464 36.1594 53.5459 37.0179 53.7656C37.8764 53.9852 38.735 54.105 39.5735 54.1848C40.4121 54.2647 41.2706 54.2847 42.1292 54.2447C42.9478 54.2048 43.7663 54.085 44.565 53.8654C45.3636 53.6458 46.1622 53.3463 46.9409 52.9869C47.7196 52.6275 48.4583 52.2282 49.1571 51.8289C49.8759 51.4296 50.4948 51.0502 51.0738 50.7108L52.8109 49.6526L53.7692 51.2099L52.0122 52.2881C51.3733 52.6674 50.7344 53.0468 50.0556 53.4261C49.3368 53.8255 48.5581 54.2447 47.7196 54.6441C46.861 55.0434 45.9626 55.3828 45.0442 55.6423C44.1257 55.8819 43.1674 56.0217 42.229 56.0816C41.3106 56.1215 40.3722 56.1016 39.4138 56.0017C38.4754 55.9219 37.5171 55.7621 36.5787 55.5425C35.6203 55.3029 34.642 54.9635 33.6237 54.4843C31.6671 53.5459 29.6505 52.0884 27.634 50.6309H27.614L28.6522 49.1135H28.6722Z" fill="#572922"/>
<path d="M26.0966 51.867L29.3709 56.7386L30.6687 58.7153L31.8267 60.5122C32.1462 61.0313 32.3259 61.3108 32.3658 61.3108C32.5455 61.2908 32.845 61.1311 33.2044 60.9115C33.6237 60.6519 34.0829 60.3125 34.5022 59.9731L35.1011 59.4939C35.7999 58.9349 36.4788 58.4158 37.1975 57.9765C37.6967 57.677 38.2158 57.4574 38.7549 57.3176C39.3538 57.1779 39.9528 57.1779 40.5718 57.3775C41.3105 57.6171 41.9694 58.0763 42.6682 58.5755C43.0076 58.8151 43.3869 59.0746 43.7064 59.2743C44.4851 59.7335 45.3636 60.0929 46.0624 60.3924L46.8011 60.6919C47.1205 60.8316 47.3202 60.9115 47.3801 60.8716C47.6996 60.592 48.1987 59.7734 48.6579 59.0147L49.0173 58.4158C49.3567 57.8767 49.6362 57.4374 49.9158 57.0381C50.7543 55.8801 51.6128 54.762 52.4514 53.624C52.9705 52.9052 53.4697 52.1864 53.7292 51.827L54.0087 51.4277L55.5261 52.466L55.2666 52.8453C55.007 53.2247 54.4879 53.9634 53.9488 54.7021L52.2518 56.9583C52.0122 57.2777 51.7526 57.6371 51.4332 58.0763C51.1536 58.4956 50.8541 58.9149 50.5946 59.3542L50.2352 59.9332C49.6961 60.8316 49.1371 61.7501 48.598 62.2292C47.6596 63.0478 47.0806 62.8082 46.0823 62.369L45.3835 62.0695C44.6248 61.77 43.6665 61.3907 42.748 60.8316C42.3288 60.5721 41.9494 60.3125 41.61 60.053C41.031 59.6337 40.4719 59.2344 40.0127 59.0946C39.7332 58.9948 39.4337 59.0147 39.1542 59.0746C38.8148 59.1545 38.4754 59.3142 38.116 59.5139C37.517 59.8533 36.8981 60.3524 36.2192 60.8915L35.6202 61.3707C35.1411 61.7501 34.622 62.1294 34.1627 62.4089C33.6237 62.7483 33.1046 62.9879 32.6453 63.0678C31.4274 63.2675 31.0081 62.6086 30.2694 61.4306L29.1314 59.6536C27.6339 57.3775 26.1165 55.1014 24.5991 52.8453L26.1165 51.8071L26.0966 51.867Z" fill="#572922"/>
<path d="M40.4164 55.1033L40.9156 86.3897L39.0787 86.4096L38.5796 55.1232L40.4164 55.1033Z" fill="#572922"/>
<path fill-rule="evenodd" clip-rule="evenodd" d="M47.7419 71.6947C47.1829 71.6748 46.5639 71.9144 46.1247 72.6731C45.6855 73.4318 45.4459 74.6696 45.366 75.8876C45.3061 77.0855 45.4259 78.2635 45.9849 78.8625C46.544 79.4614 47.5423 79.5014 48.3808 79.5413C49.1994 79.5812 49.8583 79.6212 50.7168 79.6411C51.5754 79.6611 52.6735 79.6611 53.6518 79.5812C54.6301 79.5014 55.5086 79.3416 56.1276 78.9423C56.7465 78.543 57.1259 77.9241 57.2257 76.9657C57.3255 76.0074 57.1658 74.7096 57.046 73.871C56.9262 73.0125 56.8463 72.5932 56.447 72.3736C56.0477 72.154 55.3489 72.0941 54.0911 72.114C52.8332 72.134 51.0563 72.2139 49.9182 72.114C48.7802 72.0142 48.301 71.7147 47.7419 71.6947Z" fill="#FEFEFE"/>
<path d="M48.2181 72.6118C47.7189 72.6118 47.3795 72.6517 47.1199 72.7515C46.9602 72.8114 46.8205 72.9512 46.7007 73.1309C46.5409 73.4104 46.4012 73.7897 46.3013 74.229C46.1815 74.7481 46.1017 75.3471 46.0817 75.9061C46.0618 76.4851 46.0618 77.0442 46.1616 77.5034C46.2215 77.8029 46.3213 78.0624 46.4611 78.2022C46.5809 78.3419 46.8205 78.4218 47.1199 78.4817C47.5792 78.5616 48.1781 78.5815 48.8769 78.6015L53.9882 78.7013H56.0047C56.5438 78.7013 57.0429 78.6814 57.5421 78.6215C58.0013 78.5815 58.4206 78.5216 58.78 78.4418C59.0994 78.3619 59.3789 78.2621 59.6185 78.1223C59.7982 78.0025 59.958 77.8628 60.0578 77.6631C60.1776 77.4435 60.2574 77.164 60.2974 76.8245C60.3373 76.4252 60.3173 75.9061 60.2774 75.407C60.2375 74.8879 60.1576 74.3687 60.0977 73.9495C60.0378 73.5701 59.9979 73.3106 59.938 73.1508C59.918 73.1109 59.958 73.1309 59.938 73.1109C59.8581 73.071 59.6984 73.031 59.4588 73.0111C59.1194 72.9711 58.6602 72.9711 58.0612 72.9911L57.2226 73.0111C56.0447 73.031 54.5872 73.071 53.1296 72.9911C52.2711 72.9512 51.3727 72.8513 50.5341 72.7715C49.6356 72.6717 48.817 72.5918 48.1981 72.5918L48.2181 72.6118ZM46.4211 71.0544C46.9003 70.8548 47.4993 70.7749 48.238 70.7749C48.9368 70.7949 49.7954 70.8747 50.7338 70.9746C51.5324 71.0544 52.3709 71.1543 53.2295 71.1942C54.667 71.274 56.0646 71.2341 57.1827 71.2141L58.0213 71.1942C58.6801 71.1742 59.1993 71.1942 59.6185 71.2341C60.1376 71.274 60.537 71.3938 60.8564 71.5735C61.2557 71.8131 61.4953 72.1326 61.675 72.5718C61.7948 72.8913 61.8547 73.2507 61.9146 73.7298C61.9745 74.1691 62.0544 74.7281 62.0943 75.3071C62.1342 75.9061 62.1542 76.525 62.0943 77.0641C62.0344 77.6631 61.8747 78.1822 61.6151 78.6215C61.3556 79.0807 60.9962 79.4401 60.5569 79.7196C60.1576 79.9791 59.6784 80.1588 59.1793 80.2786C58.7001 80.3984 58.181 80.4583 57.6619 80.5182C57.1827 80.5581 56.6436 80.5781 56.0047 80.5981C55.4058 80.5981 54.7469 80.5981 53.9482 80.5981L48.817 80.4982C47.9984 80.4783 47.3396 80.4583 46.7805 80.3585C46.0817 80.2387 45.5227 79.9791 45.0834 79.5199C44.7041 79.1006 44.4645 78.5616 44.3247 77.9426C44.185 77.3037 44.165 76.5849 44.2049 75.8662C44.2449 75.1873 44.3247 74.4885 44.4845 73.8496C44.6242 73.2507 44.8239 72.6717 45.0834 72.2324C45.4029 71.6734 45.8022 71.294 46.3812 71.0744L46.4211 71.0544Z" fill="#572922"/>
<path d="M27.3788 52.0464L27.259 52.0863C25.3623 52.4856 23.4456 52.9049 22.2077 53.5239C21.6686 53.8034 21.2294 54.1228 20.9299 54.5022C20.6104 54.8815 20.3908 55.3208 20.2311 55.8399C20.0714 56.3989 19.9715 57.0578 19.9116 57.6967C19.8517 58.4155 19.8517 59.0544 19.8318 59.5535L19.8118 61.7098H17.7354L17.7553 59.5336C17.7553 58.9546 17.7753 58.2358 17.8352 57.537C17.8951 56.7783 18.0149 55.9597 18.2345 55.2409C18.4741 54.4622 18.8135 53.7834 19.3326 53.1645C19.8318 52.5655 20.4707 52.0663 21.2893 51.667C22.7667 50.9083 24.8032 50.4891 26.8398 50.0498L27.0594 51.0481L27.3988 52.0664L27.3788 52.0464Z" fill="#572922"/>
<path d="M53.5713 49.4517C55.3083 49.8709 57.0453 50.3102 58.2832 52.2469C59.4013 54.0238 59.9004 56.9388 60.3996 59.8738L58.3431 60.2532V60.2132C57.8839 57.4979 57.4247 54.8025 56.5262 53.365C55.7276 52.1271 54.3898 51.7877 53.0521 51.4682H53.0122L53.3516 50.2703L53.5513 49.4517H53.5912H53.5713Z" fill="#572922"/>
<path fill-rule="evenodd" clip-rule="evenodd" d="M56.6413 61.1531C56.1222 61.5125 55.6031 62.0915 55.4234 62.7903C55.2437 63.5091 55.4035 64.3676 55.8627 65.0664C56.3219 65.7652 57.0606 66.3043 57.7794 66.7036C58.4982 67.0829 59.177 67.3225 59.8958 67.2826C60.6345 67.2427 61.4132 66.9632 61.9922 66.3242C62.5712 65.7053 62.9306 64.7469 63.0703 63.9483C63.2101 63.1497 63.1103 62.4908 62.651 61.8918C62.1918 61.2929 61.3533 60.7538 60.5546 60.5142C59.756 60.2746 58.9773 60.3545 58.3384 60.4942C57.6995 60.614 57.1804 60.7937 56.6413 61.1531Z" fill="#572922"/>
<path d="M57.2442 62.0111C57.0446 62.1509 56.8449 62.3306 56.6852 62.5502C56.5654 62.7099 56.4855 62.8896 56.4256 63.0693C56.3657 63.2889 56.3657 63.5285 56.4057 63.7681C56.4456 64.0277 56.5654 64.2872 56.7051 64.5268C56.8449 64.7464 57.0446 64.966 57.2841 65.1657C57.5836 65.4253 57.9231 65.6249 58.2425 65.8046C58.542 65.9643 58.8215 66.0841 59.0811 66.164C59.3207 66.2439 59.5802 66.2638 59.8198 66.2638C60.0794 66.2439 60.3389 66.184 60.5985 66.0841C60.8181 65.9843 61.0377 65.8445 61.1974 65.6449C61.3771 65.4452 61.5369 65.1857 61.6766 64.8862C61.8364 64.5268 61.9561 64.1475 61.9961 63.808C62.036 63.5285 62.056 63.269 62.016 63.0693C61.9761 62.8896 61.9162 62.7299 61.7765 62.5702C61.6167 62.3705 61.3771 62.1708 61.1176 61.9911C60.8181 61.7915 60.5186 61.6517 60.2191 61.5719C59.9196 61.492 59.6401 61.4521 59.3606 61.472C59.0811 61.472 58.7816 61.5319 58.5021 61.5719C58.2425 61.6318 58.0029 61.6917 57.7833 61.7715C57.5836 61.8514 57.4039 61.9312 57.2243 62.071L57.2442 62.0111ZM55.008 61.2923C55.3075 60.893 55.6669 60.5536 56.0463 60.2941C56.3857 60.0545 56.7251 59.8748 57.0845 59.755C57.4239 59.6352 57.7633 59.5354 58.1427 59.4755C58.5021 59.4156 58.9213 59.3557 59.3606 59.3357C59.8198 59.3357 60.319 59.3756 60.8381 59.5154C61.3572 59.6551 61.8563 59.9147 62.2956 60.1942C62.7548 60.4937 63.1741 60.8531 63.4735 61.2524C63.813 61.6917 64.0126 62.1509 64.1125 62.65C64.1923 63.1292 64.1923 63.6084 64.0925 64.1275C64.0126 64.6466 63.8329 65.1857 63.6133 65.7247C63.3937 66.2039 63.1142 66.6631 62.7548 67.0425C62.3754 67.4418 61.9362 67.7413 61.477 67.9609C60.9778 68.1805 60.4387 68.3003 59.9396 68.3203C59.4604 68.3403 58.9812 68.2804 58.542 68.1606C58.1227 68.0408 57.7034 67.8611 57.2841 67.6215C56.8449 67.3819 56.3857 67.0824 55.9664 66.723C55.5871 66.4036 55.2476 66.0442 54.9881 65.6249C54.6886 65.1657 54.4889 64.6466 54.3891 64.1275C54.2893 63.5884 54.2893 63.0294 54.429 62.5302C54.5488 62.071 54.7685 61.6517 55.028 61.2923H55.008Z" fill="#572922"/>
<path d="M15.0919 68.7993V65.9842C15.0919 65.0258 15.0919 64.0874 15.2716 63.2488C15.3715 62.7896 15.5312 62.3903 15.7308 62.0309C15.9305 61.6715 16.1901 61.3321 16.4696 61.0526C16.7691 60.7531 17.1284 60.4736 17.5078 60.2739C17.8672 60.0743 18.2665 59.9345 18.6858 59.8547C19.0851 59.7948 19.5044 59.8147 19.8837 59.8946C20.303 59.9744 20.7223 60.1142 21.0617 60.2939C21.4011 60.4736 21.7206 60.6733 21.9602 60.9328C22.2397 61.2123 22.4393 61.5318 22.5791 61.9311C22.6989 62.2705 22.7588 62.6499 22.7788 63.0691C22.7987 63.4685 22.7987 63.8278 22.7987 64.2272L22.7788 66.7429C22.7788 67.4616 22.7388 67.8809 22.7189 68.2802V68.38L20.6424 68.2802V68.1804C20.6624 67.7611 20.6824 67.3019 20.7023 66.7029V64.2072C20.7023 63.8079 20.7023 63.4285 20.6824 63.169C20.6624 62.9294 20.6424 62.7297 20.5825 62.59C20.5426 62.5101 20.5027 62.4302 20.4428 62.3703C20.3629 62.2905 20.2431 62.2106 20.1033 62.1507C19.9037 62.0509 19.6841 61.971 19.4844 61.9311C19.3047 61.8912 19.145 61.8912 18.9653 61.9111C18.8056 61.9311 18.6259 61.991 18.4662 62.0908C18.2665 62.1907 18.0868 62.3504 17.9271 62.5101C17.7674 62.6698 17.6276 62.8495 17.5278 63.0292C17.4279 63.2289 17.3281 63.4485 17.2882 63.7081C17.1684 64.2871 17.1484 65.1256 17.1484 65.9842V68.7993H15.052H15.0919Z" fill="#572922"/>
<path d="M15.9368 82.675H15.8769C15.0583 82.6351 14.2397 82.5752 13.501 82.116C13.1017 81.8764 12.7623 81.537 12.5027 81.1377C12.2431 80.7383 12.0635 80.2991 11.9437 79.8199C11.8438 79.3807 11.7839 78.9015 11.7839 78.3624C11.7839 77.8832 11.8239 77.3242 11.9037 76.6653C11.9636 76.0264 12.0635 75.2677 12.2032 74.509C12.3629 73.7104 12.5626 72.8918 12.8621 72.1531C13.4611 70.6357 14.3995 69.3978 15.0583 68.4993L15.1182 68.4195C15.7571 67.5609 16.1764 67.0218 16.6756 66.5626C16.9551 66.3031 17.2546 66.0835 17.5541 65.9237C17.8935 65.744 18.2529 65.6242 18.5723 65.5843C19.2911 65.5244 19.6704 65.764 20.2894 66.1833L20.489 66.3031C21.0081 66.6425 21.7269 67.1416 22.5255 68.0002C22.9448 68.4594 23.404 69.0384 23.8233 69.6374C24.2226 70.2164 24.582 70.8153 24.8416 71.3944C25.1411 72.0133 25.3207 72.5723 25.4605 73.0914C25.5803 73.6305 25.6402 74.1097 25.6801 74.5889C25.7001 75.0281 25.7201 75.4674 25.7001 75.9066C25.6801 76.3658 25.6602 76.7652 25.6402 77.1445C25.6202 77.5638 25.5803 78.003 25.5204 78.4223C25.4605 78.8815 25.4006 79.3208 25.2808 79.76C25.161 80.2192 25.0013 80.6585 24.8016 81.0378C24.582 81.4372 24.3225 81.7965 24.003 82.0561C23.3441 82.5952 22.6453 82.675 21.9266 82.7349L21.8267 81.7566L21.6071 80.6785L21.7269 80.6585C22.1063 80.6186 22.4856 80.5786 22.6853 80.4389C22.7651 80.359 22.865 80.2392 22.9648 80.0595C23.0846 79.8399 23.1844 79.5604 23.2643 79.2409C23.3441 78.9015 23.404 78.5421 23.444 78.1827C23.4839 77.7834 23.5238 77.3841 23.5438 76.9848L23.6037 75.8268C23.6037 75.4674 23.6037 75.108 23.5837 74.7087C23.5638 74.3293 23.5039 73.95 23.424 73.5706C23.3242 73.1713 23.1844 72.7321 22.9648 72.2928C22.7452 71.8336 22.4457 71.3145 22.1063 70.8353C21.7469 70.3162 21.3675 69.837 21.0081 69.4377C20.3692 68.7389 19.7503 68.3396 19.311 68.0401L19.1314 67.9203C18.8918 67.7606 18.7919 67.6607 18.772 67.6607C18.732 67.6607 18.6721 67.7007 18.5723 67.7406C18.4325 67.8205 18.2529 67.9403 18.0931 68.1C17.7337 68.4394 17.3344 68.9585 16.7355 69.7572L16.7155 69.7771C16.1165 70.5758 15.2979 71.6938 14.7988 72.9317C14.5592 73.5706 14.3795 74.2495 14.2397 74.9083C14.1 75.6071 14.0201 76.286 13.9602 76.865C13.9003 77.424 13.8604 77.9032 13.8604 78.3624C13.8604 78.7418 13.8803 79.0612 13.9602 79.3407C14.0201 79.6003 14.1199 79.8399 14.2397 80.0196C14.3396 80.1593 14.4594 80.2791 14.5791 80.359C14.8786 80.5387 15.3977 80.5786 15.9368 80.5986H15.9967L15.9368 81.6168V82.675Z" fill="#572922"/>
<path fill-rule="evenodd" clip-rule="evenodd" d="M22.0837 81.6572C22.0837 81.3178 21.7243 81.0183 21.4647 81.0383C21.2052 81.0583 21.0654 81.3977 21.0654 81.7371C21.0654 82.0765 21.1852 82.4159 21.4448 82.396C21.7043 82.376 22.0637 81.9967 22.0837 81.6772V81.6572Z" fill="#572922"/>
<path d="M21.0515 81.6375H21.311L21.0914 81.4578L21.0515 81.6375ZM21.311 81.6375H21.3909L21.3709 81.3779C21.311 81.4179 21.1313 81.4578 21.0914 81.4578L21.311 81.6375ZM21.4508 81.6375C21.5506 81.6375 21.5107 81.5976 21.4907 81.4778L21.4508 81.4378V81.6375ZM21.5306 81.6375H21.7702L21.5905 81.5377L21.5306 81.5976V81.6375ZM23.1279 81.5976V81.6774C23.1279 82.0967 22.9282 82.516 22.6687 82.8155C22.3692 83.1549 21.93 83.4145 21.5306 83.4344H21.4108C20.9117 83.4344 20.5323 83.1549 20.2928 82.7755C20.153 82.536 20.0532 82.2365 20.0332 81.937V81.7373C20.0332 81.3979 20.133 81.0186 20.2928 80.739C20.5323 80.3397 20.9117 80.0602 21.4108 80.0203H21.5306C21.91 80.0203 22.3093 80.2 22.5888 80.4795C22.8683 80.759 23.088 81.1383 23.1279 81.5576V81.6175V81.5976ZM21.8501 81.6774H21.5306V81.7373L21.9699 81.7174L21.8501 81.6774ZM21.4907 81.6774H21.4508V81.7373H21.5107V81.6774H21.4907ZM21.3909 81.6774H21.3509L21.3909 81.7174V81.6774ZM21.3509 81.6774L21.0515 81.6974L21.0714 81.7373H21.3709V81.7174L21.331 81.6774H21.3509ZM21.0714 81.7373L21.1114 81.8372L21.2711 81.8172L21.3509 81.7373H21.0515H21.0714ZM21.1114 81.8372L21.1513 81.9569L21.2711 81.8372H21.1114ZM21.4907 81.5776L21.5506 81.5177L21.4907 81.4778V81.5776ZM21.7702 81.6175L21.5905 81.6375H21.8102L21.7702 81.6175ZM21.1513 81.937L21.3909 81.9969V81.7972H21.291L21.1713 81.917L21.1513 81.937ZM21.4108 82.0168L21.4308 82.0368L21.4508 82.0168V81.8172H21.3909V82.0168H21.4108ZM21.4308 82.0368H21.4508V82.0168L21.4308 82.0368ZM21.4508 81.7972V81.7773L21.3909 81.7373V81.8172H21.4508V81.7972ZM21.4508 81.7773V81.7373H21.3909L21.4508 81.7773ZM21.3509 81.7373L21.2711 81.8172H21.3709V81.7373H21.3509ZM21.4907 81.7373V81.7972L21.8501 81.7773L21.91 81.7373H21.4707H21.4907ZM21.4907 81.8172V81.9969L21.6105 81.917L21.4907 81.8172ZM21.6105 81.917L21.7902 81.8172H21.4907L21.6105 81.917ZM21.91 81.7573L21.9899 81.7373H21.93L21.8701 81.7773H21.89L21.91 81.7573Z" fill="#572922"/>
<path fill-rule="evenodd" clip-rule="evenodd" d="M15.873 81.6572C15.873 81.3178 16.2324 81.0183 16.492 81.0383C16.7515 81.0583 16.8913 81.3977 16.8913 81.7371C16.8913 82.0765 16.7715 82.4159 16.512 82.396C16.2524 82.376 15.893 81.9967 15.873 81.6772V81.6572Z" fill="#572922"/>
<path d="M14.8311 81.6365V81.5366C14.871 81.1174 15.0906 80.718 15.3701 80.4585C15.6497 80.1989 16.049 80.0192 16.4283 79.9993H16.5481C17.0473 80.0392 17.4266 80.3187 17.6662 80.718C17.8259 81.0175 17.9258 81.3769 17.9258 81.7163V81.916C17.9058 82.2155 17.8259 82.515 17.6662 82.7546C17.4266 83.1539 17.0473 83.4134 16.5481 83.4334H16.4283C16.029 83.4134 15.5898 83.1539 15.2903 82.8144C15.0307 82.515 14.8311 82.0957 14.8311 81.6764V81.6365ZM16.1887 81.6165H16.4283V81.5766L16.3684 81.5167L16.1887 81.6165ZM16.4483 81.6165H16.4882V81.4168L16.4483 81.4568V81.6165ZM16.5481 81.6165H16.628L16.8476 81.4368C16.8077 81.4368 16.628 81.3769 16.5681 81.3569L16.5481 81.6165ZM16.628 81.6165H16.8676L16.8276 81.4368L16.608 81.6165H16.628ZM16.5681 81.6564H16.5281V81.6764L16.5681 81.6564ZM16.4882 81.6564H16.4483V81.7163H16.4882V81.6564ZM16.4084 81.6564H16.0889L15.9691 81.6964L16.4084 81.7163V81.6564ZM16.5481 81.7163L16.628 81.7962L16.8077 81.8162L16.8476 81.7163H16.5481ZM16.628 81.8162L16.7478 81.936L16.7877 81.8162H16.628ZM16.8476 81.7163L16.8676 81.6764L16.5681 81.6564L16.5281 81.6964V81.7163H16.8476ZM16.3285 81.6365L16.1488 81.6165L16.1089 81.6365H16.3285ZM16.4483 81.7163V81.7563L16.4882 81.7163H16.4483ZM16.4483 81.7563V81.7762H16.4882V81.6964L16.4483 81.7363V81.7563ZM16.4483 81.7962V81.9958L16.4683 82.0158H16.4882V81.8162H16.4483V81.7962ZM16.4483 81.9958V82.0158H16.4683L16.4483 81.9958ZM16.5281 81.9958L16.7677 81.936L16.6479 81.8162H16.5481V82.0158L16.5281 81.9958ZM16.628 81.7962L16.5281 81.7163V81.7962H16.628ZM16.4084 81.5566L16.3485 81.4967L16.4084 81.4568V81.5566ZM16.3884 81.8761V81.7962L16.2686 81.896L16.3884 81.9759V81.8761ZM16.3884 81.7762V81.7163H15.9491L16.009 81.7563L16.3884 81.7762ZM15.8892 81.7163L16.009 81.7563L15.9491 81.7163H15.8892ZM16.2087 81.8761L16.2686 81.916L16.3884 81.8162H16.0889L16.2087 81.896V81.8761Z" fill="#572922"/>
</svg>
