<svg width="118" height="59" viewBox="0 0 118 59" fill="none" xmlns="http://www.w3.org/2000/svg">
<path fill-rule="evenodd" clip-rule="evenodd" d="M12.7626 37.7805C13.4959 35.3973 14.9014 32.0853 16.2702 29.9833C17.639 27.8812 18.9711 26.9646 20.3766 26.1213C21.7821 25.278 23.2608 24.5081 24.7274 23.8725C26.2062 23.237 27.6728 22.7482 29.9582 22.4304C32.2436 22.1127 35.3356 21.9782 38.3543 22.2593C41.373 22.5404 44.3306 23.237 48.0826 23.7014C51.8467 24.1536 56.4053 24.3736 59.8518 23.8359C63.2982 23.3104 65.6081 22.0393 67.8935 20.7072C70.1789 19.3751 72.4276 17.9696 74.8108 17.1263C77.194 16.283 79.7238 16.002 82.4981 16.002C85.2723 16.002 88.291 16.283 90.6498 17.5419C93.0085 18.8007 94.6828 21.0494 95.9905 22.8459C97.286 24.6425 98.2026 25.9746 99.4981 26.8179C100.794 27.6612 102.48 28.0156 104.729 28.0156C106.978 28.0156 109.789 27.6612 111.829 27.8445C113.87 28.0156 115.129 28.7245 115.581 30.8265C116.034 32.9286 115.691 36.4484 114.604 39.8826C113.516 43.329 111.683 46.7022 109.825 48.9753C107.968 51.2607 106.061 52.4585 102.835 53.0817C99.6081 53.7173 95.0373 53.7784 85.3823 53.7539C75.7274 53.7173 60.9762 53.5828 49.9035 53.6439C38.8432 53.7173 31.4614 53.9983 26.194 53.925C20.9266 53.8517 17.7612 53.4362 15.7324 51.5663C13.6915 49.7086 12.7871 46.4088 12.3593 44.0134C11.9438 41.6303 12.0049 40.1515 12.7504 37.7561L12.7626 37.7805Z" fill="#EE741D" stroke="#2B2A29" stroke-width="3.33811" stroke-miterlimit="22.9256" stroke-linecap="round"/>
<path fill-rule="evenodd" clip-rule="evenodd" d="M90.3836 19.0321C92.0213 21.2076 94.2823 25.2895 95.7855 28.6504C97.2888 31.9991 98.0343 34.6267 97.912 37.0099C97.7898 39.3808 96.7877 41.5073 98.1076 43.9272C99.4397 46.3348 103.094 49.0357 105.526 49.8057C107.97 50.5756 109.192 49.4024 110.5 47.4347C111.808 45.4671 113.213 42.6806 114.069 39.7841C114.936 36.8876 115.254 33.869 115.205 31.9869C115.156 30.1048 114.729 29.3715 114.105 28.8704C113.482 28.3693 112.651 28.1127 110.61 27.9782C108.569 27.8438 105.294 27.8194 103.241 27.6605C101.187 27.4894 100.344 27.1716 99.0731 26.0106C97.8021 24.8495 96.1155 22.8452 93.9768 21.0976C91.838 19.3377 89.2471 17.8344 88.4771 17.2112C87.6949 16.6001 88.7215 16.869 90.3714 19.0566L90.3836 19.0321Z" fill="#FEFEFE"/>
<path fill-rule="evenodd" clip-rule="evenodd" d="M22.7292 3.27955C21.5315 3.84174 20.0282 5.16165 18.8061 6.12714C17.584 7.08041 16.6307 7.67926 15.5552 9.14583C14.4797 10.6124 13.2942 12.9345 13.0254 15.4399C12.7565 17.9453 13.4165 20.634 14.4064 22.7238C15.4086 24.8137 16.7407 26.3047 17.1073 27.4291C17.474 28.5412 16.8751 29.2745 16.1785 30.4233C15.4819 31.5721 14.6875 33.1243 13.7831 33.4176C12.8665 33.7109 11.8399 32.721 10.3855 30.5822C8.9312 28.4435 7.0491 25.1437 6.10805 21.9783C5.167 18.813 5.17922 15.7698 5.75363 13.3011C6.32803 10.8324 7.47685 8.92585 8.90675 7.44706C10.3367 5.95604 12.0599 4.89278 14.0031 4.13505C15.9463 3.37732 18.1217 2.91291 20.1138 2.80292C22.1059 2.69293 23.9269 2.91291 24.3791 2.92513C24.8435 2.93735 23.9391 2.74181 22.7414 3.304L22.7292 3.27955Z" fill="#EE741D"/>
<path fill-rule="evenodd" clip-rule="evenodd" d="M65.4371 29.0666C64.105 30.0321 64.2394 32.5497 64.5816 34.5662C64.9238 36.5828 65.4738 38.0982 66.6226 39.0882C67.7714 40.0781 69.5313 40.5425 71.0468 40.4203C72.5622 40.2981 73.821 39.5892 74.5665 38.5871C75.312 37.5849 75.532 36.3017 75.6298 35.0673C75.7398 33.8329 75.7276 32.6475 75.1654 31.6942C74.6032 30.7409 73.4788 30.0076 71.5112 29.3477C69.5557 28.6877 66.757 28.1011 65.4249 29.0788L65.4371 29.0666Z" fill="#FFD639"/>
<path fill-rule="evenodd" clip-rule="evenodd" d="M33.7609 24.1046C32.8076 24.8012 33.8586 25.8278 35.2886 26.6955C36.7062 27.5633 38.4906 28.2599 39.7494 29.262C41.0082 30.252 41.7415 31.5474 43.098 31.5597C44.4546 31.5719 46.4467 30.3131 48.0477 29.6776C49.6487 29.0298 50.8464 29.0054 51.763 28.4676C52.6796 27.9299 53.3274 26.8666 52.6674 25.9989C52.0075 25.119 50.052 24.4224 47.8277 23.8968C45.6034 23.3713 43.1103 23.0291 40.3849 23.0413C37.6595 23.0536 34.7019 23.4202 33.7487 24.1168L33.7609 24.1046Z" fill="#FFD639"/>
<path fill-rule="evenodd" clip-rule="evenodd" d="M26.7627 24.5201C28.7426 24.4712 31.5535 24.5568 33.7534 24.679C35.9532 24.8012 37.5542 24.9723 39.3386 25.2412C41.1229 25.51 43.0905 25.8889 45.6326 26.2678C48.1747 26.6466 51.2789 27.0255 53.9676 26.8544C56.6563 26.6833 58.9173 25.9745 60.8238 25.0579C62.7304 24.1412 64.258 23.0047 67.2401 21.9414C70.2221 20.8659 74.6463 19.8637 77.6772 19.0205C80.7081 18.1772 82.3458 17.505 82.9202 17.0284C83.4946 16.5517 83.0057 16.2829 81.9058 16.2095C80.8059 16.1484 79.1071 16.2829 77.335 16.5151C75.5629 16.7351 73.7297 17.0406 72.2875 17.5417C70.8454 18.0428 69.7944 18.7638 68.3278 19.5215C66.8612 20.2793 64.9669 21.0737 62.7304 21.8558C60.4816 22.638 57.8785 23.3957 54.6887 23.5913C51.4989 23.7868 47.7102 23.4324 44.5327 23.1024C41.3551 22.7602 38.8008 22.4547 36.7354 22.2103C34.6578 21.9658 33.069 21.7947 30.7836 22.2591C28.4982 22.7236 25.5161 23.8235 24.5873 24.2879C23.6585 24.7523 24.7951 24.569 26.775 24.5201H26.7627Z" fill="#FEFEFE"/>
<path d="M11.2726 37.3282C11.6759 36.0083 12.2747 34.4195 12.9591 32.9163C13.5702 31.5475 14.2668 30.2154 14.9634 29.1399C15.7334 27.9544 16.5033 27.0989 17.2855 26.4145C18.0554 25.7423 18.8132 25.2535 19.5831 24.789C20.3408 24.3369 21.0986 23.9091 21.8685 23.5058C22.614 23.1269 23.3718 22.7603 24.1295 22.4425C24.9239 22.1003 25.7305 21.7948 26.6227 21.5381C27.5393 21.2693 28.5536 21.0493 29.7513 20.8904C31.0101 20.7193 32.5134 20.5971 34.1144 20.5604C35.5321 20.536 37.0231 20.5727 38.4897 20.7071C40.1884 20.866 41.7894 21.1348 43.4882 21.4282C44.9548 21.6726 46.5069 21.9415 48.2546 22.1492C50.2589 22.3936 52.471 22.5647 54.5731 22.5892C56.3452 22.6136 58.0928 22.5281 59.6083 22.2959C61.1971 22.0514 62.517 21.6481 63.6902 21.1471C64.8635 20.646 65.9756 20.0227 67.0878 19.3627L67.9188 18.8739C69.9843 17.6517 72.0375 16.4418 74.274 15.6596C75.5695 15.2074 76.9016 14.9019 78.2826 14.7064C79.6514 14.5231 81.0446 14.4375 82.4868 14.4375C83.9289 14.4375 85.4566 14.5108 86.972 14.7553C88.5242 15.0119 90.0396 15.4519 91.384 16.1729C92.7283 16.894 93.8771 17.8839 94.8549 18.935C95.7959 19.9494 96.5781 21.0004 97.2503 21.9292L97.5191 22.2959C98.5824 23.7747 99.389 24.8868 100.342 25.4979C100.831 25.8156 101.406 26.0478 102.09 26.1945C102.823 26.3534 103.691 26.4267 104.73 26.4267C105.646 26.4267 106.575 26.3778 107.516 26.3167C109.081 26.2312 110.645 26.1456 111.965 26.2556C113.26 26.3656 114.348 26.6711 115.228 27.3189C116.169 28.0155 116.805 29.0177 117.122 30.472C117.391 31.6941 117.416 33.2951 117.232 35.055C117.049 36.7171 116.67 38.5504 116.108 40.3469C115.546 42.119 114.8 43.8667 113.945 45.4921C113.053 47.1787 112.05 48.7186 111.048 49.9529C109.997 51.2362 108.934 52.2139 107.651 52.9839C106.367 53.7416 104.925 54.2671 103.141 54.6215C101.454 54.9515 99.4257 55.1348 96.5781 55.2326C93.816 55.3304 90.2474 55.3304 85.3955 55.3181C82.6212 55.3059 79.4559 55.2937 76.0828 55.2693C67.6133 55.2204 57.8239 55.1593 49.9289 55.2082C44.747 55.2448 40.3595 55.3182 36.6198 55.3915C32.4034 55.4648 29.0181 55.5259 26.2071 55.4893C23.4818 55.4526 21.2819 55.3181 19.4731 54.9515C17.4933 54.5482 15.9534 53.8638 14.7068 52.7272C13.4846 51.6151 12.6169 50.1118 12.0058 48.5719C11.4192 47.0931 11.0648 45.5777 10.8448 44.2944C10.6126 42.9867 10.5148 41.9113 10.5882 40.8113C10.6493 39.7114 10.8815 38.6359 11.2848 37.316L11.2726 37.3282ZM15.8189 34.1995C15.1834 35.605 14.6334 37.0471 14.2668 38.2448C13.9368 39.3203 13.7535 40.1758 13.7046 41.0069C13.6557 41.8257 13.7413 42.6934 13.9246 43.7689C14.1201 44.8811 14.4257 46.201 14.9145 47.4476C15.379 48.6086 15.99 49.6963 16.7966 50.4418C17.591 51.1629 18.6543 51.6151 20.072 51.9084C21.6608 52.2383 23.6895 52.3483 26.2193 52.385C28.9814 52.4217 32.3545 52.3606 36.5465 52.2872C40.274 52.2139 44.6615 52.1406 49.8922 52.1039C57.7995 52.055 67.6011 52.1161 76.0705 52.165C79.4559 52.1895 82.6334 52.2017 85.371 52.2139C90.1741 52.2261 93.706 52.2261 96.4559 52.1284C99.1079 52.0428 100.978 51.8717 102.518 51.5662C103.96 51.2851 105.084 50.894 106.025 50.3318C106.966 49.7696 107.785 49.0119 108.592 48.0097C109.484 46.922 110.364 45.5655 111.146 44.0622C111.904 42.6201 112.576 41.0313 113.089 39.4303C113.603 37.8171 113.932 36.2038 114.091 34.7617C114.25 33.3318 114.226 32.0852 114.03 31.1808C113.884 30.5331 113.664 30.1298 113.346 29.8976C112.979 29.6287 112.417 29.4943 111.672 29.4332C110.535 29.3354 109.093 29.421 107.663 29.4943C106.624 29.5554 105.573 29.6165 104.705 29.6165C103.483 29.6165 102.395 29.5187 101.393 29.2865C100.342 29.0543 99.4257 28.6877 98.6191 28.1622C97.1647 27.2211 96.2114 25.9134 94.9648 24.178L94.696 23.8113C94.0727 22.9558 93.3516 21.9781 92.545 21.1104C91.7751 20.2793 90.8951 19.5094 89.8807 18.9716C88.8664 18.4339 87.6931 18.0917 86.4587 17.8839C85.1755 17.6762 83.8067 17.6151 82.4746 17.6151C81.1302 17.6151 79.8714 17.6762 78.6859 17.8473C77.5127 18.0062 76.3883 18.2628 75.3006 18.6539C73.3452 19.3383 71.4264 20.4749 69.4954 21.6115L68.6521 22.1003V22.1126C67.4911 22.797 66.2934 23.4691 64.8757 24.068C63.458 24.6668 61.8937 25.1557 60.0483 25.4368C58.3984 25.6934 56.4796 25.779 54.5119 25.7545C52.2265 25.7301 49.9167 25.5468 47.8635 25.3023C46.0914 25.0824 44.4782 24.8135 42.9505 24.5568C41.2639 24.2757 39.6874 24.0069 38.1841 23.8602C36.8275 23.738 35.4465 23.7013 34.1511 23.7258C32.6967 23.7624 31.3157 23.8724 30.1547 24.0313C29.0792 24.178 28.2114 24.3613 27.4537 24.5813C26.6838 24.8013 25.9994 25.0579 25.3272 25.3512C24.6428 25.6445 23.9584 25.9745 23.274 26.3167C22.5529 26.6956 21.8441 27.0867 21.1597 27.49C20.5242 27.8688 19.9009 28.2599 19.3142 28.7854C18.7398 29.2987 18.1532 29.9465 17.5544 30.8631C16.9555 31.7797 16.3444 32.9774 15.7823 34.224L15.8189 34.1995Z" fill="#572922"/>
<path fill-rule="evenodd" clip-rule="evenodd" d="M10.6461 47.5938C10.6706 48.2537 10.6339 49.3414 10.8539 50.588C11.0861 51.8346 11.5749 53.2401 12.2593 54.4622C12.9437 55.6844 13.8115 56.711 16.3535 57.1998C18.8834 57.7009 23.0875 57.652 26.5829 57.2243C30.0782 56.7843 32.8891 55.9532 34.6979 55.0488C36.5066 54.1322 37.3255 53.1423 37.9732 52.1768C38.621 51.2113 39.0976 50.2581 39.0243 49.5003C38.9509 48.7426 38.3399 48.1926 36.7389 47.6427C35.1378 47.0927 32.5469 46.5305 30.2615 46.2494C27.9761 45.9683 25.9962 45.9683 23.2097 45.9928C20.4233 46.0172 16.8179 46.0905 14.5448 46.1761C12.2838 46.2616 11.355 46.3839 10.9394 46.555C10.5239 46.7261 10.6095 46.946 10.6339 47.5938H10.6461Z" fill="#EE741D"/>
<path fill-rule="evenodd" clip-rule="evenodd" d="M58.97 47.1779C61.6221 46.5912 66.5595 46.1879 70.5559 46.0779C74.5401 45.9557 77.5832 46.1146 79.4898 46.7379C81.3963 47.3612 82.1663 48.4489 82.7529 49.5733C83.3395 50.6854 83.7428 51.8342 83.5962 52.7875C83.4495 53.7286 82.7529 54.4741 81.8607 55.1096C80.9686 55.7451 79.8809 56.2584 77.5955 56.5273C75.3223 56.7961 71.8514 56.8206 69.0771 56.7961C66.3029 56.7839 64.2252 56.7228 62.612 56.5273C60.9988 56.3317 59.8622 55.9895 58.9822 55.2807C58.1023 54.5596 57.4912 53.4597 56.9779 52.4086C56.4646 51.3576 56.0369 50.331 56.0002 49.4388C55.9635 48.5467 56.318 47.7767 58.97 47.1901V47.1779Z" fill="#EE741D"/>
<path fill-rule="evenodd" clip-rule="evenodd" d="M78.8252 46.6778C79.5951 47.5699 80.3895 49.0854 80.4506 50.2709C80.4995 51.4441 79.8029 52.2874 77.3831 52.9718C74.9632 53.6562 70.8324 54.1817 67.4348 54.5972C64.0373 55.0128 61.373 55.3305 60.2853 55.5994C59.1976 55.8683 59.6864 56.1005 62.8029 56.296C65.9316 56.4793 71.6879 56.626 76.0876 56.6749C80.4751 56.7238 83.4938 56.6871 85.547 56.4182C87.6002 56.1616 88.6879 55.6727 89.2378 54.9272C89.7878 54.1817 89.7878 53.1673 89.4823 52.1774C89.1767 51.1875 88.5412 50.2098 87.2457 49.2687C85.9503 48.3277 83.9826 47.4233 82.1005 46.7633C80.2062 46.1034 78.3852 45.6756 77.8475 45.6023C77.3097 45.529 78.043 45.7978 78.813 46.69L78.8252 46.6778Z" fill="#FEFEFE"/>
<path fill-rule="evenodd" clip-rule="evenodd" d="M13.5208 46.6172C12.6286 47.155 11.7609 48.206 11.5165 49.5015C11.2598 50.8092 11.6265 52.3735 15.5129 53.4612C19.4115 54.5489 26.8299 55.1478 29.5308 55.6122C32.2318 56.0766 30.1908 56.3943 26.9277 56.5899C23.6646 56.7977 19.1549 56.8832 14.9018 56.8343C10.6487 56.7854 6.65234 56.6021 4.48915 56.0888C2.32596 55.5755 2.0082 54.7445 1.92265 53.9867C1.8371 53.229 1.99598 52.5446 2.48484 51.6402C2.9737 50.7358 3.80475 49.5992 5.11244 48.7193C6.42014 47.8393 8.20446 47.2161 10.1477 46.8005C12.0787 46.385 14.1563 46.1895 14.7429 46.1039C15.3295 46.0306 14.4252 46.0795 13.533 46.6172H13.5208Z" fill="#FEFEFE"/>
<path d="M76.3124 23.5417C76.3124 22.674 77.009 21.9774 77.8768 21.9774C78.7445 21.9774 79.4411 22.674 79.4411 23.5417C79.4411 27.5625 79.4411 31.5834 79.4533 33.2088V33.6244C79.4778 35.9342 79.49 37.0586 78.9278 38.3785C78.6223 39.1118 78.1334 39.8329 77.5223 40.4684C76.9479 41.055 76.2635 41.5683 75.4936 41.9105C74.7114 42.2649 73.8437 42.4482 72.9271 42.4605C72.0471 42.4727 71.1305 42.3382 70.1895 42.0572C69.3095 41.8005 68.3929 41.4094 67.5374 40.945C66.6697 40.4806 65.8631 39.9184 65.2031 39.344C64.5065 38.7329 63.981 38.0852 63.541 37.3397C63.1255 36.6308 62.8077 35.8609 62.5389 34.9687C62.2578 34.0521 62.0133 32.9889 61.8545 31.9134C61.72 30.9601 61.6589 29.9824 61.72 29.078C61.8545 27.0981 62.5022 25.5582 63.0399 24.2872C63.0766 24.0061 64.1154 21.7696 64.3232 21.2807C64.6654 20.4863 65.582 20.1197 66.3764 20.4497C67.1708 20.7919 67.5374 21.7085 67.2074 22.5029C67.0608 22.8329 65.9731 25.4605 65.9364 25.4971C65.4842 26.5482 64.9465 27.807 64.8487 29.2613C64.7998 29.9579 64.8487 30.7157 64.9587 31.4734C65.0809 32.3778 65.2887 33.27 65.5331 34.0399C65.7409 34.7121 65.9609 35.2743 66.242 35.7509C66.5108 36.2031 66.8408 36.5942 67.2808 36.9853C67.7574 37.413 68.3685 37.8285 69.0284 38.183C69.6884 38.5374 70.3972 38.8429 71.0694 39.0385C71.7172 39.234 72.3282 39.3196 72.8782 39.3073C73.3548 39.2951 73.807 39.2096 74.1981 39.0262C74.6014 38.8429 74.9558 38.574 75.2614 38.2563C75.5913 37.9141 75.8602 37.5108 76.0313 37.1319C76.3369 36.4109 76.3369 35.4943 76.3124 33.6244V33.2088C76.288 30.0924 76.288 26.8048 76.288 23.5173L76.3124 23.5417Z" fill="#572922"/>
<path d="M84.2831 31.6088C83.4642 31.3155 83.0365 30.4233 83.3298 29.6167C83.6231 28.7979 84.5153 28.3701 85.3219 28.6634L85.3463 28.6756C86.4096 29.0667 87.4851 29.4578 88.3406 29.5434C88.695 29.58 89.0127 29.5678 89.2938 29.4945C89.526 29.4334 89.7582 29.3234 89.966 29.1401C90.2227 28.9323 90.4793 28.6023 90.7237 28.2357C90.9926 27.8324 91.2859 27.2946 91.5915 26.7691C92.0192 26.0114 92.9725 25.7425 93.718 26.1703C94.4757 26.598 94.7446 27.5513 94.3168 28.2968C94.0113 28.8467 93.6935 29.3967 93.3147 29.9711C92.9114 30.57 92.4714 31.1077 91.9581 31.5477C91.3959 32.0121 90.7482 32.3299 90.0516 32.5132C89.4038 32.6843 88.7194 32.7209 88.0106 32.6476C86.764 32.5254 85.5174 32.0732 84.2708 31.621H84.2586L84.2831 31.6088Z" fill="#572922"/>
<path d="M24.0422 44.3923C24.9099 44.4046 25.5943 45.1012 25.5943 45.9689C25.5821 46.8366 24.8855 47.521 24.0177 47.521C20.3269 47.4843 16.6238 47.4477 13.6295 47.6921C12.2607 47.8021 11.063 47.9732 10.012 48.181C8.86318 48.4132 7.89768 48.6821 7.11551 48.9754C6.41889 49.232 5.85671 49.5131 5.40451 49.8309C4.98899 50.1242 4.65901 50.4664 4.37792 50.8819C4.07238 51.3341 3.81573 51.8596 3.62019 52.4096C3.41242 52.9718 3.29021 53.5462 3.24132 54.0473C3.20466 54.4261 3.2291 54.7072 3.30243 54.8905C3.33909 54.9761 3.38798 55.0494 3.47353 55.0983C3.62019 55.1961 3.9135 55.2572 4.58568 55.3183C5.55117 55.4038 6.95663 55.4283 9.18093 55.4283C11.7719 55.4405 15.4627 55.4283 19.0436 55.3916C21.7934 55.3549 24.4821 55.3061 26.5842 55.2327C28.8819 55.1472 30.3973 55.025 31.5095 54.8661C32.5116 54.7194 33.1227 54.5361 33.7093 54.3161C34.3204 54.0839 34.907 53.8028 35.4203 53.4851C35.897 53.1918 36.3247 52.8618 36.7036 52.5074C37.0702 52.1529 37.3757 51.7618 37.6446 51.3463C37.9379 50.8819 38.1701 50.393 38.3535 49.9042C38.5246 49.452 38.6346 48.9876 38.7079 48.4987C38.7812 47.9854 38.8056 47.4721 38.7934 46.9222C38.7812 46.3478 38.7079 45.7122 38.5979 45.0645C38.5001 44.4779 38.3535 43.9157 38.1824 43.4268C38.0113 42.9502 37.8157 42.5469 37.5835 42.1803C37.3513 41.8258 37.058 41.4959 36.7158 41.1659C36.3614 40.8237 35.9458 40.5059 35.5059 40.2126C35.0537 39.9071 34.577 39.6382 34.076 39.406C33.0616 38.9294 31.9617 38.636 30.874 38.3305H30.8495C30.0184 38.0983 29.5296 37.2306 29.774 36.3995C30.0062 35.5685 30.874 35.0796 31.705 35.324H31.7172C32.9394 35.6662 34.1737 36.0084 35.3959 36.5706C36.0314 36.8639 36.6547 37.2184 37.2535 37.6217C37.8402 38.0128 38.3901 38.4527 38.879 38.9171C39.3801 39.3938 39.82 39.9071 40.1989 40.4815C40.5778 41.0681 40.8955 41.6914 41.1522 42.4002C41.3844 43.0602 41.5677 43.7935 41.7021 44.539C41.8366 45.2845 41.9099 46.0911 41.9343 46.8488C41.9588 47.6066 41.9221 48.3032 41.8243 48.9631C41.7266 49.6475 41.5555 50.3075 41.311 50.9797C41.0544 51.6641 40.7244 52.3607 40.3089 53.0207C39.9178 53.6317 39.4534 54.2184 38.9156 54.7561C38.3657 55.2938 37.7424 55.7705 37.0702 56.1738C36.3736 56.6015 35.6281 56.9559 34.8459 57.2615C34.076 57.5548 33.2693 57.7992 31.9861 57.9825C30.8128 58.1537 29.1996 58.2881 26.7187 58.3736C24.641 58.447 21.9034 58.5081 19.0925 58.5325C15.4994 58.5692 11.7963 58.5814 9.19315 58.5692C6.79776 58.557 5.30674 58.5325 4.35347 58.4592C3.10689 58.3492 2.43471 58.1414 1.84808 57.7748C1.18813 57.3593 0.71149 56.7726 0.418176 56.0271C0.173747 55.3794 0.0759759 54.6339 0.149304 53.8028C0.210411 53.0695 0.405954 52.214 0.71149 51.3708C0.992582 50.5764 1.37145 49.7942 1.82364 49.1342C2.32472 48.401 2.89912 47.8143 3.62019 47.301C4.30459 46.8244 5.08676 46.4211 6.05225 46.0667C7.00552 45.7122 8.12989 45.3823 9.43758 45.1256C10.5986 44.8934 11.9185 44.7101 13.4095 44.5879C16.4405 44.3434 20.2535 44.3801 24.0666 44.4168L24.0422 44.3923Z" fill="#572922"/>
<path d="M58.7662 40.4932C59.2551 39.7843 60.2206 39.5888 60.9294 40.0776C61.6383 40.5665 61.8338 41.532 61.345 42.2408L61.3205 42.2775C60.2084 43.8541 59.084 45.4306 58.4607 46.775C58.1796 47.3616 57.9963 47.8993 57.923 48.4249C57.8374 48.9382 57.8374 49.4515 57.923 50.0136C58.0085 50.5881 58.1674 51.1991 58.3629 51.7858C58.5829 52.4579 58.864 53.0934 59.1451 53.6067C59.3529 53.9856 59.5362 54.2667 59.7317 54.4378C59.915 54.5967 60.1839 54.7189 60.5872 54.8289C61.125 54.9755 61.8583 55.0733 62.8115 55.1466C63.8626 55.22 65.0969 55.2566 66.5635 55.2689C68.2134 55.2811 70.1933 55.2566 72.2342 55.2444C74.2997 55.22 76.414 55.2077 77.4772 55.2077L79.9826 55.22C82.6102 55.2322 84.8712 55.2444 86.3866 55.0978C87.2177 55.0122 87.7677 54.89 88.1221 54.7311C88.2932 54.6456 88.391 54.56 88.4398 54.4622C88.5376 54.2911 88.5865 54.0834 88.5865 53.8389C88.5865 53.509 88.5132 53.1423 88.3665 52.7146C88.1832 52.2135 87.8899 51.6513 87.4866 51.1136C87.1322 50.6369 86.7044 50.1847 86.2033 49.8059C85.6656 49.4026 85.0301 49.0604 84.309 48.7915C83.5391 48.4982 82.6836 48.266 81.767 48.0827C80.8503 47.8993 79.8849 47.7649 78.9194 47.6671C77.7705 47.5449 76.6095 47.4716 75.5096 47.4349C74.4341 47.3983 73.4319 47.386 72.5764 47.386C71.7332 47.386 70.9877 47.3983 70.4988 47.4105L69.4966 47.4349L69.46 47.4471H69.3622C68.4945 47.4471 67.7979 46.7505 67.7979 45.8828C67.7979 45.0151 68.4945 44.3185 69.3622 44.3185H69.46L70.4377 44.294C70.9266 44.2818 71.6598 44.2696 72.5764 44.2696C73.4931 44.2696 74.5441 44.2818 75.6196 44.3185C76.8051 44.3673 78.0394 44.4407 79.2371 44.5629C80.337 44.6729 81.4003 44.8318 82.3658 45.0273C83.4657 45.2473 84.4923 45.5162 85.4212 45.8828C86.4111 46.2617 87.3033 46.7261 88.0854 47.3249C88.8309 47.8871 89.4787 48.5715 90.0042 49.2681C90.5908 50.0503 91.0308 50.8936 91.3119 51.6758C91.593 52.4579 91.7274 53.1912 91.7152 53.8634C91.7152 54.6578 91.5319 55.3788 91.1897 55.9777C90.823 56.6377 90.3097 57.1754 89.4542 57.5787C88.7821 57.8965 87.9021 58.1164 86.6922 58.2264H86.68C85.0423 58.3853 82.6836 58.3731 79.9704 58.3609H77.4772C75.1429 58.3609 73.6641 58.3731 72.2587 58.3853C70.2055 58.4098 68.2256 58.422 66.5513 58.4098C64.9381 58.3975 63.6304 58.3609 62.5915 58.2875C61.4549 58.202 60.5383 58.0798 59.7928 57.872C58.9129 57.6398 58.2529 57.3098 57.6908 56.8332C57.1408 56.3688 56.7497 55.8188 56.3708 55.1222C56.0286 54.4867 55.6742 53.6678 55.3809 52.8124C55.1243 52.0546 54.9165 51.248 54.8065 50.4781C54.6843 49.6103 54.6843 48.7915 54.8187 47.9604C54.9532 47.1416 55.222 46.335 55.6253 45.4795C56.3464 43.9396 57.5563 42.2408 58.754 40.542V40.5298L58.7662 40.4932Z" fill="#572922"/>
<path fill-rule="evenodd" clip-rule="evenodd" d="M107.711 29.1149C107.198 29.7871 106.195 30.8259 106.11 32.2314C106.037 33.6368 106.88 35.3845 108.346 36.7533C109.813 38.1221 111.891 39.0998 113.247 39.222C114.592 39.3442 115.215 38.5865 115.484 37.8166C115.753 37.0344 115.679 36.2278 115.765 34.8345C115.838 33.4413 116.07 31.4736 115.875 30.2026C115.679 28.9194 115.068 28.3327 114.176 27.9172C113.284 27.5017 112.111 27.245 111.084 27.2573C110.057 27.2817 109.165 27.575 108.725 27.7217C108.285 27.8683 108.285 27.8683 108.261 28.015C108.249 28.1616 108.212 28.4427 107.699 29.1149H107.711Z" fill="#572922"/>
<path d="M14.9466 33.5152C15.5821 34.0896 15.631 35.0795 15.0566 35.7151C14.4822 36.3506 13.4922 36.3995 12.8567 35.825C10.718 33.8818 8.56701 31.9386 6.81934 29.2621C5.95162 27.9422 5.18167 26.439 4.5706 24.8991C3.93509 23.3348 3.45845 21.7215 3.18958 20.2183C2.90849 18.7028 2.83516 17.3096 2.93293 15.9897C3.0307 14.6575 3.29957 13.411 3.7151 12.201C4.11841 11.0156 4.65615 9.86675 5.29166 8.8157C5.9394 7.74022 6.69713 6.75028 7.51596 5.90701C8.3348 5.06373 9.21474 4.36711 10.1802 3.76826C11.1213 3.19385 12.1357 2.71722 13.2478 2.31391C14.3355 1.92282 15.521 1.58062 16.7187 1.33619C17.9042 1.09177 19.1019 0.920666 20.214 0.859559C21.3506 0.798452 22.4017 0.847338 23.4038 0.969552C24.406 1.10399 25.3348 1.31175 26.2147 1.59284C27.1069 1.87394 27.9746 2.22836 28.8057 2.66833C29.649 3.12052 30.4311 3.68271 31.14 4.35489C31.8244 5.01484 32.4354 5.78479 32.9487 6.55474C33.4498 7.31247 33.8776 8.05798 34.2076 8.69349C34.5864 9.40233 34.8797 10.0378 35.0142 10.5634C35.393 12.1155 34.9653 13.0443 33.2543 13.1054C32.5454 13.1299 31.6655 12.7877 30.5411 12.3477C29.9423 12.1155 29.2579 11.8466 28.4879 11.6022C27.6202 11.3211 26.6792 11.0767 25.7503 10.8933C24.7848 10.6978 23.8682 10.5756 23.0983 10.5145C22.365 10.4656 21.7539 10.4778 21.2162 10.5511C20.7151 10.6245 20.2996 10.7467 19.9085 10.93C19.5174 11.1133 19.1385 11.3455 18.7963 11.6511C18.4419 11.9444 18.1242 12.2988 17.8431 12.7021C17.5498 13.1176 17.2931 13.5943 17.1098 14.1076C16.9387 14.5964 16.8042 15.1342 16.7554 15.7086C16.6943 16.3441 16.7187 17.0407 16.8165 17.7618C16.9142 18.4462 17.0853 19.1184 17.3175 19.7417C17.562 20.3527 17.8797 20.9271 18.2219 21.4404C18.5764 21.9782 18.9797 22.4548 19.3463 22.8703C19.7374 23.3103 20.0918 23.6647 20.3729 23.9458C20.7151 24.2758 20.9473 24.4836 21.1062 24.618L21.4606 24.9358C22.1083 25.5102 22.1572 26.5001 21.5828 27.1356C21.0084 27.7833 20.0185 27.8322 19.383 27.2578L19.0285 26.9401C18.8208 26.7568 18.5152 26.4879 18.2097 26.1946C17.8431 25.8401 17.4275 25.4246 17.012 24.948C16.5598 24.4469 16.0832 23.8603 15.631 23.1881C15.1666 22.5037 14.7388 21.7337 14.3966 20.8782C14.0666 20.035 13.8344 19.1184 13.7 18.1895C13.5656 17.2607 13.5411 16.3074 13.6267 15.4275C13.7122 14.5598 13.8833 13.7654 14.1522 13.0443C14.4333 12.2499 14.8244 11.5411 15.2643 10.9056C15.7043 10.2823 16.2054 9.73231 16.7554 9.2679C17.3175 8.79126 17.9286 8.40018 18.6008 8.09464C19.273 7.7891 19.9818 7.58134 20.7762 7.45913C21.5339 7.34913 22.3528 7.32469 23.306 7.39802C24.2471 7.45913 25.2981 7.60578 26.3736 7.82577C27.4002 8.03353 28.4513 8.3024 29.4656 8.63238C29.9423 8.79126 30.4311 8.96236 30.8833 9.14568C30.7122 8.86459 30.5411 8.5835 30.3578 8.3024C29.9545 7.69133 29.4901 7.10471 28.9768 6.61585C28.4757 6.13921 27.9257 5.74813 27.3269 5.41815C26.7158 5.08817 26.0314 4.80708 25.3104 4.58709C24.5771 4.35489 23.8193 4.17156 23.025 4.07379C22.2183 3.9638 21.3628 3.92714 20.4096 3.98824C19.4563 4.03713 18.4175 4.18379 17.3786 4.40377C16.3276 4.62376 15.2888 4.91707 14.3355 5.25927C13.4189 5.58925 12.5879 5.98033 11.8301 6.44475C11.0846 6.89694 10.4124 7.43468 9.77693 8.09464C9.12919 8.76682 8.51812 9.56121 7.9926 10.4412C7.46708 11.3089 7.02711 12.2499 6.69713 13.2154C6.36715 14.1809 6.15939 15.1708 6.07384 16.2219C6.00051 17.2974 6.06161 18.434 6.2816 19.6561C6.51381 20.9394 6.94156 22.3448 7.49152 23.7381C8.02926 25.0702 8.70144 26.3779 9.45917 27.5511C11.0113 29.9221 12.9912 31.7186 14.971 33.5152H14.9466Z" fill="#572922"/>
</svg>
