<svg width="89" height="93" viewBox="0 0 89 93" fill="none" xmlns="http://www.w3.org/2000/svg">
<path fill-rule="evenodd" clip-rule="evenodd" d="M51.8937 5.52513C55.6522 7.95826 57.5908 10.965 58.5007 14.051C59.3909 17.1369 59.2524 20.3019 56.661 22.735C54.0697 25.1682 49.0452 26.8891 45.1878 29.3816C41.3304 31.8939 38.6797 35.2171 36.2861 37.5514C33.9123 39.8856 31.8155 41.2307 30.1736 43.3473C28.5318 45.464 27.3449 48.3125 26.4943 50.7456C25.6635 53.159 25.1887 55.1371 24.9711 52.7831C24.7733 50.4291 24.8326 43.7825 25.0304 39.1734C25.2283 34.5841 25.5645 32.0521 26.2767 28.4519C26.9888 24.8517 28.0966 20.1832 31.3012 17.3545C34.5256 14.5455 39.8468 13.5762 41.1524 10.8859C42.4382 8.19563 39.7083 3.76458 41.1326 2.47878C42.5568 1.21277 48.1352 3.09201 51.8937 5.54491V5.52513Z" fill="#572922"/>
<path fill-rule="evenodd" clip-rule="evenodd" d="M45.169 3.11062C45.2876 4.51511 44.6942 7.58124 43.6458 9.75721C42.5776 11.9332 41.0346 13.219 39.0763 14.841C37.1179 16.4631 34.7243 18.4215 32.7264 20.459C30.7285 22.4767 29.1064 24.5538 27.9195 27.3825C26.7524 30.2113 26.0403 33.8115 25.7435 35.9083C25.4666 38.025 25.6051 38.658 25.4666 37.8865C25.3281 37.1348 24.9325 34.9984 24.6358 33.0202C24.339 31.0619 24.1412 29.2815 24.8336 26.6506C25.5062 24.0197 27.0689 20.5579 29.4624 18.0457C31.856 15.5334 35.1002 13.9904 37.2959 12.6057C39.4917 11.221 40.6192 10.0144 40.6983 8.53075C40.7775 7.04714 39.7686 5.26681 39.6895 4.27773C39.5906 3.28866 40.4016 3.07106 41.1731 2.85346C41.9446 2.63587 42.6963 2.43805 43.4875 2.20068C44.259 1.9633 45.0898 1.66657 45.1887 3.07106L45.169 3.11062Z" fill="#572922"/>
<path d="M43.7594 43.9999C51.3195 43.9999 57.4481 37.8712 57.4481 30.3111C57.4481 22.751 51.3195 16.6223 43.7594 16.6223C36.1992 16.6223 30.0706 22.751 30.0706 30.3111C30.0706 37.8712 36.1992 43.9999 43.7594 43.9999Z" fill="#FEFEFE"/>
<path fill-rule="evenodd" clip-rule="evenodd" d="M76.6193 88.1119C76.8171 85.7183 76.8567 81.1884 76.7182 77.2321C76.5797 73.2758 76.2435 69.9129 75.2742 67.7567C74.3049 65.6005 72.6828 64.651 70.8233 64.0972C68.9639 63.5433 66.8275 63.4048 64.2757 62.752C61.7238 62.0992 58.7566 60.9321 55.9674 60.2991C53.1585 59.6661 50.5275 59.5672 46.136 59.4881C41.7445 59.4287 35.5925 59.3892 31.1614 59.3892C26.7304 59.3892 24.0203 59.4287 21.5081 59.4881C18.9958 59.5474 16.7012 59.6068 14.9406 59.5672C13.1801 59.5276 11.9734 59.3496 10.925 59.4881C9.87656 59.6068 9.00618 60.0024 8.57098 61.5849C8.13579 63.1674 8.15557 65.8973 8.29404 70.3085C8.43251 74.7 8.72924 80.7532 8.80836 84.3732C8.90727 88.013 8.78858 89.2196 14.2681 89.8131C19.7475 90.3867 30.8054 90.3472 39.6081 90.3076C48.4109 90.2878 54.9784 90.2681 60.4183 90.2681C65.8582 90.2681 70.1903 90.2681 72.5443 90.4065C74.8983 90.545 75.3137 90.8022 75.6896 90.8022C76.0654 90.8022 76.4413 90.5252 76.6391 88.1317L76.6193 88.1119Z" fill="#39AC55"/>
<path fill-rule="evenodd" clip-rule="evenodd" d="M37.8113 73.5731C37.7519 76.9953 37.831 83.5034 38.108 86.8663C38.4047 90.2489 38.919 90.4863 40.5213 90.605C42.1236 90.7434 44.8139 90.7434 46.6338 90.6643C48.4537 90.5852 49.4428 90.4071 50.1153 90.3082C50.7879 90.2093 51.1638 90.2093 51.2627 88.5279C51.3814 86.8465 51.2429 83.4638 50.4318 80.1208C49.6208 76.7975 48.1372 73.5138 46.891 71.8719C45.6447 70.23 44.6161 70.2102 43.5874 70.1311C42.5588 70.052 41.5104 69.874 40.6202 69.775C39.7301 69.6564 38.9586 69.5772 38.5036 69.7157C38.0486 69.8344 37.8904 70.1707 37.831 73.5731H37.8113Z" fill="#FEFEFE"/>
<path fill-rule="evenodd" clip-rule="evenodd" d="M24.5365 54.3821C24.3585 49.4763 24.4574 39.724 24.5167 32.8599C24.5761 25.9957 24.5761 21.9998 25.0311 19.0326C25.486 16.0852 26.396 14.1663 27.7411 12.2673C29.106 10.3683 30.9062 8.50884 32.6865 7.04501C34.4668 5.58118 36.2274 4.51298 38.0868 3.76128C39.9463 3.00959 41.9245 2.59418 44.3378 2.61396C46.7709 2.63374 49.6392 3.12828 52.3097 4.21626C54.9802 5.30424 57.4331 7.00545 59.3519 9.12207C61.2708 11.2189 62.6555 13.7312 63.5258 16.1643C64.3962 18.5974 64.7721 20.9316 64.9699 27.8156C65.1479 34.6797 65.1479 46.0937 65.1281 52.1864C65.1084 58.2791 65.049 59.0901 64.871 59.4857C64.6929 59.8814 64.3567 59.8814 58.0859 59.7825C51.7954 59.6835 39.5507 59.466 33.1613 59.3868C26.7718 59.3077 26.2377 59.367 25.7234 59.367C25.2091 59.367 24.7343 59.3077 24.5563 54.4217L24.5365 54.3821Z" stroke="#572922" stroke-width="3.32492" stroke-miterlimit="22.9256"/>
<path d="M24.7776 21.3468C20.6829 21.3072 16.5881 21.2676 12.8692 21.2676C9.15026 21.2874 5.78741 21.3468 4.0862 21.4655C2.38499 21.5841 2.30587 21.7622 2.34543 27.8747C2.38499 33.9871 2.52346 46.0736 2.58281 52.4235C2.64215 58.7931 2.64215 59.4261 6.02479 59.6437C9.38764 59.8415 16.1331 59.6042 20.0696 59.4855C24.0062 59.3668 25.1337 59.347 32.1364 59.3668C39.139 59.3866 52.0168 59.4261 61.2943 59.4657C70.552 59.5053 76.2095 59.5448 79.8691 59.5646C83.5089 59.5844 85.1507 59.5844 86.0607 59.3866C86.9706 59.1888 87.1289 58.8129 87.1487 53.4917C87.1685 48.1507 87.03 37.8643 86.9509 31.6925C86.8717 25.5207 86.8322 23.4634 86.8124 22.3358C86.7926 21.2083 86.7926 21.0105 85.2497 20.9116C83.7067 20.8325 80.6406 20.8522 77.4558 20.8918C74.2709 20.9314 70.9872 20.9511 68.831 20.9907C66.6748 21.0105 65.6462 21.0303 65.1517 21.0303C64.6373 21.0303 64.6373 21.0303 64.6373 21.0105" stroke="#572922" stroke-width="3.32492" stroke-miterlimit="22.9256"/>
<path d="M8.12402 59.7232C8.16359 69.9304 8.20315 80.1575 8.22293 85.2809C8.24271 90.4043 8.24271 90.4438 8.69769 90.4241C9.15266 90.4043 10.0626 90.3252 21.8919 90.2856C33.7411 90.246 56.5096 90.246 68.2004 90.246C79.8913 90.246 80.4847 90.246 80.8012 90.1867C81.1177 90.1273 81.1573 90.0087 81.1771 84.905C81.1969 79.8014 81.1969 69.6931 81.1969 64.629C81.1969 59.5847 81.1969 59.5847 81.1969 59.5847" stroke="#572922" stroke-width="3.32492" stroke-miterlimit="22.9256"/>
<path d="M37.4788 89.989C37.4788 82.6303 37.4788 75.2716 37.5183 71.5724C37.5579 67.8733 37.6172 67.814 39.3382 67.814C41.0592 67.814 44.4221 67.8733 46.9937 67.9129C49.5653 67.9524 51.3456 67.992 52.2951 68.0118C53.2446 68.0316 53.3435 68.0513 53.3435 71.7505C53.3633 75.4496 53.2842 82.8677 53.2446 86.5668C53.205 90.266 53.205 90.266 53.205 90.266" stroke="#572922" stroke-width="3.32492" stroke-miterlimit="22.9256"/>
<path d="M47.3255 29.3018L47.1475 27.8577L46.7123 28.2336C46.2375 28.4709 46.099 28.5105 45.4462 28.6094C44.378 28.6094 43.4879 27.8973 43.2109 26.9082L43.6857 30.8249L43.8439 32.1503L44.2989 35.8297H48.1167L47.3255 29.3018Z" fill="#BEC3C6"/>
<path d="M43.5509 35.8293L43.0959 32.15L42.9376 30.8246L42.4629 26.9079C43.2343 26.9079 42.4629 26.9079 43.2344 26.9079C43.4519 27.7387 43.9465 28.1343 44.8762 28.5299C46.0433 28.5299 46.6961 28.0354 46.8544 26.9276C46.8741 26.8089 46.8741 26.6903 46.8741 26.5716C46.8741 26.3144 46.8346 26.0573 46.7555 25.8199C46.7357 25.7803 46.7357 25.7407 46.7159 25.721C46.0433 25.6418 45.4894 25.1077 45.4301 24.4352C45.4301 24.3758 45.4301 24.3165 45.4301 24.2769C45.4301 24.1582 45.5092 23.7824 45.529 23.6835H41.9288L40.1484 22.4966L39.2187 30.3894L38.6846 34.8798L38.5659 35.8689H43.5509V35.8293Z" fill="#FFD639"/>
<path d="M48.397 24.3162C48.397 24.5536 48.3574 24.7712 48.2981 25.0086C48.2387 25.2262 48.1398 25.4438 48.0212 25.6416C47.942 25.7603 47.8233 25.8196 47.6849 25.7998H47.6255C47.6057 25.7998 47.586 25.7998 47.5464 25.7998H47.5266C47.1112 25.7405 46.7354 25.5625 46.4584 25.2855C46.1815 25.0086 45.9837 24.6327 45.9441 24.1975C45.9441 24.158 45.9441 24.1382 45.9441 24.0986C45.9441 24.0591 45.9441 24.0195 45.9441 23.9997C45.9441 23.9404 45.9441 23.8612 45.9639 23.8019C45.9639 23.7426 45.9837 23.6634 46.0034 23.6041C46.043 23.4458 46.1815 23.3271 46.3397 23.3271H47.942C48.1003 23.3271 48.2387 23.4458 48.2783 23.5843C48.3179 23.703 48.3377 23.8217 48.3574 23.9404C48.3772 24.0788 48.397 24.1975 48.397 24.336V24.3162ZM47.6255 24.8108C47.6651 24.6525 47.6849 24.4943 47.6849 24.3162C47.6849 24.2173 47.6849 24.1184 47.6651 24.0393V23.9997H46.6562V24.0393C46.6562 24.0591 46.6562 24.0788 46.6562 24.0986C46.676 24.3558 46.7947 24.5932 46.9727 24.7514C47.1112 24.8899 47.309 25.0086 47.5068 25.0481C47.5464 24.969 47.586 24.8899 47.6057 24.791L47.6255 24.8108Z" fill="#572922"/>
<path d="M44.6171 35.433C44.6369 35.6308 44.4984 35.8089 44.3006 35.8286C44.1028 35.8484 43.9248 35.71 43.905 35.5121L43.3313 30.8635L42.8566 26.9468C42.8368 26.7489 42.9753 26.5709 43.1731 26.5511C43.3511 26.5313 43.5292 26.65 43.5687 26.8281C43.6874 27.2435 43.9446 27.5995 44.2611 27.8369C44.5974 28.0941 44.993 28.2326 45.448 28.2326C45.9425 28.2326 46.3777 28.0545 46.7338 27.7578C47.07 27.4611 47.3272 27.0457 47.3865 26.5709V26.5511C47.3865 26.5116 47.4063 26.4522 47.4063 26.4127C47.4063 26.3731 47.4063 26.3137 47.4063 26.2544C47.4063 26.1357 47.4063 26.0368 47.3865 25.9379C47.3668 25.8588 47.347 25.7796 47.3272 25.7203C46.9909 25.6412 46.6942 25.4631 46.4766 25.2455C46.1996 24.9686 46.0018 24.5928 45.9623 24.1576C45.9623 24.118 45.9623 24.0982 45.9623 24.0587C45.9623 24.0389 45.9623 24.0191 45.9623 23.9993H41.9071C41.8279 23.9993 41.7488 23.9795 41.6895 23.9202L40.4037 23.0696L39.5531 30.3887L39.019 34.8791L38.9398 35.5319C38.9201 35.7297 38.742 35.8682 38.5442 35.8484C38.3464 35.8286 38.2079 35.6506 38.2277 35.4528L38.3068 34.8L38.8409 30.3096L39.7707 22.4168C39.7707 22.3575 39.7904 22.3179 39.83 22.2585C39.9289 22.1003 40.1465 22.0607 40.3245 22.1596L42.006 23.2872H46.3381C46.3579 23.2872 46.3975 23.2872 46.4172 23.2872C46.6151 23.3267 46.7338 23.5246 46.6744 23.7026C46.6744 23.7422 46.6546 23.7817 46.6546 23.8213C46.6546 23.8608 46.6546 23.9004 46.6546 23.94C46.6546 23.9598 46.6546 23.9795 46.6546 23.9993C46.6546 24.0191 46.6546 24.0389 46.6546 24.0587C46.6744 24.3158 46.7931 24.5532 46.9711 24.7114C47.1492 24.8895 47.3668 25.0082 47.6239 25.028C47.7426 25.0477 47.8613 25.1269 47.9206 25.2455C47.9206 25.2653 47.9404 25.2851 47.9404 25.3049C47.9602 25.3247 47.9602 25.3642 47.9602 25.384C47.9998 25.5225 48.0393 25.661 48.0591 25.7994C48.0789 25.9379 48.0987 26.0962 48.0987 26.2346C48.0987 26.294 48.0987 26.3731 48.0987 26.4324C48.0987 26.4918 48.0789 26.5709 48.0789 26.6303C47.98 27.283 47.6437 27.8369 47.1689 28.2523C46.6942 28.648 46.1007 28.9051 45.4282 28.9051C44.8149 28.9051 44.2611 28.7073 43.8061 28.3512C43.7665 28.3315 43.7467 28.3117 43.727 28.2721L44.0237 30.725L44.5973 35.3737L44.6171 35.433Z" fill="#572922"/>
<path d="M50.3795 31.2797C51.3093 30.805 52.5357 31.1215 53.0698 32.0116C53.5644 32.7831 53.3468 33.9304 52.8324 34.6228C52.2983 35.2756 51.5664 35.513 50.8741 35.691C50.3598 35.8097 49.8257 35.869 49.3113 35.8492C49.1333 35.8492 48.9948 35.8492 48.797 35.8492C48.6585 35.8295 48.4805 35.5723 48.5003 35.4141C48.5201 35.2756 48.6783 35.0382 48.8168 35.058C48.9553 35.058 49.1333 35.058 49.2916 35.0382C50.3202 34.9591 51.9225 34.7415 52.1599 33.5942C52.239 33.337 52.239 32.9414 52.0412 32.7436C51.8236 32.5062 51.4082 32.4666 51.1708 32.6644C50.8345 32.9612 50.3202 32.9216 50.0235 32.5655C49.6476 32.1303 49.8454 31.4775 50.3795 31.2599V31.2797Z" fill="#572922"/>
<path d="M46.1205 31.0798C46.1205 31.0205 46.1799 30.9612 46.2392 30.9612C46.2985 30.9612 46.3578 31.0205 46.3578 31.0798C46.3578 31.1984 46.2985 31.317 46.2194 31.4158C46.1403 31.4949 46.0217 31.5542 45.8833 31.5542C45.7647 31.5542 45.6461 31.4949 45.5473 31.4158C45.4682 31.3368 45.4089 31.2182 45.4089 31.0798C45.4089 31.0205 45.4682 30.9612 45.5275 30.9612C45.5868 30.9612 45.6461 31.0205 45.6461 31.0798C45.6461 31.1391 45.6659 31.1984 45.7054 31.2379C45.745 31.2775 45.8043 31.2972 45.8636 31.2972C45.9229 31.2972 45.9822 31.2775 46.0217 31.2379C46.0612 31.1984 46.081 31.1391 46.081 31.0798H46.1205Z" fill="#572922"/>
<path d="M49.1681 35.4329C49.1879 35.6307 49.0494 35.8087 48.8516 35.8285C48.6538 35.8483 48.4757 35.7098 48.456 35.512L47.7043 29.2808C47.6845 29.083 47.823 28.905 48.0208 28.8852C48.2186 28.8654 48.3966 29.0039 48.4164 29.2017L49.1681 35.4329Z" fill="#572922"/>
<path d="M48.5958 30.6868C48.6155 30.8846 48.4771 31.0627 48.2793 31.0825C48.0814 31.1022 47.9034 30.9638 47.8836 30.766L47.3891 26.6712C47.3693 26.4734 47.5078 26.2953 47.7056 26.2756C47.9034 26.2558 48.0814 26.3942 48.1012 26.5921L48.5958 30.6868Z" fill="#572922"/>
<path d="M49.5438 32.6238C49.6625 32.7029 49.7021 32.8612 49.623 32.9799C49.5438 33.0986 49.3856 33.1381 49.2669 33.059L47.3085 31.8326C47.1898 31.7534 47.1503 31.5952 47.2294 31.4765C47.3085 31.3578 47.4668 31.3182 47.5855 31.3974L49.5438 32.6238Z" fill="#572922"/>
<path d="M42.9748 33.0602C42.8561 33.1393 42.6979 33.1195 42.599 32.9811C42.5199 32.8624 42.5396 32.7041 42.6583 32.6052L44.4189 31.4183C44.5376 31.3392 44.6958 31.359 44.7947 31.4777C44.8739 31.5964 44.8541 31.7546 44.7156 31.8535L42.9551 33.0404L42.9748 33.0602Z" fill="#572922"/>
<path d="M47.1842 31.1012C47.0457 31.1012 46.927 30.9825 46.927 30.8441C46.927 30.7056 47.0457 30.5869 47.1842 30.5869H49.4393C49.5777 30.5869 49.6964 30.7056 49.6964 30.8441C49.6964 30.9825 49.5777 31.1012 49.4393 31.1012H47.1842Z" fill="#572922"/>
<path d="M42.4561 31.1012C42.3177 31.1012 42.199 30.9825 42.199 30.8441C42.199 30.7056 42.3177 30.5869 42.4561 30.5869H44.6914C44.8299 30.5869 44.9486 30.7056 44.9486 30.8441C44.9486 30.9825 44.8299 31.1012 44.6914 31.1012H42.4561Z" fill="#572922"/>
<path d="M43.2099 25.3843C43.1308 25.2855 43.1308 25.1471 43.2296 25.068C43.3285 24.989 43.4668 24.989 43.5459 25.0878C43.6052 25.1669 43.6645 25.2459 43.704 25.325C43.7436 25.4041 43.7633 25.5029 43.7633 25.6017C43.7633 25.7203 43.6645 25.8192 43.5459 25.8192C43.4273 25.8192 43.3285 25.7203 43.3285 25.6017C43.3285 25.5622 43.3285 25.5227 43.3087 25.4831C43.2889 25.4436 43.2692 25.4041 43.2494 25.3843H43.2099Z" fill="#572922"/>
<path d="M42.9765 25.2654C42.8579 25.2654 42.759 25.1666 42.759 25.048C42.759 24.9294 42.8579 24.8306 42.9765 24.8306C43.0951 24.8306 43.1939 24.8503 43.2927 24.8899C43.3916 24.9294 43.4904 25.0085 43.5497 25.0875C43.6288 25.1864 43.6288 25.3247 43.5299 25.4038C43.4311 25.4829 43.2927 25.4829 43.2137 25.384C43.1741 25.3445 43.1544 25.3247 43.0951 25.305C43.0555 25.2852 43.016 25.2852 42.9567 25.2852L42.9765 25.2654Z" fill="#572922"/>
<path d="M42.6338 25.6015C42.6338 25.7201 42.535 25.8189 42.4164 25.8189C42.2978 25.8189 42.199 25.7201 42.199 25.6015C42.199 25.384 42.278 25.1864 42.4362 25.048C42.5746 24.9096 42.7722 24.8108 42.9897 24.8108C43.1083 24.8108 43.2071 24.9096 43.2071 25.0282C43.2071 25.1468 43.1083 25.2457 42.9897 25.2457C42.8908 25.2457 42.8118 25.2852 42.7525 25.3445C42.6932 25.4038 42.6536 25.4829 42.6536 25.5817L42.6338 25.6015Z" fill="#572922"/>
<path d="M45.3493 29.8347C45.3493 29.7754 45.4086 29.7161 45.4679 29.7161C45.5272 29.7161 45.5865 29.7754 45.5865 29.8347C45.5865 29.973 45.5272 30.0916 45.4481 30.1707C45.3691 30.2498 45.2307 30.3091 45.1121 30.3091C44.9737 30.3091 44.8551 30.2498 44.7761 30.1707C44.697 30.0916 44.6377 29.9533 44.6377 29.8347C44.6377 29.7754 44.697 29.7161 44.7563 29.7161C44.8156 29.7161 44.8749 29.7754 44.8749 29.8347C44.8749 29.894 44.8947 29.9533 44.954 30.0126C44.9935 30.0521 45.0528 30.0916 45.1319 30.0916C45.1912 30.0916 45.2505 30.0719 45.3098 30.0126C45.3493 29.973 45.3888 29.9137 45.3888 29.8347H45.3493Z" fill="#572922"/>
<path d="M46.7138 29.8347C46.7138 29.7754 46.7731 29.7161 46.8324 29.7161C46.8917 29.7161 46.951 29.7754 46.951 29.8347C46.951 29.973 46.8917 30.0916 46.8126 30.1707C46.7336 30.2498 46.5952 30.3091 46.4766 30.3091C46.3382 30.3091 46.2196 30.2498 46.1406 30.1707C46.0615 30.0916 46.0022 29.9533 46.0022 29.8347C46.0022 29.7754 46.0615 29.7161 46.1208 29.7161C46.1801 29.7161 46.2394 29.7754 46.2394 29.8347C46.2394 29.894 46.2592 29.9533 46.3185 30.0126C46.358 30.0521 46.4173 30.0916 46.4964 30.0916C46.5557 30.0916 46.615 30.0719 46.6743 30.0126C46.7138 29.973 46.7533 29.9137 46.7533 29.8347H46.7138Z" fill="#572922"/>
<path d="M38.5642 35.8474C36.0124 35.7485 34.9639 34.7199 34.7463 32.8011C34.7463 32.7022 34.7859 32.5637 34.9639 32.5637C35.4585 32.4648 35.2013 35.1353 38.6829 34.8584C38.5642 35.8474 38.6829 34.8584 38.5642 35.8474Z" fill="#572922"/>
<path d="M38.4251 35.8302C38.2867 35.8302 38.168 35.7115 38.168 35.5731C38.168 35.4346 38.2867 35.3159 38.4251 35.3159H49.3049C49.4434 35.3159 49.5621 35.4346 49.5621 35.5731C49.5621 35.7115 49.4434 35.8302 49.3049 35.8302H38.4251Z" fill="#572922"/>
<path d="M44.0775 18.2832C47.4403 18.2832 50.4669 19.6481 52.6824 21.8439C54.8782 24.0396 56.2431 27.086 56.2431 30.4488C56.2431 33.8117 54.8782 36.8382 52.6824 39.0538C50.4867 41.2495 47.4403 42.6144 44.0775 42.6144C40.7146 42.6144 37.6881 41.2495 35.4725 39.0538C33.2768 36.858 31.9119 33.8117 31.9119 30.4488C31.9119 27.086 33.2768 24.0594 35.4725 21.8439C37.6683 19.6481 40.7146 18.2832 44.0775 18.2832ZM52.1483 22.3582C50.0713 20.2811 47.2227 19.0151 44.0775 19.0151C40.9322 19.0151 38.0639 20.3009 36.0066 22.3582C33.9296 24.4352 32.6636 27.2838 32.6636 30.429C32.6636 33.5743 33.9494 36.4426 36.0066 38.4999C38.0837 40.5769 40.9322 41.843 44.0775 41.843C47.2227 41.843 50.0911 40.5572 52.1483 38.4999C54.2254 36.4228 55.4914 33.5743 55.4914 30.429C55.4914 27.2838 54.2056 24.4155 52.1483 22.3582Z" fill="#572922"/>
<path d="M44.0823 17.6301C45.8231 17.6301 47.465 17.9862 48.9881 18.5994C50.5509 19.2522 51.9751 20.2017 53.1422 21.3886C54.3291 22.5755 55.2786 23.98 55.9314 25.5625C56.5644 27.0659 56.9007 28.7275 56.9007 30.4683C56.9007 32.2091 56.5447 33.8509 55.9314 35.3741C55.2786 36.9369 54.3291 38.3611 53.1422 39.5282C51.9554 40.7151 50.5509 41.6646 48.9684 42.3174C47.465 42.9504 45.8033 43.2867 44.0625 43.2867C42.3218 43.2867 40.6799 42.9306 39.1567 42.3174C37.594 41.6646 36.1697 40.7151 35.0026 39.5282C33.8157 38.3413 32.8662 36.9369 32.2134 35.3543C31.5804 33.8509 31.2441 32.1893 31.2441 30.4485C31.2441 28.7078 31.6002 27.0659 32.2134 25.5427C32.8662 23.98 33.8157 22.5557 35.0026 21.3886C36.1895 20.2017 37.594 19.2522 39.1765 18.5994C40.6799 17.9664 42.3416 17.6301 44.0823 17.6301ZM51.6982 22.8524C50.7091 21.8634 49.5222 21.0523 48.1969 20.5182C46.9309 19.9841 45.5462 19.7072 44.0823 19.7072C42.6185 19.7072 41.2338 20.0039 39.9678 20.5182C38.6622 21.0523 37.4753 21.8634 36.4665 22.8524C35.4774 23.8415 34.6663 25.0284 34.1322 26.3538C33.6179 27.6198 33.3212 29.0045 33.3212 30.4683C33.3212 31.9321 33.6179 33.3168 34.1322 34.5829C34.6663 35.8884 35.4774 37.0753 36.4665 38.0842C37.4555 39.0733 38.6424 39.8843 39.9678 40.4184C41.2338 40.9327 42.6185 41.2294 44.0823 41.2294C45.5462 41.2294 46.9309 40.9327 48.1969 40.4184C49.5025 39.8843 50.6893 39.0733 51.6982 38.0842C52.6873 37.0951 53.4983 35.9082 54.0324 34.5829C54.5665 33.3168 54.8435 31.9321 54.8435 30.4683C54.8435 29.0045 54.5467 27.6198 54.0324 26.3538C53.4983 25.0482 52.6873 23.8613 51.6982 22.8524Z" fill="#572922"/>
<path d="M42.1065 81.6828C43.0023 81.6828 43.7285 81.1957 43.7285 80.5948C43.7285 79.9939 43.0023 79.5068 42.1065 79.5068C41.2106 79.5068 40.4844 79.9939 40.4844 80.5948C40.4844 81.1957 41.2106 81.6828 42.1065 81.6828Z" fill="#572922"/>
<path fill-rule="evenodd" clip-rule="evenodd" d="M8.27939 22.3585C7.34966 23.4465 6.75621 25.6422 6.12321 28.016C5.4902 30.3898 4.81763 32.9614 4.81763 36.3044C4.81763 39.6475 5.4902 43.7621 5.82648 46.7095C6.16277 49.657 6.16277 51.4571 5.96495 53.3759C5.76714 55.3145 5.37151 57.3717 5.17369 58.4202C4.97588 59.4488 4.97588 59.4488 6.40015 59.4686C7.82441 59.4884 10.6729 59.5279 12.2159 59.3499C13.7589 59.1916 13.9765 58.8158 13.8578 55.7892C13.7391 52.7429 13.3039 47.0458 12.928 42.1796C12.5522 37.3133 12.2555 33.2977 12.3742 29.9546C12.4928 26.6115 13.0072 23.941 12.9676 22.5959C12.928 21.2507 12.3346 21.2507 11.4049 21.2507C10.4751 21.2507 9.20912 21.2507 8.27939 22.3387V22.3585Z" fill="#572922"/>
<path fill-rule="evenodd" clip-rule="evenodd" d="M80.8529 22.3585C81.7826 23.4465 82.376 25.6422 83.009 28.016C83.642 30.3898 84.3146 32.9614 84.3146 36.3044C84.3146 39.6475 83.642 43.7621 83.3058 46.7095C82.9695 49.657 82.9695 51.4571 83.1673 53.3759C83.3651 55.3145 83.7607 57.3717 83.9585 58.4202C84.1564 59.4488 84.1564 59.4488 82.7321 59.4686C81.3078 59.4884 78.4593 59.5279 76.9163 59.3499C75.3734 59.1916 75.1558 58.8158 75.2745 55.7892C75.3932 52.7429 75.8284 47.0458 76.2042 42.1796C76.58 37.3133 76.8768 33.2977 76.7581 29.9546C76.6394 26.6115 76.1251 23.941 76.1646 22.5959C76.2042 21.2507 76.7976 21.2507 77.7274 21.2507C78.6571 21.2507 79.9231 21.2507 80.8529 22.3387V22.3585Z" fill="#572922"/>
</svg>
