<svg width="76" height="76" viewBox="0 0 76 76" fill="none" xmlns="http://www.w3.org/2000/svg">
<path fill-rule="evenodd" clip-rule="evenodd" d="M54.9829 53.5057C57.7662 53.9626 62.0243 54.8558 64.8699 55.9774C67.7155 57.0991 69.1695 58.4492 70.1873 61.4402C71.205 64.4104 71.8074 69.0008 71.8489 71.3479C71.8905 73.695 71.3712 73.7989 68.1517 73.965C64.9322 74.1312 59.0125 74.3389 50.4964 74.4635C41.9803 74.5882 30.8887 74.6297 23.2865 74.5051C15.6844 74.3805 11.5509 74.1312 8.72609 73.8612C5.88048 73.6119 4.32266 73.3627 3.40874 72.8434C2.49482 72.3241 2.22479 71.5141 2.05863 69.5824C1.89246 67.6507 1.80937 64.6181 1.7886 62.1464C1.76783 59.6746 1.83015 57.743 1.95477 56.2267C2.0794 54.7104 2.26634 53.568 4.15649 52.9656C6.04664 52.3633 9.61924 52.3217 17.4914 52.4048C25.3428 52.4879 37.4938 52.7372 44.2028 52.8618C50.9118 52.9864 52.2204 53.0072 55.0037 53.4641L54.9829 53.5057Z" fill="#EE741D"/>
<path fill-rule="evenodd" clip-rule="evenodd" d="M54.3869 38.7158C54.2415 39.5674 54.1169 41.0214 54.4076 41.9976C54.6777 42.9738 55.3631 43.4308 55.9862 43.6385C56.6094 43.8254 57.1909 43.7216 57.5441 43.6177C57.8972 43.4931 57.9802 43.3477 58.001 42.6207C58.001 41.8937 57.9179 40.6059 57.731 39.7128C57.5441 38.8196 57.2533 38.3211 56.7548 38.0096C56.2563 37.698 55.55 37.5734 55.1346 37.6149C54.6984 37.6565 54.553 37.885 54.4076 38.7366L54.3869 38.7158Z" fill="#FFD639"/>
<path fill-rule="evenodd" clip-rule="evenodd" d="M54.6066 30.5107C54.4612 29.6591 54.3366 28.2051 54.6274 27.2289C54.8974 26.2526 55.5828 25.7957 56.206 25.588C56.8291 25.401 57.4107 25.5049 57.7638 25.6087C58.1169 25.7334 58.2 25.8788 58.2207 26.6058C58.2207 27.3327 58.1377 28.6205 57.9507 29.5137C57.7638 30.4068 57.473 30.9053 56.9745 31.2169C56.476 31.5285 55.7698 31.6531 55.3544 31.6115C54.9182 31.57 54.7728 31.3415 54.6274 30.4899L54.6066 30.5107Z" fill="#FFD639"/>
<path fill-rule="evenodd" clip-rule="evenodd" d="M38.72 2.22289C42.2303 2.26444 44.619 2.32675 46.3637 3.26144C48.1085 4.19613 49.2094 6.02397 49.9571 10.5936C50.7049 15.1632 51.0995 22.4745 51.328 28.3112C51.5565 34.1478 51.6188 38.5097 51.6603 41.1684C51.7019 43.8271 51.7019 44.8033 51.598 45.5303C51.4942 46.2365 51.3072 46.6934 50.7256 47.005C50.144 47.3166 49.2094 47.5243 45.4914 47.732C41.7941 47.9397 35.3136 48.1474 29.02 48.2928C22.7057 48.4382 16.5782 48.5213 12.7356 48.3551C8.91376 48.1682 7.39748 47.732 6.21354 47.275C5.00883 46.8181 4.13645 46.3403 3.36792 45.738C2.5994 45.1564 1.97627 44.4502 1.76856 42.02C1.56085 39.5898 1.8101 35.4356 1.9555 30.4298C2.1009 25.4448 2.14244 19.6082 2.24629 15.2463C2.37092 10.8636 2.55786 7.95567 2.86942 6.08629C3.18099 4.2169 3.61718 3.3653 4.19876 2.7214C4.78035 2.0775 5.54887 1.59977 9.18378 1.53745C12.8395 1.47514 19.3615 1.80748 24.9489 1.99441C30.5363 2.18135 35.189 2.20212 38.6993 2.24367L38.72 2.22289Z" fill="#EE741D"/>
<path d="M3.61614 8.26619C3.30458 12.7735 3.2838 20.5003 3.2838 26.7315C3.2838 28.3724 3.2838 29.9303 3.26303 31.2804C3.24226 34.4168 3.20072 36.5146 3.15918 38.0725C3.11764 39.7549 3.09687 40.7935 3.13841 41.8112C3.17995 42.6628 3.24226 43.4937 3.53306 44.1583C3.78231 44.7399 4.23927 45.2592 5.0701 45.6539C6.06711 46.1316 7.54184 46.4431 9.72279 46.6509C12.0076 46.8793 14.9986 46.9832 18.9035 47.0455C23.0993 47.1078 28.3335 47.1078 33.2562 47.0455C37.5766 47.004 41.6685 46.8793 44.6595 46.7339C47.7128 46.5678 49.4576 46.3393 50.4961 45.9654C51.2231 45.7162 51.5139 45.3423 51.7424 44.823C52.0539 44.096 52.3032 43.1198 52.4901 41.6451C52.6771 40.108 52.7601 38.0725 52.7601 35.3099C52.7601 31.7373 52.6147 27.2716 52.4694 23.0135C52.3863 20.3341 52.3032 17.7377 52.2616 15.4737C52.2201 13.9367 52.2201 12.5658 52.1993 11.3611C52.1786 8.26619 52.1578 6.35527 51.8255 5.1921C51.6801 4.69359 51.4516 4.36126 50.8908 4.15355C49.9976 3.82122 48.4813 3.63428 45.9265 3.53042C42.3331 3.38503 36.9119 3.36426 31.4492 3.34348C28.7074 3.34348 25.9449 3.32271 23.4108 3.30194C20.3783 3.28117 17.6988 3.21886 15.3309 3.17732C11.696 3.09423 8.82964 3.05269 6.87717 3.115C5.61015 3.15655 4.82085 3.23963 4.46775 3.69659C3.96924 4.31972 3.74076 5.64906 3.55383 8.22465L3.61614 8.26619ZM0.791293 26.7315C0.812064 20.4172 0.812064 12.6073 1.12363 8.10003C1.33134 4.98439 1.72598 3.2604 2.57759 2.18031C3.5746 0.934058 4.84162 0.726348 6.8564 0.664036C8.87118 0.601723 11.7583 0.643265 15.4556 0.726348C17.8235 0.76789 20.5444 0.830203 23.4939 0.850974C26.028 0.871745 28.7905 0.892516 31.5115 0.892516C37.0366 0.913287 42.5201 0.934058 46.1134 1.07945C48.9383 1.20408 50.6831 1.41179 51.8462 1.84798C53.3417 2.40879 53.9441 3.2604 54.318 4.5482C54.7334 6.00216 54.7542 8.03771 54.7749 11.3611C54.7749 12.545 54.7957 13.8743 54.8372 15.4529C54.8788 17.6339 54.9619 20.251 55.0449 22.9512C55.1903 27.3547 55.3357 31.9866 55.3357 35.3307C55.3357 38.1763 55.2319 40.3157 55.0449 41.9566C54.8372 43.6806 54.5257 44.8853 54.1103 45.8408C53.6118 46.9832 52.9679 47.7725 51.3893 48.3333C50.1222 48.7903 48.149 49.0395 44.8464 49.2264C41.8762 49.3926 37.7428 49.4965 33.3393 49.538C28.3751 49.6003 23.12 49.6003 18.9243 49.538C14.9363 49.4757 11.8622 49.3718 9.51508 49.1434C7.04334 48.8941 5.29858 48.5202 4.03156 47.8971C2.59836 47.2117 1.76753 46.2562 1.2898 45.1346C0.832835 44.096 0.728981 42.9952 0.687439 41.8735C0.645897 40.8142 0.666668 39.7134 0.70821 37.9894C0.749752 36.4316 0.791293 34.3129 0.812064 31.2388C0.812064 29.8887 0.832835 28.3517 0.832835 26.7108L0.791293 26.7315Z" fill="#572922"/>
<path d="M3.07716 56.4751C2.86945 59.2584 3.01485 64.5342 3.1187 68.0445L3.13947 68.9584C3.22256 71.5963 3.24333 72.3648 4.92577 72.7387C6.1928 73.0087 8.14527 73.1749 11.2194 73.2995C14.3973 73.4034 18.7384 73.4449 24.7412 73.4657C31.5333 73.4865 40.444 73.4657 48.607 73.4034C54.9006 73.3411 60.7788 73.258 64.8707 73.0918C73.0336 72.801 73.0544 72.3856 73.0752 70.2254V70.2047V69.4361C73.1167 66.1751 73.1582 61.0239 73.1375 57.9706C73.1167 56.7867 73.0959 56.0597 72.3482 55.6858C71.0812 55.0834 68.3809 54.7719 62.939 54.5642C57.31 54.3357 48.9394 54.2318 40.5064 54.1903C32.0526 54.1488 23.5157 54.1488 17.6376 54.1695C11.7594 54.1903 8.51914 54.2111 6.62899 54.2526C4.80115 54.2941 4.28188 54.3357 3.82492 54.3772L3.49258 54.4188C3.30564 54.668 3.18102 55.2496 3.07716 56.5166V56.4751ZM0.626193 68.1068C0.522339 64.5342 0.356172 59.1545 0.584652 56.2882C0.730048 54.5019 1.04161 53.5049 1.49857 52.8817C2.1217 52.0301 2.80714 51.9263 3.57566 51.8432C4.07417 51.7809 4.63498 51.7393 6.60822 51.7186C8.49837 51.677 11.7594 51.6562 17.6583 51.6355C23.5573 51.6147 32.0734 51.6147 40.5479 51.6562C49.0432 51.6978 57.4554 51.8224 63.0636 52.0301C68.8587 52.2586 71.8497 52.6117 73.449 53.401C75.5884 54.4188 75.63 55.7689 75.6715 57.9083C75.7131 60.9824 75.6508 66.1543 75.6092 69.4154V70.1631V70.1839C75.5677 74.3589 75.5469 75.1689 64.9953 75.5428C60.9034 75.6882 55.0252 75.7921 48.6693 75.8544C40.5064 75.9374 31.5749 75.9375 24.7828 75.9167C18.7384 75.8959 14.3765 75.8544 11.1986 75.7505C7.93756 75.6467 5.86047 75.4597 4.46881 75.1482C0.854674 74.3796 0.833903 73.1541 0.709277 69L0.688506 68.086L0.626193 68.1068Z" fill="#572922"/>
<path fill-rule="evenodd" clip-rule="evenodd" d="M8.2935 14.2478C8.21041 19.2744 8.37658 29.1821 8.48044 34.5826C8.56352 39.983 8.56352 40.8762 9.87209 41.4993C11.1599 42.1224 13.7563 42.4755 19.676 42.5794C25.5957 42.6832 34.8595 42.5378 40.0315 42.4547C45.2034 42.3717 46.3043 42.3717 46.9482 41.8108C47.5713 41.25 47.7167 40.1076 47.6959 34.6241C47.6752 29.1406 47.4675 19.2744 47.0936 14.2063C46.7197 9.13819 46.1797 8.82663 40.2807 8.68123C34.3818 8.53583 23.1239 8.53583 17.0381 8.59815C10.9522 8.68123 10.0175 8.82663 9.39436 8.95125C8.75046 9.07588 8.39735 9.2005 8.31427 14.2271L8.2935 14.2478Z" fill="#FEFEFE" stroke="#2B2A29" stroke-width="2.67108" stroke-miterlimit="22.9256" stroke-linecap="round"/>
<path d="M13.5481 20.6458C13.195 21.2274 12.4472 21.4143 11.8656 21.0612C11.2633 20.7081 11.0556 19.9396 11.4087 19.358C11.5541 19.1087 11.6995 18.8595 11.9279 18.631C12.281 18.2571 12.738 18.0079 13.3404 18.0286C13.6519 18.0494 13.8804 18.1117 14.1089 18.1948C14.192 18.2156 14.0258 18.4025 14.1712 18.3194C14.1712 18.3194 14.3374 18.1117 14.462 17.9455C14.7528 17.5717 15.0228 17.1978 15.459 16.9693C16.726 16.3046 17.3907 17.0732 18.2423 18.0909L18.2838 18.1533C18.5331 18.444 18.8031 18.7556 19.0524 19.0049C19.2393 19.1918 19.3847 19.3164 19.447 19.358C19.7378 19.4826 19.2601 19.1503 19.4055 18.9841L19.4262 18.9633C19.6963 18.6725 20.0078 18.3402 20.3402 18.0286C20.6933 17.6755 21.0671 17.364 21.3579 17.1562C22.3757 16.4916 22.8534 16.6993 23.6012 17.0109L23.6427 17.0316C23.7881 17.0939 23.9751 17.177 24.1828 17.2393L24.3074 17.2809L24.432 17.1355L24.5359 17.0316C24.9513 16.5747 25.4498 15.9931 25.9898 15.7231C26.9869 15.2453 27.3607 15.5361 28.3162 16.3046L28.5862 16.5331C28.9393 16.8031 29.4586 17.1978 29.9779 17.5717C30.4348 17.904 30.9126 18.2156 31.2657 18.444C31.5357 18.6102 31.6811 18.6933 31.7849 18.7348C31.8265 18.7556 31.9303 18.7556 32.0965 18.7556C32.4911 18.7556 32.8235 18.7556 33.135 18.7348L34.4644 18.6933C35.1498 18.6725 35.7314 19.2126 35.7522 19.898C35.773 20.5835 35.2329 21.165 34.5475 21.1858L33.1974 21.2273C32.6781 21.2481 32.2627 21.2481 32.0965 21.2481C31.7019 21.2481 31.4318 21.2273 31.0372 21.1235C30.7048 21.0196 30.3933 20.8535 29.9156 20.5419C29.5417 20.3134 29.0432 19.9603 28.5447 19.5864C28.0254 19.2126 27.4854 18.7972 27.0699 18.4856L26.7791 18.2571L26.3222 18.7764C26.0937 19.0256 25.9068 19.2333 25.6575 19.4203C25.3044 19.6695 24.9305 19.8149 24.4528 19.8149C24.1205 19.8149 23.7674 19.7318 23.435 19.628C23.1858 19.5449 22.9157 19.4411 22.6665 19.3372H22.6457C22.4796 19.4618 22.2926 19.628 22.0849 19.8357C21.8149 20.1057 21.5033 20.4173 21.2541 20.6873L21.2333 20.7081C20.3609 21.622 19.8209 22.2036 18.5539 21.7051C18.1384 21.5389 17.7022 21.2066 17.3076 20.8119C16.9753 20.4796 16.6637 20.1265 16.3937 19.7942L16.3521 19.7318C16.2275 19.5864 17.1207 18.9633 16.6222 19.2126C16.5598 19.2333 16.5806 19.3164 16.456 19.4826C16.1444 19.8772 15.8121 20.3134 15.3136 20.5627C14.6282 20.9158 14.0466 20.8119 13.5481 20.6665V20.6458ZM27.0907 17.9455C27.0699 17.9663 27.0284 17.9871 26.9661 18.0494C27.1322 17.9248 27.34 17.8209 27.0907 17.9455Z" fill="#572922"/>
<path d="M12.9022 34.2712C12.2167 34.292 11.6352 33.7727 11.5936 33.0665C11.5728 32.381 12.0921 31.7995 12.7983 31.7579C13.92 31.6956 15.0208 31.6541 15.6855 31.4879C15.8932 31.4256 16.0386 31.3633 16.1425 31.301C16.2671 31.2179 16.4125 31.0517 16.5786 30.8648L16.9317 30.4701C17.3056 30.0339 17.6795 29.5977 17.9911 29.307C18.5934 28.7669 19.0504 28.5384 19.8812 28.9954C20.2343 29.1823 20.5667 29.5562 21.0444 30.2001C21.356 30.6363 21.7921 31.2386 22.2076 31.8825C22.6645 32.5472 23.2046 33.3781 23.62 34.0219L24.0562 33.4404C24.4716 32.9003 24.9493 32.2772 25.3647 31.7371C25.8009 31.1971 26.2579 30.6155 26.611 30.2001C27.7949 28.8084 28.1065 28.6838 29.2697 29.6808C29.3528 29.7431 29.4358 29.8262 29.5189 29.9093L29.5605 29.9508C29.8513 30.2209 30.3082 30.6571 30.786 31.0309C31.0975 31.2802 31.3883 31.5294 31.6376 31.6748C31.8453 31.8202 31.9907 31.8825 32.0945 31.9033C32.1984 31.9241 32.3438 31.9241 32.5307 31.9241L34.3378 31.841C35.0232 31.8202 35.6048 32.3395 35.6463 33.0457C35.6671 33.7312 35.1478 34.3127 34.4416 34.3543L32.593 34.4374C32.2399 34.4374 31.9491 34.4581 31.5545 34.3543C31.1598 34.2712 30.7652 34.105 30.2667 33.7727C29.9343 33.5442 29.5605 33.2534 29.1866 32.9626C28.8543 32.6926 28.5427 32.4018 28.2519 32.1318C28.0026 32.4434 27.6703 32.838 27.3172 33.295C26.8395 33.8973 26.3825 34.4997 26.0502 34.9359C25.7802 35.289 25.5517 35.6213 25.3647 35.8706C24.9909 36.3691 24.7832 36.6806 24.5339 36.9091C23.7446 37.5945 23.2461 37.6569 22.436 36.7222C22.2491 36.5145 22.0829 36.2444 21.7921 35.8083L21.6675 35.6005C21.3144 35.0605 20.7536 34.2089 20.1305 33.295C19.7566 32.7342 19.3827 32.1941 19.0919 31.7995L18.448 32.5472C18.178 32.8588 17.9495 33.108 17.5964 33.3573C17.2433 33.6065 16.8279 33.8142 16.2878 33.9596C15.4155 34.1881 14.1692 34.2504 12.9022 34.3127H12.8814L12.9022 34.2712Z" fill="#572922"/>
<path d="M53.8644 26.6896C53.179 26.6896 52.6182 26.1495 52.5974 25.4641C52.5974 24.7786 53.1375 24.2178 53.8229 24.197C54.6537 24.1763 55.4638 24.1763 56.2116 24.1763C57.0008 24.197 57.7071 24.2178 58.2471 24.3009C59.0156 24.4255 59.5349 24.6332 59.9503 25.0486C60.3865 25.4848 60.5734 26.0041 60.6773 26.7311C60.7396 27.1881 60.7604 27.7489 60.7604 28.3097C60.7604 28.9951 60.7188 29.7013 60.6773 30.2414C60.6358 30.8437 60.5527 31.2799 60.3657 31.6746C60.0957 32.2354 59.7011 32.547 59.0572 32.7754C58.6417 32.9208 58.1225 33.0039 57.5824 33.0455C57.1462 33.087 56.6062 33.1078 56.1285 33.1078C55.6715 33.1078 55.2976 33.1078 54.9861 33.1078C54.633 33.1078 54.4045 33.087 54.2591 33.087L53.9268 33.0662C52.722 32.9831 52.722 32.3185 52.722 31.82C52.722 31.1345 53.2829 30.5737 53.9683 30.5737C54.0306 30.5737 54.0929 30.5737 54.176 30.5945H54.3422C54.5083 30.5945 54.7368 30.6153 55.0068 30.6153C55.2976 30.6153 55.6507 30.6153 56.0662 30.6153C56.44 30.6153 56.897 30.5945 57.354 30.5529C57.6655 30.5322 57.9355 30.4906 58.1225 30.4491L58.164 30.0544C58.2056 29.5767 58.2263 28.9536 58.2263 28.3305C58.2263 27.8527 58.2056 27.4165 58.164 27.105C58.1432 26.9388 58.1432 26.8765 58.1432 26.8557C58.1432 26.8557 58.0394 26.8349 57.8317 26.7934C57.4163 26.7311 56.8139 26.6896 56.1492 26.6896C55.4223 26.6896 54.6122 26.6896 53.8229 26.7103L53.8644 26.6896Z" fill="#572922"/>
<path d="M54.0691 38.6956C53.3837 38.7164 52.8021 38.1763 52.7813 37.4909C52.7606 36.8055 53.3006 36.2239 53.986 36.2031H54.0068C55.71 36.1616 57.3925 36.0993 58.4102 36.2446C59.1995 36.3485 59.7396 36.577 60.1342 37.0963C60.4873 37.5532 60.6327 38.0933 60.695 38.8618C60.7366 39.4434 60.7366 40.2534 60.7158 41.022C60.695 41.7282 60.612 42.4344 60.5081 42.9329C60.3419 43.7845 60.0304 44.283 59.428 44.5946C58.9503 44.8646 58.4726 44.8854 57.7663 44.8854C56.7486 44.8854 55.1284 44.823 53.5083 44.7607H53.4668C52.7813 44.74 52.2413 44.1584 52.2621 43.4729C52.2828 42.7875 52.8644 42.2474 53.5498 42.2682H53.6122C55.2323 42.3305 56.8732 42.3928 57.7871 42.3928C57.9117 42.3928 57.9948 42.3928 58.0571 42.4136C58.1195 42.0397 58.1818 41.4997 58.2025 40.9181C58.2233 40.2534 58.2233 39.5472 58.1818 39.0487C58.161 38.7787 58.1818 38.6748 58.161 38.6541C58.0987 38.571 58.1818 38.7372 58.0571 38.7372C57.2263 38.6333 55.6477 38.6748 54.0691 38.7164H54.0484L54.0691 38.6956ZM58.2233 42.3928C58.2856 42.3513 58.2441 42.3721 58.1818 42.3928C58.2025 42.3928 58.2233 42.3928 58.2233 42.3928Z" fill="#572922"/>
<path d="M59.5502 29.7843C58.8648 29.7843 58.304 29.2234 58.304 28.538C58.304 27.8526 58.8648 27.2917 59.5502 27.2917H59.571C62.2089 27.3333 64.8676 27.3956 66.6954 27.7072C67.7132 27.8733 68.5025 28.1434 69.1672 28.4965C69.8734 28.8703 70.4134 29.3481 70.9119 29.9504C71.3896 30.532 71.805 31.2175 72.1374 32.1106C72.4697 32.9622 72.719 34.0008 72.8851 35.3716C73.0513 36.6594 73.1344 38.2173 73.1552 39.7958C73.1967 41.3537 73.1759 42.9115 73.1552 44.2201C73.1136 46.8995 73.0098 48.4781 72.9059 50.0567V50.0774C72.8644 50.7629 72.262 51.2822 71.5766 51.2406C70.8911 51.1991 70.3719 50.5967 70.4134 49.9113V49.8905C70.5173 48.2912 70.6211 46.671 70.6627 44.1577C70.6834 42.8699 70.7042 41.3329 70.6627 39.8166C70.6211 38.3211 70.5588 36.8464 70.4134 35.6624C70.268 34.5408 70.0603 33.6684 69.7903 32.983C69.541 32.3599 69.271 31.8821 68.9594 31.5082C68.6686 31.1551 68.3571 30.8851 67.9832 30.6774C67.5678 30.4489 67.007 30.2828 66.28 30.1581C64.5975 29.8673 62.0843 29.8258 59.571 29.7843H59.5502Z" fill="#572922"/>
<path d="M59.5096 42.0616C58.8241 42.0824 58.2426 41.5424 58.201 40.8569C58.1802 40.1715 58.7203 39.5899 59.4057 39.5483C59.925 39.5276 60.4443 39.5068 60.9843 39.486C61.5036 39.4653 62.0021 39.4653 62.376 39.486C62.8745 39.5068 63.2691 39.5691 63.6222 39.7145C64.1207 39.9015 64.4946 40.213 64.7439 40.6908C64.9308 41.0439 65.0347 41.4593 65.097 42.0409C65.1385 42.477 65.1593 43.0379 65.1593 43.8272L65.2008 46.6105L65.2424 50.0377C65.2424 50.7231 64.7023 51.2839 63.9961 51.3047C63.3107 51.3047 62.7499 50.7646 62.7291 50.0584L62.6875 46.6312L62.646 43.8479C62.6252 43.1209 62.6252 42.6017 62.5837 42.2486L62.5629 42.0201C62.4798 41.9993 62.3552 41.9993 62.2098 41.9993C61.8567 41.9785 61.4413 41.9785 61.0051 41.9993C60.5689 41.9993 60.0289 42.0409 59.4888 42.0616H59.5096Z" fill="#572922"/>
<path d="M51.9878 59.5495C51.9878 58.864 52.5486 58.3032 53.234 58.3032C53.9195 58.3032 54.4803 58.864 54.4803 59.5495V69.7272C54.4803 70.4127 53.9195 70.9735 53.234 70.9735C52.5486 70.9735 51.9878 70.4127 51.9878 69.7272V59.5495Z" fill="#572922"/>
<path fill-rule="evenodd" clip-rule="evenodd" d="M38.7415 41.8326C40.2163 41.5418 42.3141 41.1679 43.5188 40.1086C44.7235 39.0493 45.0351 37.263 45.139 34.6666C45.2428 32.0495 45.1182 28.6223 45.4505 25.9013C45.7829 23.1803 46.5514 21.1863 46.9253 19.8154C47.2991 18.4445 47.2576 17.7175 47.3615 17.9045C47.4445 18.0914 47.673 19.1923 47.8184 22.3287C47.9638 25.4443 48.0677 30.5955 48.0054 34.0019C47.943 37.4084 47.6938 39.07 47.4861 40.0878C47.2784 41.1056 47.1122 41.4795 46.4475 41.7495C45.7829 42.0195 44.6612 42.2272 42.2726 42.4142C39.8839 42.6219 36.2282 42.8088 34.8989 42.8296C33.5696 42.8503 34.5458 42.6842 35.4805 42.4972C36.3944 42.3103 37.2668 42.1026 38.7415 41.8118V41.8326Z" fill="#EE741D"/>
<path d="M9.53373 14.2694C9.45064 18.9013 9.59604 27.7913 9.69989 33.3579L9.72067 34.7495C9.80375 39.3191 9.80375 40.1084 10.4061 40.3784C10.9254 40.6277 11.777 40.8354 13.1686 41.0016C14.7057 41.1885 16.7828 41.2924 19.6907 41.3547C25.195 41.4585 33.6072 41.3339 38.9038 41.2508L40.4409 41.23C44.8651 41.1677 45.8413 41.147 46.1113 40.9185C46.1944 40.8562 46.2567 40.6277 46.319 39.963C46.4229 38.966 46.4644 37.3459 46.4437 34.6664C46.4229 31.6131 46.3606 27.2097 46.236 23.0139C46.1321 19.7529 46.0075 16.5957 45.8413 14.3317C45.6751 12.1715 45.5297 11.0499 44.9897 10.6137C44.3666 10.1152 42.9334 10.0321 40.2747 9.9698C37.5537 9.90749 33.7111 9.86595 29.7854 9.84518C25.1535 9.82441 20.3761 9.84518 17.0943 9.88672C14.1033 9.92826 12.3586 9.96981 11.2785 10.0529C10.51 10.0944 10.1361 10.1567 9.86606 10.1983C9.72067 10.8006 9.61681 11.9846 9.57527 14.2902L9.53373 14.2694ZM7.18661 33.3786C7.10353 27.7913 6.93736 18.9013 7.02045 14.2278C7.06199 11.5899 7.18661 10.2191 7.39432 9.45053C7.7682 8.03811 8.34978 7.89271 9.09754 7.74732C9.47141 7.66423 9.9076 7.58115 11.0708 7.51884C12.1301 7.45652 13.8956 7.39421 16.9905 7.35267C20.2723 7.31113 25.0704 7.29036 29.7231 7.31113C33.7111 7.3319 37.5745 7.35267 40.2747 7.43575C43.4942 7.51884 45.2805 7.66423 46.506 8.61969C47.7938 9.63747 48.0846 11.2161 48.313 14.124C48.4792 16.3465 48.6038 19.5452 48.7077 22.9101C48.8323 27.1058 48.9154 31.53 48.9154 34.6249C48.9362 37.429 48.8946 39.1322 48.7908 40.2123C48.6454 41.6247 48.313 42.2686 47.773 42.7463C46.8175 43.6187 45.6751 43.6395 40.4616 43.7018L38.9246 43.7225C33.6072 43.8056 25.1742 43.9303 19.6492 43.8264C16.6166 43.7641 14.4564 43.6602 12.8778 43.4733C11.1746 43.2656 10.0738 42.9956 9.30525 42.6217C7.33201 41.6662 7.31124 40.6692 7.22816 34.7703C7.22816 34.3133 7.20738 33.8356 7.20738 33.3786H7.18661Z" fill="#572922"/>
<path fill-rule="evenodd" clip-rule="evenodd" d="M39.241 68.4396C39.0541 67.6087 39.7395 65.8224 40.5496 64.2646C41.3389 62.7276 42.2528 61.419 43.0421 60.8582C43.8314 60.3182 44.5376 60.5259 45.0984 60.879C45.6592 61.2321 46.1162 61.7306 46.5316 62.416C46.947 63.1015 47.3209 63.9738 47.5078 64.7631C47.674 65.5524 47.6532 66.2379 47.5701 66.8195C47.4871 67.3803 47.3624 67.8372 47.0301 68.2111C46.6978 68.585 46.1785 68.8758 45.2438 69.0004C44.3091 69.125 42.959 69.0627 41.7543 69.1043C40.5496 69.1458 39.4695 69.2497 39.2825 68.4188L39.241 68.4396Z" fill="#FEFEFE"/>
<path fill-rule="evenodd" clip-rule="evenodd" d="M63.0045 69.0414C62.4852 69.0206 61.9659 68.9998 61.9036 68.4182C61.8205 67.8159 62.1736 66.6527 62.5683 65.1987C62.9629 63.7448 63.4199 62.0208 63.8145 61.0653C64.2092 60.1099 64.5623 59.9022 65.2685 60.2345C65.9747 60.5668 67.034 61.3977 67.6156 62.2285C68.1972 63.0593 68.3218 63.8902 68.3633 64.6379C68.4049 65.3857 68.3634 66.0503 68.0933 66.6735C67.8233 67.2966 67.3248 67.899 66.7224 68.2936C66.0993 68.6882 65.3723 68.8752 64.7284 68.979C64.0845 69.0621 63.5237 69.0621 63.0045 69.0621V69.0414Z" fill="#FEFEFE"/>
<path fill-rule="evenodd" clip-rule="evenodd" d="M60.637 62.0204C60.2839 62.8513 59.9516 64.0975 59.9308 65.1568C59.91 66.2369 60.1801 67.1301 60.6993 67.7324C61.2186 68.3348 61.9664 68.6671 62.6103 68.5217C63.2542 68.3763 63.7734 67.774 64.3342 67.2339C64.8951 66.6731 65.5182 66.1746 65.809 65.4892C66.0998 64.8037 66.079 63.9521 65.7882 63.059C65.4974 62.1658 64.9158 61.2519 64.355 60.6911C63.7734 60.1511 63.2126 59.9641 62.7764 59.9641C62.3402 59.9641 62.0702 60.1303 61.7379 60.4211C61.4055 60.7119 60.9901 61.1688 60.637 61.9997V62.0204Z" fill="#FFD639"/>
<path fill-rule="evenodd" clip-rule="evenodd" d="M41.0626 68.6275C41.9973 68.1913 44.012 67.2982 45.009 66.6127C46.0061 65.9273 45.9645 65.4496 45.9437 64.681C45.923 63.9125 45.9022 62.8324 45.196 62.0431C44.4898 61.2331 43.0981 60.693 40.9172 60.2568C38.757 59.8207 35.8075 59.4675 31.6118 59.3637C27.4161 59.2598 21.9325 59.426 17.9861 59.5299C14.0396 59.6337 11.5886 59.6753 10.2385 59.8206C8.86763 59.966 8.59761 60.1738 8.43145 61.0046C8.26528 61.8354 8.22374 63.2894 8.28605 64.4733C8.34836 65.6573 8.51453 66.592 8.80532 67.1943C9.09611 67.8175 9.49076 68.1082 10.7993 68.2952C12.1079 68.4821 14.2888 68.5444 18.0068 68.6691C21.7248 68.7937 26.9383 68.9599 30.6148 69.0429C34.2912 69.126 36.4514 69.1053 37.8431 69.0845C39.2347 69.0637 39.8579 69.0637 40.0863 69.0429C40.3148 69.0429 40.1486 69.0429 41.0833 68.6068L41.0626 68.6275Z" fill="#FFD639"/>
<path d="M9.8302 61.2529C9.6848 62.4369 9.76789 64.7009 9.80943 66.2172V66.5495C9.8302 67.2349 9.8302 67.4634 15.0022 67.6919C17.9724 67.8165 22.3135 67.8788 26.7377 67.8996C31.7851 67.9204 36.9778 67.8788 40.4258 67.7958C43.583 67.7127 45.2031 67.6088 46.0339 67.4427C46.2209 67.4011 46.1793 67.588 46.2001 67.5257C46.2832 67.2142 46.3663 66.778 46.4078 66.2379C46.4493 65.7187 46.4701 65.1371 46.4286 64.4932C46.4078 63.9116 46.3455 63.2885 45.9716 62.79C45.5354 62.2292 44.6423 61.7099 42.8975 61.336C39.0549 60.5467 31.6397 60.6506 25.7407 60.7544L24.723 60.7752C21.6696 60.8167 19.1356 60.8375 17.0793 60.8583C14.109 60.879 13.0912 60.879 12.385 60.879C10.7857 60.879 10.2248 60.879 9.91328 60.8998L9.87174 61.2945L9.8302 61.2529ZM7.29615 66.3003C7.25461 64.6801 7.17152 62.2915 7.33769 60.9829C7.44154 60.0274 7.6908 59.4666 8.00236 59.0927C8.48009 58.5319 8.91628 58.4488 9.3317 58.4073C9.76789 58.345 10.0795 58.345 12.3227 58.345C13.7974 58.345 15.8953 58.345 17.0169 58.345C19.0525 58.3242 21.5865 58.3034 24.6399 58.2619L25.6576 58.2411C31.6812 58.158 39.2418 58.0334 43.3545 58.885C45.8054 59.3835 47.1556 60.2559 47.9241 61.2529C48.7549 62.3122 48.8588 63.4131 48.9003 64.3686C48.9418 65.1579 48.9211 65.8433 48.8795 66.4249C48.8172 67.1103 48.7134 67.7127 48.5887 68.1904C48.3603 69.0005 48.1318 69.5613 46.5117 69.9144C45.5354 70.1221 43.7907 70.2467 40.4673 70.3298C37.0193 70.4129 31.8058 70.4544 26.717 70.4337C22.2304 70.4129 17.8478 70.3506 14.8983 70.226C7.4 69.9144 7.37923 69.0836 7.31692 66.6741V66.3418L7.29615 66.3003Z" fill="#572922"/>
<path d="M63.8503 59.0508C65.4497 59.0508 66.9036 59.6739 67.9629 60.6917C69.0223 61.7302 69.6869 63.1427 69.6869 64.7212C69.6869 66.2998 69.0223 67.7123 67.9629 68.7508C66.9036 69.7686 65.4497 70.3917 63.8503 70.3917C62.2509 70.3917 60.797 69.7686 59.7377 68.7508C58.6783 67.7123 58.0137 66.2998 58.0137 64.7212C58.0137 63.1427 58.6783 61.7302 59.7377 60.6917C60.797 59.6739 62.2509 59.0508 63.8503 59.0508ZM66.2182 62.4988C65.6158 61.9172 64.785 61.5641 63.8503 61.5641C62.9156 61.5641 62.0848 61.9172 61.4824 62.4988C60.9008 63.0596 60.527 63.8489 60.527 64.7212C60.527 65.5936 60.9008 66.3621 61.4824 66.9437C62.0848 67.5253 62.9156 67.8784 63.8503 67.8784C64.785 67.8784 65.6158 67.5253 66.2182 66.9437C66.7998 66.3829 67.1736 65.5936 67.1736 64.7212C67.1736 63.8489 66.7998 63.0803 66.2182 62.4988Z" fill="#572922"/>
</svg>
