<svg width="70" height="71" viewBox="0 0 70 71" fill="none" xmlns="http://www.w3.org/2000/svg">
<path fill-rule="evenodd" clip-rule="evenodd" d="M37.1971 4.30345C39.0198 5.9127 42.6817 9.11477 46.0808 11.8571C49.4799 14.5994 52.6327 16.8654 54.6525 18.4583C56.6723 20.0675 57.559 21.0035 58.1666 22.2186C58.7741 23.4338 59.1026 24.9281 57.8874 27.5554C56.6723 30.1828 53.9136 33.9432 51.3191 37.0303C48.7246 40.1174 46.2943 42.5477 44.3073 44.7645C42.3204 46.9813 40.7768 48.9683 38.2645 52.0554C35.7521 55.1425 32.2708 59.3463 30.2182 61.8258C28.182 64.3054 27.5744 65.0607 26.5399 64.913C25.5218 64.7652 24.0768 63.6978 21.6465 61.7601C19.2162 59.8225 15.8007 57.0309 13.2554 54.9947C10.7266 52.9585 9.0681 51.6777 7.82012 50.676C6.57213 49.6744 5.70182 48.9354 5.01214 48.2293C4.30605 47.5232 3.76416 46.8664 3.10732 45.6513C2.45048 44.4525 1.69512 42.7119 2.76248 40.3145C3.81342 37.917 6.68708 34.8792 9.57715 31.6935C12.4508 28.5078 15.3409 25.1744 17.9025 22.2186C20.4642 19.2629 22.6974 16.7012 24.8486 14.2874C26.9997 11.8571 29.0523 9.57456 30.7929 7.66974C32.5336 5.76491 33.9622 4.22135 34.6683 3.46599C35.3744 2.69421 35.3744 2.69421 37.2135 4.30345H37.1971Z" fill="#FEFEFE"/>
<path d="M44.6991 3.58182C46.7517 5.12538 49.1492 7.21083 51.5959 9.32913C53.0574 10.61 54.5352 11.8908 55.8161 12.9581C58.2956 15.0272 60.496 16.7185 62.2859 18.0815C63.1891 18.7711 63.9937 19.3787 64.6505 19.9042C65.7179 20.7416 66.4896 21.4313 67.0972 22.0882C67.7541 22.7943 68.2138 23.4511 68.5751 24.1736C68.9528 24.9618 69.2648 25.8321 69.2648 26.9652C69.2812 28.0325 69.0185 29.2641 68.3124 30.7912C67.7212 32.0885 66.7688 33.6156 65.6686 35.2085C64.4042 37.0312 62.9427 38.9196 61.5305 40.5945C59.8063 42.6471 58.1314 44.437 56.6371 46.0462C55.9639 46.7688 55.3234 47.442 54.486 48.378C52.9588 50.0858 51.6944 51.6458 50.0523 53.682L48.4759 55.6196L44.5349 60.4309C43.0735 62.2208 41.612 63.9779 40.2655 65.6528L39.9371 66.0633C37.6874 68.8549 36.6365 70.1521 34.4032 70.3492C33.3359 70.4313 32.0715 70.185 30.6264 69.5938C29.3128 69.0519 27.8185 68.2144 26.1271 67.0814C22.9086 64.9138 19.0333 61.6954 16.1104 59.2815L15.8969 59.1008C14.4847 57.9185 13.3024 56.9497 12.1693 56.0301C11.1348 55.1927 10.1988 54.4537 9.23 53.6984L8.11338 52.8445C6.5534 51.6622 5.04267 50.5127 3.79469 49.2812C2.97364 48.4601 2.30039 47.6226 1.79134 46.8016C1.26587 45.9313 0.888188 45.0446 0.707559 44.1743C0.510508 43.2054 0.510508 42.253 0.904609 41.1036C1.24945 40.1019 1.88986 38.9524 2.95722 37.4745C4.56647 35.2741 7.21023 32.2527 9.87042 29.2313L11.7917 27.0308C13.5159 25.0603 15.2236 23.057 16.8165 21.1686C18.0316 19.7564 19.1811 18.3935 20.3469 17.0634C22.5309 14.551 24.6164 12.2356 26.5705 10.0845L32.6955 3.30266C33.4344 2.48162 34.0255 1.8412 34.6824 1.33215C35.4706 0.741002 36.2752 0.379743 37.2933 0.33048C38.2129 0.281217 39.2638 0.461847 40.5446 1.03658C41.6777 1.5292 43.0406 2.35025 44.6827 3.59824L44.6991 3.58182ZM49.6254 11.5788C47.1787 9.44408 44.7648 7.3422 42.9093 5.96285C41.4642 4.87907 40.2983 4.17297 39.3459 3.76245C38.5413 3.40119 37.9337 3.28624 37.4739 3.30266C37.1127 3.31908 36.8171 3.46687 36.4887 3.69676C36.0453 4.0416 35.5363 4.59991 34.8959 5.30601C32.8597 7.57209 30.8235 9.83818 28.7709 12.0878C26.9153 14.1404 24.9284 16.3408 22.5966 19.0175C21.5292 20.249 20.3305 21.6448 19.0825 23.1227C17.539 24.929 15.8969 26.8502 14.0249 29.0014L12.1037 31.2018C9.49274 34.1739 6.89823 37.1297 5.35467 39.2316C4.46794 40.4467 3.95889 41.3334 3.729 42.0395C3.53195 42.6143 3.53195 43.0741 3.63048 43.5338C3.74542 44.0757 3.99174 44.6505 4.33658 45.2252C4.73068 45.8656 5.25615 46.5224 5.89656 47.1629C6.96392 48.2302 8.40896 49.3304 9.90326 50.4635L11.0199 51.3173C11.9559 52.0399 12.9083 52.7952 14.0249 53.6984C15.043 54.5194 16.2746 55.5375 17.7689 56.7855L17.9823 56.9661C20.8724 59.3636 24.7149 62.5492 27.7528 64.5854C29.2799 65.6035 30.5936 66.3425 31.7266 66.8187C32.7119 67.2292 33.5165 67.4098 34.1241 67.3606C35.0929 67.2785 35.8811 66.2932 37.5889 64.1913L37.9173 63.7808C38.919 62.5328 40.5611 60.5459 42.2032 58.5425L46.1277 53.7476L47.6877 51.8264C49.3791 49.7245 50.6763 48.1317 52.2199 46.4075C52.7289 45.8492 53.55 44.9625 54.4203 44.0429C55.8818 42.4665 57.5074 40.7423 59.1988 38.7225C60.5781 37.0804 61.9903 35.2741 63.1726 33.5664C64.1743 32.1049 65.0282 30.7255 65.5701 29.5925C66.0791 28.4923 66.2598 27.6713 66.2598 27.0308C66.2598 26.4561 66.0791 25.9799 65.8657 25.553C65.6193 25.0603 65.3238 24.6334 64.8804 24.1736C64.3878 23.6481 63.7145 23.057 62.7621 22.3016C62.0888 21.7597 61.3171 21.185 60.4468 20.5118C58.624 19.116 56.358 17.3918 53.862 15.3063C52.4169 14.0912 50.9883 12.8596 49.5926 11.6445L49.6254 11.5788Z" fill="#572922"/>
<path d="M48.4856 17.2442C49.0768 16.6694 50.0292 16.7023 50.5875 17.2934C51.1458 17.8846 51.1294 18.837 50.5382 19.3953C49.3559 20.5119 48.19 21.6285 47.1063 22.7287C46.0389 23.8289 45.0372 24.9291 44.1998 26.0458C43.313 27.2281 42.5577 28.4925 41.8187 29.7076C41.129 30.8407 40.4722 31.9573 39.7168 32.9918C38.4196 34.7817 36.876 36.3581 35.4803 37.7867L34.4786 38.8212C33.7068 39.6258 33.05 40.3648 32.426 41.1037C31.8184 41.8262 31.2272 42.5488 30.6033 43.3205L29.5359 44.6671C28.6327 45.8165 27.6968 46.9988 26.7443 48.1319C25.3486 49.8068 24.0349 51.3011 22.7048 52.779L22.6391 52.8447C22.0972 53.4522 21.1612 53.5179 20.5372 52.976C19.9297 52.4341 19.864 51.4982 20.4059 50.8742L20.4716 50.8085C21.8509 49.2649 23.2303 47.7049 24.4454 46.2435C25.3978 45.1104 26.301 43.9445 27.2041 42.8279L28.2715 41.4814C28.8791 40.7096 29.4866 39.9707 30.1599 39.1825C30.8167 38.4107 31.5228 37.6225 32.311 36.785L33.3455 35.7177C34.6428 34.3876 36.1043 32.9097 37.2866 31.2676C37.9927 30.2824 38.6166 29.2643 39.2406 28.2133C40.0124 26.9325 40.8006 25.6188 41.8023 24.2887C42.7383 23.0407 43.8057 21.8584 44.9551 20.6926C46.0882 19.5267 47.2869 18.3936 48.4692 17.277L48.4856 17.2442Z" fill="#572922"/>
<path fill-rule="evenodd" clip-rule="evenodd" d="M17.1583 35.5536C15.8775 35.3401 14.4653 35.8984 13.5457 36.8673C12.6261 37.8361 12.1827 39.199 12.1992 40.6276C12.2156 42.0563 12.659 43.5177 13.4307 44.3388C14.1861 45.1598 15.2535 45.324 16.7149 45.1434C18.1764 44.9628 20.0484 44.4537 21.2142 43.6491C22.3801 42.8445 22.8399 41.7771 22.6429 40.7426C22.4458 39.7081 21.5919 38.7392 20.5902 37.754C19.5886 36.7687 18.4555 35.7671 17.1747 35.5536H17.1583Z" fill="#FFD639"/>
<path d="M16.9088 37.0314C16.5475 36.9657 16.137 37.015 15.7593 37.1628C15.3324 37.327 14.9218 37.5733 14.6098 37.9017C14.3143 38.2137 14.0844 38.6078 13.9366 39.0348C13.7559 39.5274 13.6738 40.0693 13.6738 40.6276C13.6738 41.1859 13.7724 41.7606 13.953 42.2861C14.1008 42.7295 14.2978 43.1071 14.5113 43.3535C14.6755 43.5177 14.8726 43.6326 15.1189 43.6819C15.4801 43.764 15.9399 43.7476 16.5147 43.6819C17.2208 43.5998 18.0254 43.4191 18.7479 43.1893C19.3555 42.9922 19.9138 42.7295 20.3407 42.4503C20.6856 42.204 20.9155 41.9577 21.0468 41.695C21.1453 41.4815 21.1782 41.268 21.1289 41.0545C21.0797 40.7754 20.899 40.4634 20.6691 40.135C20.3736 39.7244 19.963 39.2811 19.5033 38.8377C19.0435 38.3779 18.5673 37.9346 18.0911 37.6061C17.6805 37.327 17.27 37.1135 16.8923 37.0478L16.9088 37.0314ZM14.7412 34.3548C15.5951 34.0428 16.5147 33.9443 17.4014 34.0921C18.2881 34.2399 19.0927 34.634 19.8317 35.1594C20.4885 35.6192 21.0797 36.1775 21.6216 36.703C22.1634 37.2449 22.6725 37.7868 23.0994 38.3615C23.5921 39.0348 23.9369 39.7244 24.0847 40.4634C24.2489 41.3009 24.1339 42.1712 23.7398 42.9758C23.395 43.6819 22.8203 44.3387 22.0485 44.8806C21.3917 45.3404 20.5706 45.7016 19.7003 45.9972C18.7479 46.3092 17.7462 46.5227 16.8759 46.6376C15.9892 46.7362 15.201 46.7362 14.462 46.572C13.6246 46.3913 12.9185 45.9972 12.3273 45.3568C11.8019 44.7821 11.3913 44.0267 11.1122 43.2057C10.8494 42.4175 10.7017 41.5143 10.7017 40.6276C10.7017 39.7244 10.833 38.8377 11.1286 38.0167C11.4242 37.1956 11.8675 36.4567 12.4587 35.8327C13.0991 35.1759 13.8873 34.6668 14.7412 34.3548Z" fill="#572922"/>
<path fill-rule="evenodd" clip-rule="evenodd" d="M22.6585 26.5072C22.4942 27.5417 22.5763 29.2003 23.1511 30.596C23.7258 31.9918 24.8096 33.1084 26.1397 33.4861C27.4534 33.8638 29.0133 33.519 30.2777 32.6158C31.5422 31.7127 32.5274 30.2512 32.2975 28.5598C32.084 26.8685 30.6718 24.9308 29.5881 23.9456C28.5043 22.9439 27.7653 22.8946 26.8294 23.1738C25.8934 23.4529 24.7767 24.0769 24.005 24.586C23.2332 25.095 22.8227 25.4891 22.6585 26.5236V26.5072Z" fill="#FFD639"/>
<path d="M24.1234 26.7372C24.0577 27.1641 24.0413 27.7553 24.1234 28.3957C24.1891 28.9376 24.3204 29.4959 24.5339 30.0049C24.7474 30.5304 25.0594 31.0066 25.4371 31.3679C25.7655 31.6963 26.1431 31.9262 26.5537 32.0411C26.9642 32.1561 27.424 32.1561 27.9002 32.0575C28.4257 31.9426 28.9347 31.7127 29.4109 31.3843C29.9035 31.0394 30.3305 30.5797 30.5932 30.0706C30.7903 29.6765 30.8888 29.2167 30.8395 28.7405C30.7738 28.1986 30.5111 27.5911 30.1663 26.9999C29.7065 26.2117 29.0989 25.4892 28.6063 25.0294C28.2779 24.7174 28.0316 24.5532 27.8345 24.5039C27.7031 24.4711 27.5225 24.5039 27.2762 24.5696C26.9314 24.6681 26.5537 24.8323 26.1924 25.013C25.7162 25.2429 25.24 25.5384 24.8459 25.7848C24.5996 25.949 24.4025 26.0968 24.3204 26.2117C24.2383 26.3102 24.1891 26.458 24.1562 26.7043L24.1234 26.7372ZM21.1676 28.7569C21.0527 27.8374 21.0855 26.9506 21.184 26.261C21.3154 25.4892 21.5453 24.9309 21.923 24.4382C22.2678 23.9785 22.6783 23.6665 23.1874 23.3216C23.6472 23.026 24.2219 22.6812 24.8459 22.3692C25.3714 22.1065 25.9133 21.8766 26.4223 21.7288C27.1284 21.5153 27.7852 21.4496 28.5242 21.6138C29.2139 21.7781 29.8871 22.1557 30.6261 22.829C31.3157 23.4694 32.1204 24.4218 32.7443 25.4892C33.2698 26.3923 33.6803 27.394 33.8117 28.3628C33.9595 29.463 33.7296 30.4976 33.2862 31.4007C32.7936 32.3695 32.0382 33.207 31.1844 33.8146C30.3797 34.3893 29.4766 34.7834 28.557 34.9805C27.621 35.1775 26.6686 35.1611 25.7655 34.8983C24.8787 34.6356 24.0741 34.143 23.4009 33.5026C22.7276 32.8622 22.1857 32.0411 21.8245 31.1544C21.496 30.3826 21.299 29.5451 21.2169 28.7569H21.1676Z" fill="#572922"/>
<path fill-rule="evenodd" clip-rule="evenodd" d="M32.9244 13.5988C32.5139 14.5184 32.4154 15.8321 32.9244 16.9651C33.4335 18.0982 34.5501 19.0506 35.8802 19.6089C37.2103 20.1672 38.7539 20.3314 39.9197 19.7567C41.102 19.1819 41.9067 17.8518 42.3993 16.7681C42.8919 15.7007 43.0561 14.8961 42.6949 14.1243C42.35 13.3525 41.4633 12.63 40.5766 12.0553C39.6898 11.4805 38.7703 11.07 37.785 11.0207C36.8162 10.9715 35.7652 11.2835 34.8949 11.7104C34.0246 12.1374 33.3185 12.6793 32.908 13.5988H32.9244Z" fill="#FFD639"/>
<path d="M34.2917 14.2047C34.1604 14.5167 34.0783 14.8944 34.0783 15.3049C34.0783 15.6662 34.144 16.0274 34.2917 16.3558C34.4559 16.7171 34.7187 17.0619 35.0635 17.3739C35.4576 17.7188 35.9338 18.0308 36.4593 18.2442C37.0012 18.4741 37.5759 18.6219 38.1178 18.6384C38.5447 18.6548 38.9388 18.5891 39.2673 18.4249C39.5793 18.2771 39.8584 18.0144 40.1212 17.7024C40.5153 17.2262 40.8273 16.6514 41.0571 16.1588C41.2378 15.7483 41.3691 15.4199 41.402 15.1407C41.4184 14.9929 41.402 14.8615 41.3527 14.7466C41.2706 14.566 41.1064 14.3689 40.9094 14.1719C40.5974 13.8599 40.2033 13.5643 39.7927 13.3016C39.4315 13.0717 39.0702 12.8746 38.6925 12.7268C38.3641 12.5955 38.0521 12.5134 37.7401 12.4969C37.4445 12.4805 37.1161 12.5298 36.7713 12.5955C36.3444 12.694 35.9502 12.8582 35.5726 13.0224C35.2606 13.1702 34.965 13.3508 34.7515 13.5479C34.5709 13.7121 34.4231 13.9091 34.3082 14.1719L34.2917 14.2047ZM31.0897 15.3049C31.0897 14.4839 31.2703 13.6792 31.5659 13.006C31.8614 12.3327 32.2555 11.8073 32.7482 11.3639C33.208 10.9534 33.717 10.6414 34.2589 10.3786C34.8336 10.0995 35.4412 9.8696 36.0652 9.72181C36.6399 9.59044 37.2639 9.50834 37.8715 9.54118C38.5283 9.57402 39.1687 9.73823 39.7599 9.96812C40.3018 10.1816 40.8437 10.4772 41.3691 10.822C41.9275 11.1833 42.4858 11.5938 42.962 12.0536C43.4053 12.4969 43.7994 12.9896 44.0457 13.515C44.3577 14.1719 44.4234 14.8287 44.3413 15.5512C44.2592 16.1424 44.0622 16.7499 43.7502 17.4068C43.4218 18.1129 42.9784 18.9175 42.4037 19.6236C41.8946 20.2312 41.3035 20.7566 40.5809 21.1179C39.7927 21.512 38.906 21.6598 38.0029 21.627C37.0833 21.5941 36.1473 21.3642 35.2934 21.003C34.4724 20.6581 33.7006 20.1819 33.0602 19.6072C32.4198 19.0325 31.8943 18.3428 31.5494 17.6038C31.221 16.8649 31.0732 16.0767 31.0732 15.3378L31.0897 15.3049Z" fill="#572922"/>
<path fill-rule="evenodd" clip-rule="evenodd" d="M49.4813 26.7853C49.1529 27.7377 48.9066 29.2813 49.3499 30.5129C49.8097 31.7444 50.9756 32.6312 52.3057 33.1895C53.6522 33.7478 55.1629 33.9448 56.3945 33.5672C57.6261 33.1895 58.5621 32.2042 58.9562 30.8906C59.3667 29.5769 59.2353 27.9348 58.365 26.8018C57.4947 25.6523 55.869 25.0119 54.4568 24.8312C53.0447 24.6506 51.8459 24.9133 51.0249 25.2089C50.2203 25.5045 49.7933 25.8493 49.4649 26.7853H49.4813Z" fill="#FFD639"/>
<path d="M50.8699 27.2938C50.7221 27.7043 50.6071 28.2627 50.5743 28.8374C50.5579 29.2479 50.6071 29.6584 50.7221 30.0033C50.8534 30.3481 51.0833 30.6601 51.3953 30.9228C51.7894 31.2841 52.2985 31.5797 52.8568 31.8096C53.4151 32.0395 54.0062 32.2037 54.581 32.2529C55.0572 32.3022 55.517 32.2694 55.9275 32.138C56.2887 32.023 56.6172 31.8096 56.8799 31.5468C57.1591 31.2513 57.3725 30.89 57.5039 30.4631C57.6517 29.9869 57.7009 29.445 57.6188 28.9031C57.5532 28.4597 57.4054 28.0328 57.1426 27.7043C56.8799 27.3595 56.5022 27.0804 56.0424 26.8505C55.4677 26.5549 54.8273 26.3743 54.2197 26.2922C53.7271 26.2265 53.2673 26.2265 52.8404 26.2757C52.3313 26.3414 51.8715 26.4564 51.5103 26.5877C51.2968 26.6534 51.149 26.7355 51.0669 26.8012C51.0012 26.8669 50.9191 27.0147 50.837 27.261L50.8699 27.2938ZM47.6021 28.7389C47.6349 27.8193 47.832 26.9326 48.0619 26.2922C48.3082 25.5861 48.6038 25.0934 49.0307 24.6829C49.4412 24.2724 49.9174 24.0261 50.5086 23.8126C51.0505 23.5991 51.7402 23.4185 52.5612 23.32C53.1852 23.2543 53.8913 23.2379 54.6467 23.3364C55.5662 23.4513 56.5515 23.7305 57.4218 24.1739C58.2428 24.5844 58.9982 25.1591 59.5401 25.8816C60.1148 26.637 60.4597 27.5401 60.591 28.4761C60.7224 29.445 60.6403 30.4466 60.3611 31.3169C60.082 32.2037 59.6386 32.9755 59.031 33.5994C58.4235 34.2399 57.6681 34.6996 56.8142 34.9788C56.0424 35.2251 55.1721 35.2908 54.3182 35.2087C53.4479 35.1266 52.5448 34.8967 51.7237 34.5519C50.8699 34.207 50.0652 33.7308 49.4084 33.1232C48.768 32.5485 48.2425 31.8424 47.9469 31.0214C47.6678 30.2824 47.5857 29.4778 47.6021 28.7224V28.7389Z" fill="#572922"/>
<path fill-rule="evenodd" clip-rule="evenodd" d="M40.5342 38.2959C39.7625 39.1826 39.1549 40.7919 39.2863 42.1712C39.4176 43.5506 40.2551 44.7165 41.5031 45.4061C42.7346 46.0958 44.3603 46.3257 45.7725 45.9152C47.1847 45.5047 48.3834 44.4373 49.0567 43.4521C49.7299 42.4668 49.8777 41.5472 49.3523 40.6112C48.8268 39.6588 47.6116 38.69 46.4786 38.0824C45.3291 37.4748 44.2618 37.245 43.2437 37.2285C42.242 37.2121 41.306 37.3927 40.5342 38.2959Z" fill="#FFD639"/>
<path d="M41.6418 39.2655C41.3627 39.5939 41.1163 40.0537 40.9357 40.5956C40.7879 41.0882 40.7058 41.5973 40.7387 42.0406C40.7715 42.4511 40.9193 42.8288 41.1492 43.1737C41.4119 43.5514 41.7568 43.8633 42.1837 44.1097C42.6435 44.356 43.1854 44.5366 43.7437 44.6023C44.2856 44.668 44.8275 44.6351 45.3201 44.4873C45.7963 44.3396 46.2561 44.0932 46.6502 43.7977C47.1264 43.4364 47.5205 43.0095 47.7996 42.6154C47.9967 42.3198 48.1281 42.057 48.1445 41.8436C48.1609 41.6958 48.1281 41.5152 48.0131 41.3345C47.8489 41.039 47.5533 40.7105 47.1921 40.3985C46.7487 40.0209 46.2397 39.6596 45.747 39.3969C45.2872 39.1505 44.8439 38.9863 44.4169 38.8878C43.9736 38.7729 43.5631 38.7236 43.1854 38.7236C42.8405 38.7236 42.5285 38.74 42.2494 38.8386C42.0359 38.9042 41.8224 39.052 41.6418 39.2655ZM38.1113 39.676C38.4069 38.7729 38.8667 37.9354 39.3921 37.3278C39.9669 36.6546 40.6073 36.2441 41.3134 36.0142C41.9538 35.8007 42.5942 35.735 43.2675 35.7514C43.8915 35.7678 44.5155 35.8335 45.1723 35.9977C45.8127 36.1619 46.486 36.4083 47.1756 36.7695C47.8653 37.1308 48.5878 37.6234 49.1954 38.1653C49.803 38.6908 50.312 39.2819 50.6569 39.8895C51.0838 40.6449 51.2316 41.4166 51.1495 42.1884C51.0674 42.9109 50.7718 43.6006 50.2956 44.2903C49.8523 44.9471 49.2118 45.6204 48.4729 46.1787C47.7996 46.6713 47.0279 47.0983 46.1904 47.3446C45.2872 47.6073 44.3348 47.673 43.4317 47.558C42.4957 47.4431 41.5761 47.1475 40.7715 46.7042C39.934 46.228 39.2444 45.604 38.7189 44.8486C38.2098 44.1097 37.8814 43.2394 37.7993 42.2869C37.7172 41.4166 37.8486 40.4971 38.1277 39.676H38.1113Z" fill="#572922"/>
<path fill-rule="evenodd" clip-rule="evenodd" d="M30.2829 50.1991C29.7411 51.0202 29.035 52.3667 28.8051 53.5162C28.5588 54.6656 28.7886 55.6016 29.4783 56.4555C30.168 57.3258 31.301 58.114 32.4833 58.426C33.6657 58.7544 34.8972 58.6066 35.8168 58.1797C36.7364 57.7528 37.3604 57.0466 37.9187 55.93C38.477 54.8134 38.986 53.2698 38.6904 52.1532C38.3949 51.0366 37.3275 50.3305 35.9974 49.8379C34.6837 49.3453 33.1238 49.0825 32.1549 49.0825C31.1861 49.0989 30.8084 49.3781 30.2829 50.1991Z" fill="#FFD639"/>
<path d="M31.5185 51.0205C31.2558 51.4146 30.9602 51.9565 30.6974 52.5312C30.5004 52.9746 30.3362 53.418 30.2541 53.8121C30.1884 54.1569 30.172 54.4689 30.2377 54.7481C30.3033 55.0108 30.4347 55.2735 30.6318 55.5198C30.8781 55.8318 31.2393 56.1438 31.6334 56.4066C32.0111 56.6529 32.4381 56.8664 32.865 56.9813C33.2591 57.0963 33.686 57.1291 34.0637 57.0963C34.4742 57.0634 34.8519 56.9649 35.1803 56.8171C35.4595 56.6857 35.6894 56.5215 35.9029 56.2916C36.1492 56.0289 36.3791 55.6841 36.5925 55.2407C36.8553 54.7316 37.0852 54.1077 37.2165 53.5165C37.2986 53.1224 37.3151 52.7776 37.2494 52.5148C37.2001 52.3014 37.0359 52.0879 36.7896 51.9073C36.4612 51.6445 36.0014 51.4146 35.4759 51.234C34.9176 51.0205 34.31 50.8727 33.7353 50.7578C33.1113 50.6428 32.553 50.5772 32.1589 50.5772C31.9783 50.5772 31.8633 50.5936 31.8469 50.61C31.7812 50.6428 31.6663 50.7906 31.5185 51.0369V51.0205ZM27.9716 51.3325C28.3 50.61 28.6941 49.9039 29.0389 49.3949C29.4166 48.8201 29.7779 48.4096 30.2705 48.0976C30.796 47.7528 31.3707 47.6214 32.1425 47.605C32.7501 47.605 33.5218 47.6707 34.31 47.8349C35.0326 47.9827 35.8043 48.1797 36.5104 48.4424C37.3151 48.738 38.054 49.1157 38.6616 49.6083C39.3677 50.1831 39.8931 50.8892 40.123 51.7923C40.3201 52.5312 40.2872 53.3359 40.123 54.1405C39.9424 55.0108 39.5976 55.8975 39.2363 56.6201C38.8915 57.3097 38.5138 57.8845 38.0868 58.3442C37.6106 58.8533 37.0688 59.2638 36.4283 59.5594C35.7879 59.855 35.049 60.052 34.2936 60.1013C33.5711 60.1505 32.8322 60.0849 32.0932 59.8878C31.3543 59.6908 30.6482 59.3459 30.0078 58.9354C29.3509 58.5085 28.7598 57.9666 28.3 57.4083C27.8238 56.8007 27.4954 56.1603 27.3312 55.4542C27.167 54.7481 27.167 54.0255 27.3312 53.2373C27.4625 52.6134 27.6924 51.9565 27.9716 51.3489V51.3325Z" fill="#572922"/>
<path d="M29.985 63.9129C29.4267 63.3217 29.4431 62.3693 30.0507 61.811C30.6418 61.2527 31.5942 61.2691 32.1525 61.8767C32.4317 62.1723 32.7109 62.4678 32.9572 62.6813C33.1214 62.8291 33.2692 62.9276 33.3677 62.9605C33.4005 62.9769 33.4498 62.9605 33.4991 62.9605C33.6304 62.9276 33.7946 62.8455 33.926 62.7634C34.2216 62.5664 34.4843 62.2051 34.7306 61.8438L34.7799 61.7946C35.2889 61.1542 36.2249 61.0392 36.8653 61.5647C37.4893 62.0573 37.6043 62.9605 37.1445 63.6009C36.7504 64.1592 36.3399 64.7175 35.6174 65.2101C35.2068 65.5057 34.6978 65.752 34.1395 65.867C33.614 65.9819 33.0557 65.9819 32.4974 65.8177C31.9555 65.6535 31.4629 65.3251 31.0195 64.9474C30.6418 64.619 30.3298 64.2741 30.0014 63.9293L29.985 63.9129Z" fill="#572922"/>
<path d="M36.8491 7.98325C36.2251 8.52514 35.2891 8.45946 34.7472 7.83546C34.2053 7.21147 34.271 6.27548 34.8786 5.73359C35.4861 5.20812 36.0773 4.66623 36.7998 4.35424C37.2103 4.17361 37.6373 4.0915 38.0314 4.07508C38.4747 4.05866 38.9017 4.14076 39.2794 4.27213C39.6242 4.38708 39.9198 4.55129 40.1661 4.73192C40.3796 4.8797 40.5766 5.04391 40.7408 5.1917L41.3812 5.79927C41.9724 6.374 41.9724 7.32642 41.3977 7.90115C40.8229 8.4923 39.8705 8.4923 39.2958 7.91757L38.7703 7.42494C38.6882 7.35926 38.5897 7.26073 38.4747 7.19505C38.3926 7.14579 38.3269 7.09652 38.2613 7.0801C38.212 7.06368 38.1627 7.06368 38.1299 7.06368C38.0971 7.06368 38.0478 7.0801 37.9821 7.09652C37.703 7.21147 37.276 7.60557 36.8491 7.98325Z" fill="#572922"/>
</svg>
