<svg width="77" height="64" viewBox="0 0 77 64" fill="none" xmlns="http://www.w3.org/2000/svg">
<path d="M31.0156 60.2635C31.6181 61.3197 31.243 62.6604 30.1775 63.2577C29.1121 63.855 27.7596 63.4831 27.157 62.4269L12.579 37.0911L0.287525 15.7189C-0.314984 14.6627 0.0601454 13.322 1.12562 12.7247C2.13111 12.161 3.39213 12.4606 4.03739 13.384C5.72164 15.4593 8.0261 16.8997 10.5566 17.547C13.0654 18.189 15.8089 18.0478 18.4023 16.9695C21.2338 15.7922 23.389 13.6966 24.6615 11.1819C25.941 8.65285 26.3322 5.69596 25.6252 2.81921C25.6095 2.76591 25.5957 2.7124 25.5842 2.65897C25.0627 0.31823 28.4574 -1.27434 29.829 1.37763C29.8663 1.4495 29.871 1.53353 29.8907 1.61086L29.9055 1.66586C30.9016 5.61167 30.3735 9.67684 28.6151 13.1521C26.8813 16.5791 23.9551 19.4303 20.1185 21.0255C16.618 22.481 12.8877 22.6648 9.45617 21.7869C9.22605 21.7281 8.99727 21.6644 8.77025 21.5958L16.4376 34.9277L31.0156 60.2635Z" fill="#FFE578"/>
<path d="M54.2493 22.4698C58.4354 17.4728 66.3705 16.4163 71.5695 20.2153C76.2765 23.4621 77.8906 30.5445 76.5396 35.7857C75.0854 40.8188 71.3589 43.9146 67.7571 46.5861C65.0442 48.5721 62.1412 50.0791 59.0522 51.2984C58.0224 51.6962 57.2374 52.0667 56.1007 52.4651C55.218 52.7189 53.6266 51.5631 53.3698 50.6879C53.1216 49.8456 53.4842 48.1576 54.2964 47.864C55.1423 47.5178 56.0829 47.0711 56.9539 46.6196C62.6761 43.6738 71.483 38.6362 70.0306 31.4787C69.8705 29.7514 68.9621 27.5821 67.3229 26.9049C65.4287 26.0441 63.0287 26.7953 62.1578 28.5709C60.8934 31.0522 57.839 32.0479 55.3354 30.7943C52.0769 29.146 51.6505 24.9265 54.2493 22.4698Z" fill="#FFE578"/>
<path d="M29.1684 31.6604C29.0129 31.2929 29.1875 30.8697 29.5583 30.7156C29.9289 30.5614 30.3558 30.7345 30.5113 31.102C30.8215 31.8352 30.8022 32.6265 30.5199 33.3126L30.5177 33.3183C30.2337 34.0031 29.6886 34.5801 28.9497 34.8874C28.2072 35.1961 27.4084 35.1772 26.7171 34.8969C26.0261 34.6168 25.4425 34.0752 25.1311 33.3393C24.9755 32.9717 25.1501 32.5485 25.5209 32.3944C25.8917 32.2402 26.3185 32.4133 26.474 32.7807C26.63 33.1495 26.9224 33.4209 27.2682 33.5611C27.6142 33.7014 28.0144 33.7108 28.3864 33.5561C28.7601 33.4007 29.0341 33.112 29.1746 32.7713L29.1759 32.7678C29.3165 32.4272 29.3251 32.0308 29.1684 31.6604Z" fill="#FFE578"/>
<path d="M57.3922 49.2794C57.9947 50.3356 57.6196 51.6762 56.5541 52.2735C55.4886 52.8709 54.1361 52.499 53.5336 51.4428L34.0148 17.5154C33.4123 16.4594 33.7875 15.1187 34.8529 14.5214C35.9183 13.9241 37.2708 14.2959 37.8734 15.352L57.3922 49.2794Z" fill="#FFE578"/>
<path d="M42.5007 23.3927C43.1032 24.4489 42.7281 25.7894 41.6626 26.3867C40.5973 26.9842 39.2448 26.6123 38.6421 25.5561L25.8268 3.28673C25.2243 2.23066 25.5994 0.889935 26.6649 0.292629C27.7304 -0.304678 29.0828 0.0672302 29.6854 1.1233L42.5007 23.3927Z" fill="#FFE578"/>
<path d="M52.6545 32.2042C53.5581 32.353 54.1692 33.2004 54.0191 34.0961C53.869 34.9919 53.0141 35.5976 52.1105 35.4487L37.8327 33.098C36.9291 32.9492 36.318 32.1019 36.4683 31.2061C36.6185 30.3104 37.4731 29.7047 38.3768 29.8535L52.6545 32.2042Z" fill="#FFE578"/>
<path d="M15.7061 50.5515C15.2076 51.3142 14.1794 51.5323 13.41 51.0382C12.6404 50.5441 12.4206 49.5248 12.919 48.7621L20.1726 37.6823C20.6711 36.9196 21.6993 36.7016 22.4687 37.1956C23.2383 37.6898 23.4581 38.709 22.9597 39.4718L15.7061 50.5515Z" fill="#FFE578"/>
<path d="M35.405 29.109C34.5575 29.4613 33.5824 29.066 33.2268 28.2259C32.8714 27.386 33.2703 26.4193 34.1177 26.0668L47.2008 20.6269C48.0483 20.2746 49.0235 20.6699 49.379 21.51C49.7345 22.3499 49.3355 23.3166 48.4882 23.6691L35.405 29.109Z" fill="#FFE578"/>
<path d="M7.96092 40.5177C7.11342 40.87 6.13827 40.4747 5.78277 39.6346C5.42735 38.7947 5.82612 37.8278 6.67362 37.4755L19.6028 32.0995C20.4502 31.7472 21.4255 32.1425 21.7809 32.9826C22.1363 33.8225 21.7375 34.7894 20.8901 35.1417L7.96092 40.5177Z" fill="#FFE578"/>
<path d="M21.5904 26.3182C21.4284 25.9353 21.6102 25.4945 21.9965 25.3339C22.3828 25.1733 22.8275 25.3536 22.9896 25.7364C23.3128 26.5003 23.2926 27.3246 22.9984 28.0396L22.9962 28.0456C22.7003 28.7589 22.1324 29.3601 21.3625 29.6802C20.589 30.0018 19.7568 29.9821 19.0365 29.6902C18.3168 29.3983 17.7087 28.8341 17.3842 28.0673C17.2222 27.6843 17.404 27.2436 17.7902 27.083C18.1765 26.9223 18.6213 27.1025 18.7834 27.4855C18.9459 27.8697 19.2504 28.1524 19.6108 28.2984C19.9713 28.4445 20.3881 28.4544 20.7758 28.2933C21.165 28.1313 21.4504 27.8306 21.5969 27.4757L21.5982 27.4722C21.7447 27.1172 21.7537 26.7041 21.5904 26.3182Z" fill="#FFE578"/>
<path d="M29.5286 23.0176C29.3667 22.6348 29.5484 22.1939 29.9347 22.0333C30.321 21.8727 30.7657 22.053 30.9278 22.4359C31.251 23.1998 31.2308 24.0241 30.9366 24.739L30.9344 24.745C30.6385 25.4584 30.0706 26.0596 29.3008 26.3796C28.5272 26.7014 27.695 26.6815 26.9748 26.3896C26.255 26.0977 25.6469 25.5336 25.3224 24.7667C25.1604 24.3839 25.3422 23.943 25.7285 23.7824C26.1147 23.6218 26.5595 23.8021 26.7216 24.185C26.8841 24.5692 27.1886 24.8518 27.549 24.9979C27.9094 25.144 28.3264 25.154 28.7139 24.9927C29.1033 24.8309 29.3887 24.53 29.5351 24.1751L29.5369 24.1712C29.6833 23.8162 29.6923 23.4034 29.529 23.0174" fill="#FFE578"/>
</svg>
