<svg width="9" height="7" viewBox="0 0 9 7" fill="none" xmlns="http://www.w3.org/2000/svg">
<path fill-rule="evenodd" clip-rule="evenodd" d="M8.5013 0.158593C8.60285 0.26017 8.6599 0.39792 8.6599 0.541551C8.6599 0.685182 8.60285 0.822932 8.5013 0.924509L3.35547 6.07034C3.25389 6.17189 3.11614 6.22894 2.97251 6.22894C2.82888 6.22894 2.69113 6.17189 2.58955 6.07034L0.152052 3.63284C0.0533835 3.53068 -0.00121367 3.39386 2.04763e-05 3.25183C0.00125462 3.10981 0.0582213 2.97395 0.158651 2.87352C0.25908 2.77309 0.394937 2.71613 0.53696 2.71489C0.678983 2.71366 0.815809 2.76826 0.917969 2.86693L2.97251 4.92147L7.73539 0.158593C7.83696 0.0570459 7.97471 0 8.11834 0C8.26197 0 8.39973 0.0570459 8.5013 0.158593Z" fill="black"/>
</svg>
