<svg width="270" height="112" viewBox="0 0 270 112" fill="none" xmlns="http://www.w3.org/2000/svg">
<path d="M1.01193 37.9054C8.92594 33.069 13.3226 31.1623 22.5556 28.6724C33.1075 25.8269 37.9819 24.9734 48.9356 24.7155C59.894 24.457 73.1171 25.8269 83.8101 27.5854C96.4197 29.9914 105.444 32.7182 119.091 41.462C132.738 50.2057 150.641 56.2394 162.233 53.1591C173.825 50.0789 179.105 37.88 172.808 34.0336C166.516 30.1868 148.641 34.6883 144.999 42.7743C141.357 50.8602 151.944 62.5312 169.265 67.5747C186.587 72.6181 210.648 71.0384 228.016 72.39C245.384 73.7416 256.063 78.0241 261.401 80.168C266.738 82.3119 266.738 82.3118 266.738 82.3118" stroke="#2B2A29" stroke-width="2.5" stroke-miterlimit="22.9256" stroke-dasharray="6.67 4"/>
<path d="M253.27 72.1854C256.674 74.6077 260.082 77.0248 262.319 78.7725C264.555 80.5155 265.624 81.5839 266.522 82.2032C267.42 82.8178 268.15 82.9781 268.009 82.9513C267.866 82.9197 266.861 82.7 263.48 82.8666C260.1 83.0331 254.353 83.5803 251.153 83.8266C247.954 84.0728 247.308 84.0224 246.656 83.9679" stroke="#2B2A29" stroke-width="2.5" stroke-miterlimit="22.9256" stroke-dasharray="6.67 4"/>
</svg>
