<svg width="44" height="45" viewBox="0 0 44 45" fill="none" xmlns="http://www.w3.org/2000/svg">
<path d="M2.92108 20.001C1.2648 20.0446 -0.042548 21.4226 0.00103837 23.0789C0.0446247 24.7352 1.42264 26.0425 3.07892 25.999L2.92108 20.001ZM43.1764 24.0648C44.3167 22.8628 44.2668 20.964 43.0648 19.8236L23.4773 1.24058C22.2753 0.10023 20.3764 0.1502 19.2361 1.35219C18.0957 2.55418 18.1457 4.45301 19.3477 5.59336L36.7588 22.1116L20.2406 39.5227C19.1002 40.7247 19.1502 42.6236 20.3522 43.7639C21.5542 44.9043 23.453 44.8543 24.5934 43.6523L43.1764 24.0648ZM3.07892 25.999L41.0789 24.999L40.9211 19.001L2.92108 20.001L3.07892 25.999Z" fill="#572922"/>
</svg>
