<svg width="44" height="45" viewBox="0 0 44 45" fill="none" xmlns="http://www.w3.org/2000/svg">
<path d="M41.0789 20.001C42.7352 20.0446 44.0425 21.4226 43.999 23.0789C43.9554 24.7352 42.5774 26.0425 40.9211 25.999L41.0789 20.001ZM0.823615 24.0648C-0.316733 22.8628 -0.266764 20.964 0.935225 19.8236L20.5227 1.24058C21.7247 0.10023 23.6236 0.1502 24.7639 1.35219C25.9043 2.55418 25.8543 4.45301 24.6523 5.59336L7.24118 22.1116L23.7594 39.5227C24.8998 40.7247 24.8498 42.6236 23.6478 43.7639C22.4458 44.9043 20.547 44.8543 19.4066 43.6523L0.823615 24.0648ZM40.9211 25.999L2.92108 24.999L3.07892 19.001L41.0789 20.001L40.9211 25.999Z" fill="#572922"/>
</svg>
