<svg width="212" height="302" viewBox="0 0 212 302" fill="none" xmlns="http://www.w3.org/2000/svg">
<path d="M109.655 143.705C108.218 146.224 109.113 149.421 111.654 150.845C114.194 152.27 117.42 151.383 118.857 148.864L153.619 88.4478L182.93 37.4833C184.367 34.9647 183.472 31.7677 180.932 30.3434C178.534 28.9989 175.527 29.7136 173.988 31.9155C169.972 36.8643 164.477 40.2988 158.442 41.8428C152.46 43.3735 145.917 43.037 139.733 40.4657C132.981 37.658 127.842 32.661 124.808 26.6642C121.756 20.6335 120.823 13.5824 122.509 6.72232C122.547 6.59523 122.58 6.46777 122.607 6.34013C123.851 0.758575 115.755 -3.03909 112.485 3.28465C112.396 3.45602 112.385 3.65642 112.338 3.84087L112.302 3.97202C109.927 13.3816 111.186 23.0755 115.379 31.3626C119.514 39.5346 126.492 46.3333 135.641 50.1373C143.988 53.6083 152.883 54.0467 161.066 51.9529C161.615 51.8128 162.161 51.6608 162.702 51.4975L144.418 83.289L109.655 143.705Z" fill="#FFE578"/>
<path d="M54.2513 53.5829C44.2689 41.6669 25.3466 39.1474 12.9493 48.2067C1.72474 55.9489 -2.12433 72.8378 1.09731 85.3362C4.56501 97.3383 13.4513 104.721 22.0401 111.091C28.5095 115.827 35.4321 119.421 42.7982 122.328C45.2539 123.277 47.1256 124.16 49.8364 125.11C51.9411 125.716 55.7361 122.959 56.3485 120.872C56.9403 118.864 56.0759 114.839 54.1389 114.138C52.1218 113.313 49.879 112.248 47.8018 111.171C34.1564 104.146 13.1554 92.1336 16.6188 75.0658C17.0006 70.9468 19.1667 65.7737 23.0757 64.1589C27.5926 62.1061 33.3158 63.8976 35.3924 68.1317C38.4076 74.0485 45.6911 76.423 51.6614 73.4336C59.4316 69.503 60.4484 59.441 54.2513 53.5829Z" fill="#FFE578"/>
<path d="M114.06 75.4982C114.431 74.622 114.015 73.613 113.131 73.2452C112.247 72.8777 111.229 73.2903 110.858 74.1668C110.118 75.9151 110.164 77.802 110.837 79.4382L110.843 79.4519C111.52 81.0847 112.82 82.4608 114.582 83.1934C116.353 83.9296 118.258 83.8843 119.906 83.2161C121.554 82.5482 122.945 81.2568 123.688 79.5017C124.059 78.6252 123.643 77.6162 122.759 77.2487C121.875 76.881 120.857 77.2936 120.486 78.17C120.114 79.0494 119.416 79.6964 118.592 80.0308C117.767 80.3651 116.813 80.3878 115.925 80.0189C115.034 79.6484 114.381 78.9599 114.046 78.1474L114.042 78.1391C113.707 77.3268 113.686 76.3816 114.06 75.4982Z" fill="#FFE578"/>
<path d="M46.7569 117.512C45.3201 120.031 46.2148 123.228 48.7554 124.652C51.2961 126.077 54.5212 125.19 55.9582 122.671L102.503 41.7675C103.94 39.2491 103.045 36.0521 100.505 34.6276C97.9639 33.2033 94.7387 34.0901 93.3018 36.6087L46.7569 117.512Z" fill="#FFE578"/>
<path d="M82.2674 55.7834C80.8305 58.3018 81.7251 61.4988 84.2657 62.9233C86.8064 64.3477 90.0315 63.4608 91.4685 60.9422L122.028 7.83854C123.465 5.31993 122.571 2.12294 120.03 0.69857C117.489 -0.725739 114.264 0.160915 112.827 2.67952L82.2674 55.7834Z" fill="#FFE578"/>
<path d="M58.0553 76.7944C55.9005 77.1491 54.4434 79.1697 54.8013 81.3058C55.1594 83.4419 57.1978 84.8863 59.3526 84.5313L93.3995 78.9258C95.5545 78.5708 97.0113 76.5503 96.6535 74.4143C96.2953 72.2782 94.257 70.8338 92.1022 71.1888L58.0553 76.7944Z" fill="#FFE578"/>
<path d="M146.162 120.546C147.351 122.365 149.803 122.885 151.638 121.707C153.473 120.529 153.997 118.098 152.808 116.279L135.511 89.8582C134.323 88.0395 131.871 87.5196 130.036 88.698C128.201 89.8762 127.677 92.3068 128.865 94.1256L146.162 120.546Z" fill="#FFE578"/>
<path d="M99.1872 69.4135C101.208 70.2538 103.533 69.3109 104.381 67.3078C105.229 65.3048 104.277 62.9994 102.257 62.1591L71.0583 49.1868C69.0375 48.3466 66.712 49.2895 65.8644 51.2925C65.0167 53.2956 65.968 55.6009 67.9887 56.4411L99.1872 69.4135Z" fill="#FFE578"/>
<path d="M164.632 96.6196C166.653 97.4598 168.979 96.5169 169.826 94.514C170.674 92.5108 169.723 90.2055 167.702 89.3653L136.871 76.5456C134.85 75.7055 132.525 76.6481 131.677 78.6513C130.829 80.6545 131.781 82.9598 133.801 83.8L164.632 96.6196Z" fill="#FFE578"/>
<path d="M132.129 62.7593C132.515 61.8461 132.082 60.795 131.161 60.412C130.239 60.0289 129.179 60.4588 128.793 61.3721C128.022 63.1935 128.07 65.1592 128.771 66.864L128.778 66.8783C129.483 68.5793 130.837 70.013 132.673 70.7763C134.518 71.5433 136.502 71.4963 138.22 70.7999C139.936 70.1041 141.386 68.7587 142.16 66.93C142.546 66.017 142.113 64.9659 141.192 64.5827C140.27 64.1998 139.21 64.6298 138.824 65.5428C138.436 66.4591 137.71 67.133 136.851 67.4814C135.991 67.8297 134.997 67.8533 134.073 67.469C133.144 67.083 132.463 66.3656 132.114 65.5193L132.111 65.5104C131.762 64.6641 131.74 63.6795 132.129 62.7593Z" fill="#FFE578"/>
<path d="M113.201 54.8887C113.588 53.9756 113.154 52.9244 112.233 52.5413C111.312 52.1584 110.251 52.5883 109.865 53.5013C109.094 55.3228 109.143 57.2887 109.844 58.9935L109.849 59.0077C110.555 60.7088 111.909 62.1425 113.745 62.9058C115.59 63.6728 117.574 63.6255 119.292 62.9294C121.008 62.2334 122.458 60.8881 123.232 59.0594C123.618 58.1464 123.185 57.0951 122.263 56.7121C121.342 56.329 120.282 56.759 119.895 57.6722C119.508 58.5883 118.781 59.2624 117.922 59.6106C117.063 59.9591 116.069 59.9828 115.144 59.5983C114.216 59.2125 113.535 58.495 113.186 57.6488L113.183 57.6398C112.833 56.7935 112.812 55.809 113.201 54.8887Z" fill="#FFE578"/>
<path d="M102.462 241.205C103.082 242.653 103.903 243.98 104.882 245.167C105.892 246.391 107.056 247.443 108.329 248.304C109.09 248.818 110.044 248.836 110.803 248.432L111.107 248.284C111.259 248.205 111.4 248.129 111.523 248.059L111.618 248.002C114.064 246.601 115.874 244.461 116.876 242.003C117.893 239.507 118.082 236.676 117.261 233.949C117.203 233.753 117.131 233.534 117.044 233.29L117.027 233.246C116.936 232.994 116.858 232.792 116.797 232.649C116.625 232.246 116.421 231.838 116.186 231.427C115.963 231.033 115.716 230.654 115.449 230.287C114.783 229.376 113.585 229.075 112.582 229.499L112.58 229.494L102.651 233.685C101.63 234.117 101.066 235.168 101.216 236.207C101.284 237.021 101.418 237.844 101.62 238.669C101.835 239.546 102.116 240.395 102.462 241.205ZM108.581 242.177C107.903 241.356 107.323 240.408 106.868 239.345C106.603 238.726 106.4 238.122 106.256 237.538L106.209 237.337L112.47 234.694L112.546 234.887C112.587 235 112.631 235.139 112.679 235.299L112.683 235.308C113.183 236.966 113.066 238.699 112.441 240.232C111.916 241.519 111.035 242.661 109.865 243.498C109.403 243.093 108.973 242.652 108.581 242.177Z" fill="#FFE578"/>
<path d="M155.449 300.001C155.818 301.257 157.145 301.977 158.412 301.608C159.68 301.24 160.408 299.923 160.039 298.667L151.275 268.445L143.878 242.956C143.509 241.7 142.182 240.98 140.915 241.348C139.719 241.696 139.003 242.888 139.236 244.077C139.585 246.928 138.973 249.778 137.572 252.206C136.184 254.612 134.008 256.61 131.216 257.789C128.167 259.076 124.912 259.154 121.995 258.24C119.062 257.321 116.464 255.398 114.755 252.694C114.725 252.642 114.694 252.591 114.661 252.542C114.497 252.275 114.347 252.011 114.211 251.75C114.066 251.472 113.921 251.163 113.776 250.825C113.477 250.125 113.246 249.432 113.081 248.753C112.956 248.236 112.864 247.727 112.804 247.229C114.653 245.867 116.043 244.045 116.876 242.002C117.893 239.507 118.082 236.675 117.261 233.949C117.203 233.753 117.131 233.533 117.044 233.29L117.027 233.245C116.97 233.089 116.919 232.951 116.873 232.835L142.109 222.183C142.612 221.971 143.004 221.608 143.255 221.17L148.985 212.542L173.664 255.461L188.841 281.841L191.02 285.632C191.669 286.77 193.127 287.168 194.276 286.522C195.424 285.876 195.829 284.43 195.179 283.292L193.001 279.501L177.824 253.122L151.214 206.847C151.033 206.532 150.778 206.254 150.453 206.041C149.354 205.321 147.872 205.622 147.144 206.713L139.584 218.096L112.58 229.494L112.582 229.499C112.421 229.567 112.264 229.654 112.115 229.761C111.047 230.529 110.807 232.009 111.58 233.067C111.736 233.281 111.883 233.508 112.02 233.748C112.146 233.97 112.27 234.223 112.392 234.508C112.462 234.672 112.51 234.789 112.539 234.866L112.546 234.886C112.587 235 112.631 235.139 112.679 235.299L112.683 235.308C113.184 236.966 113.066 238.698 112.441 240.231C111.816 241.765 110.685 243.093 109.162 243.943L109.165 243.947C108.421 244.363 107.926 245.161 107.947 246.066C107.951 246.221 107.955 246.373 107.96 246.502C107.969 246.695 107.98 246.875 107.996 247.029L107.998 247.029C108.069 247.993 108.215 248.943 108.438 249.867C108.673 250.833 108.983 251.777 109.371 252.684C109.544 253.088 109.741 253.502 109.962 253.926C110.169 254.324 110.383 254.702 110.603 255.058L110.635 255.11C112.959 258.84 116.523 261.49 120.554 262.753C124.529 263.999 128.953 263.897 133.084 262.153C136.853 260.563 139.805 257.84 141.704 254.548C141.831 254.327 141.954 254.104 142.071 253.878L146.686 269.779L155.449 300.001Z" fill="#FFE578"/>
<path d="M194.276 286.522C209.969 279.236 213.804 270.088 210 257.7C209.769 257.095 209.145 256.337 208.052 256.735C207.302 257.085 206.957 257.827 207.261 258.703C208.994 264.222 203.631 278.271 190.921 280.671C194.276 286.522 190.921 280.671 194.276 286.522Z" fill="#FFE578"/>
<path d="M137.578 234.146C137.851 233.375 137.441 232.531 136.663 232.261C135.886 231.992 135.033 232.4 134.761 233.171C134.549 233.77 134.446 234.41 134.467 235.064C134.487 235.697 134.62 236.328 134.877 236.929C135.199 237.682 136.077 238.033 136.837 237.712C137.598 237.391 137.953 236.52 137.63 235.767C137.514 235.495 137.455 235.224 137.446 234.964C137.438 234.69 137.483 234.412 137.578 234.146Z" fill="#FFE578"/>
<path d="M138.838 232.803C139.599 232.482 139.954 231.611 139.632 230.858C139.309 230.104 138.431 229.754 137.671 230.075C136.977 230.367 136.373 230.798 135.879 231.324C135.369 231.867 134.987 232.504 134.754 233.187C134.49 233.962 134.909 234.802 135.69 235.062C136.471 235.323 137.319 234.906 137.584 234.131C137.685 233.834 137.847 233.562 138.06 233.335C138.264 233.118 138.526 232.935 138.838 232.803Z" fill="#FFE578"/>
<path d="M141.826 233.996C142.148 234.749 143.026 235.099 143.786 234.778C144.547 234.457 144.902 233.587 144.58 232.833C144.011 231.505 142.954 230.533 141.705 230.035C140.454 229.535 139.009 229.509 137.671 230.074C136.911 230.395 136.555 231.266 136.878 232.02C137.2 232.773 138.078 233.124 138.838 232.803C139.417 232.558 140.042 232.569 140.583 232.785C141.123 233.001 141.58 233.421 141.826 233.996Z" fill="#FFE578"/>
</svg>
