<svg width="31" height="43" viewBox="0 0 31 43" fill="none" xmlns="http://www.w3.org/2000/svg">
<path fill-rule="evenodd" clip-rule="evenodd" d="M8.47729 4.51279C10.0181 3.93183 12.0641 3.67924 13.8575 3.88131C15.6509 4.05813 17.1664 4.66435 18.5052 5.47264C19.8439 6.28093 20.9806 7.2913 21.9657 8.4027C22.976 9.48884 23.8096 10.676 24.239 11.9642C24.6684 13.2525 24.6684 14.6922 24.82 15.9552C24.9715 17.2181 25.2999 18.279 25.5272 19.2136C25.7546 20.1482 25.8808 20.9312 25.8051 21.9669C25.7293 22.9772 25.4514 24.2149 24.2895 26.7408C23.1529 29.2415 21.1574 33.0304 19.7934 35.4805C18.4294 37.9306 17.7221 39.0168 17.1159 39.7493C16.5097 40.4566 15.9793 40.8102 15.4741 40.7091C14.9689 40.6081 14.4637 40.0524 13.3018 38.3601C12.1399 36.6677 10.3212 33.8387 8.80566 31.5148C7.29011 29.191 6.10293 27.3723 5.11783 25.5789C4.15798 23.7855 3.40021 21.9921 2.92028 20.4261C2.44036 18.86 2.23828 17.496 2.2888 15.8794C2.33932 14.2628 2.66769 12.3684 3.12235 10.8528C3.57702 9.33729 4.18324 8.20063 5.04205 7.165C5.8756 6.12938 6.93649 5.16953 8.47729 4.58857V4.51279Z" fill="#EE741D"/>
<path fill-rule="evenodd" clip-rule="evenodd" d="M9.6138 18.3042C9.41172 17.597 9.18439 16.6371 9.15913 15.7531C9.13387 14.869 9.31069 14.086 9.58854 13.3535C9.86639 12.6209 10.2453 11.9642 10.6999 11.459C11.1546 10.9538 11.685 10.5749 12.367 10.2718C13.049 9.96873 13.8573 9.71614 14.7161 9.64036C15.575 9.53932 16.5095 9.58984 17.3684 9.91821C18.2524 10.2466 19.0607 10.8275 19.6922 11.5853C20.3237 12.3431 20.7278 13.2777 20.9804 14.3133C21.233 15.3489 21.3088 16.4856 21.2583 17.3697C21.2077 18.2537 21.0057 18.8599 20.6773 19.4156C20.3489 19.9713 19.869 20.4765 19.2123 20.9059C18.5555 21.3353 17.6967 21.7395 16.8884 21.9416C16.0549 22.1689 15.2466 22.2447 14.3373 22.1184C13.4279 21.9921 12.4428 21.6637 11.7356 21.2596C11.0283 20.8807 10.5989 20.426 10.2705 19.9461C9.96742 19.4914 9.76535 18.9862 9.56328 18.279L9.6138 18.3042Z" fill="#FEFEFE" stroke="#572922" stroke-width="2.66776" stroke-miterlimit="22.9256"/>
<path fill-rule="evenodd" clip-rule="evenodd" d="M14.4888 40.1785C13.3016 38.6882 11.3061 35.2782 9.51272 32.525C7.71932 29.7717 6.07747 27.6247 4.86504 25.5029C3.6526 23.3812 2.8443 21.2594 2.38964 19.1881C1.93497 17.1169 1.8592 15.0962 2.26334 12.9997C2.64223 10.9031 3.50104 8.68034 4.78926 7.01324C6.07747 5.32087 7.82036 4.15895 9.3359 3.37592C10.8515 2.59289 12.1144 2.16348 13.5794 2.03718C15.0445 1.91089 16.7116 2.11296 18.2776 2.54237C19.8437 2.97177 21.3087 3.62851 22.8495 4.81569C24.3651 6.00287 25.9564 7.74575 27.0678 9.74122C28.1792 11.7367 28.7854 13.9848 28.8107 16.0813C28.836 18.1778 28.255 20.1732 27.0426 22.8002C25.8301 25.4272 23.961 28.7108 22.3696 31.4641C20.753 34.2173 19.4143 36.4149 18.4797 37.8799C17.5451 39.3449 17.0399 40.0775 16.5853 40.6584C16.1306 41.2394 15.7012 41.6688 14.4888 40.1785Z" stroke="#572922" stroke-width="2.66776" stroke-miterlimit="22.9256"/>
</svg>
