<svg width="44" height="44" viewBox="0 0 44 44" fill="none" xmlns="http://www.w3.org/2000/svg">
<path d="M22 44C34.1503 44 44 34.1503 44 22C44 9.84974 34.1503 0 22 0C9.84974 0 0 9.84974 0 22C0 34.1503 9.84974 44 22 44Z" fill="#572922"/>
<path fill-rule="evenodd" clip-rule="evenodd" d="M9.95847 21.7678C16.3719 18.9735 20.6486 17.1314 22.7884 16.2414C28.898 13.7002 30.1675 13.2587 30.995 13.2442C31.177 13.2409 31.5839 13.2861 31.8475 13.4999C32.0701 13.6805 32.1313 13.9245 32.1606 14.0957C32.1899 14.2669 32.2264 14.657 32.1974 14.9618C31.8663 18.4405 30.4337 26.8824 29.7049 30.7786C29.3965 32.4273 28.7893 32.9801 28.2014 33.0342C26.9238 33.1517 25.9537 32.1898 24.7163 31.3787C22.78 30.1095 21.6861 29.3193 19.8066 28.0808C17.6345 26.6494 19.0426 25.8627 20.2805 24.577C20.6044 24.2405 26.2335 19.1205 26.3424 18.656C26.3561 18.5979 26.3687 18.3814 26.2401 18.267C26.1114 18.1527 25.9216 18.1918 25.7846 18.2229C25.5904 18.267 22.4971 20.3115 16.5048 24.3565C15.6268 24.9594 14.8316 25.2531 14.119 25.2377C13.3335 25.2208 11.8225 24.7936 10.6992 24.4284C9.32147 23.9806 8.22646 23.7438 8.32181 22.9832C8.37147 22.5871 8.91703 22.1819 9.95847 21.7678Z" fill="white"/>
</svg>
