<svg width="257" height="384" viewBox="0 0 257 384" fill="none" xmlns="http://www.w3.org/2000/svg">
<path d="M165.367 273.537C166.567 275.633 165.82 278.295 163.697 279.481C161.574 280.667 158.879 279.929 157.678 277.832L128.631 227.531L104.14 185.099C102.939 183.002 103.687 180.341 105.809 179.155C107.813 178.036 110.326 178.631 111.611 180.464C114.967 184.584 119.559 187.444 124.601 188.729C129.6 190.003 135.067 189.723 140.234 187.582C145.876 185.245 150.17 181.085 152.706 176.092C155.255 171.071 156.035 165.2 154.626 159.489C154.595 159.383 154.567 159.277 154.544 159.171C153.505 154.523 160.269 151.362 163.002 156.627C163.076 156.769 163.086 156.936 163.125 157.09L163.155 157.199C165.139 165.033 164.087 173.104 160.584 180.003C157.129 186.807 151.298 192.468 143.654 195.635C136.679 198.525 129.246 198.89 122.408 197.146C121.95 197.03 121.494 196.903 121.042 196.767L136.319 223.236L165.367 273.537Z" fill="#FFE578"/>
<path d="M211.666 198.504C220.007 188.584 235.818 186.486 246.177 194.028C255.556 200.474 258.772 214.536 256.08 224.941C253.183 234.934 245.758 241.08 238.581 246.384C233.175 250.327 227.391 253.319 221.236 255.74C219.184 256.53 217.62 257.265 215.355 258.056C213.596 258.56 210.425 256.265 209.914 254.528C209.419 252.855 210.141 249.504 211.76 248.921C213.445 248.234 215.319 247.347 217.055 246.45C228.457 240.602 246.005 230.601 243.111 216.39C242.792 212.961 240.982 208.654 237.716 207.31C233.941 205.601 229.159 207.092 227.424 210.617C224.905 215.544 218.819 217.52 213.83 215.032C207.337 211.759 206.488 203.382 211.666 198.504Z" fill="#FFE578"/>
<path d="M161.683 216.749C161.373 216.02 161.721 215.18 162.459 214.873C163.198 214.567 164.049 214.911 164.359 215.641C164.977 217.096 164.938 218.667 164.376 220.029L164.371 220.041C163.805 221.4 162.719 222.546 161.247 223.156C159.767 223.769 158.175 223.731 156.798 223.175C155.421 222.619 154.258 221.544 153.638 220.082C153.328 219.353 153.676 218.513 154.414 218.207C155.153 217.9 156.004 218.244 156.314 218.974C156.625 219.706 157.207 220.244 157.896 220.523C158.586 220.801 159.383 220.82 160.124 220.513C160.869 220.204 161.415 219.631 161.695 218.955L161.697 218.948C161.977 218.272 161.995 217.485 161.683 216.749Z" fill="#FFE578"/>
<path d="M217.927 251.729C219.128 253.825 218.38 256.487 216.257 257.673C214.134 258.859 211.439 258.121 210.239 256.024L171.347 188.666C170.146 186.569 170.894 183.907 173.016 182.721C175.139 181.535 177.834 182.274 179.035 184.371L217.927 251.729Z" fill="#FFE578"/>
<path d="M188.252 200.336C189.453 202.433 188.705 205.095 186.582 206.281C184.459 207.467 181.765 206.728 180.564 204.631L155.029 160.419C153.828 158.322 154.576 155.66 156.699 154.474C158.822 153.289 161.516 154.027 162.717 156.124L188.252 200.336Z" fill="#FFE578"/>
<path d="M208.486 217.83C210.287 218.125 211.504 219.807 211.205 221.586C210.906 223.364 209.203 224.567 207.402 224.271L178.953 219.604C177.152 219.309 175.935 217.626 176.234 215.848C176.533 214.07 178.237 212.867 180.037 213.163L208.486 217.83Z" fill="#FFE578"/>
<path d="M134.865 254.256C133.871 255.77 131.823 256.203 130.29 255.222C128.756 254.241 128.318 252.218 129.311 250.703L143.764 228.706C144.758 227.192 146.806 226.759 148.34 227.74C149.873 228.721 150.311 230.744 149.318 232.259L134.865 254.256Z" fill="#FFE578"/>
<path d="M174.118 211.684C172.429 212.384 170.486 211.599 169.778 209.931C169.069 208.263 169.864 206.344 171.553 205.644L197.622 194.844C199.31 194.144 201.253 194.929 201.962 196.597C202.67 198.265 201.875 200.184 200.186 200.884L174.118 211.684Z" fill="#FFE578"/>
<path d="M119.43 234.334C117.742 235.034 115.798 234.249 115.09 232.581C114.382 230.913 115.177 228.994 116.865 228.295L142.627 217.621C144.316 216.922 146.259 217.707 146.967 219.374C147.675 221.042 146.881 222.961 145.192 223.661L119.43 234.334Z" fill="#FFE578"/>
<path d="M146.589 206.145C146.266 205.385 146.629 204.509 147.399 204.191C148.168 203.872 149.054 204.23 149.377 204.99C150.021 206.506 149.981 208.143 149.395 209.562L149.39 209.574C148.8 210.991 147.669 212.184 146.135 212.82C144.593 213.458 142.935 213.419 141.5 212.839C140.066 212.26 138.854 211.14 138.208 209.617C137.885 208.857 138.247 207.982 139.017 207.663C139.787 207.344 140.673 207.702 140.995 208.462C141.319 209.225 141.926 209.786 142.644 210.076C143.362 210.366 144.193 210.386 144.965 210.066C145.741 209.745 146.31 209.147 146.602 208.443L146.605 208.435C146.896 207.731 146.915 206.911 146.589 206.145Z" fill="#FFE578"/>
<path d="M162.4 199.591C162.077 198.83 162.44 197.955 163.209 197.636C163.979 197.318 164.865 197.675 165.188 198.436C165.832 199.952 165.792 201.589 165.206 203.008L165.201 203.02C164.612 204.436 163.48 205.63 161.946 206.266C160.405 206.904 158.746 206.865 157.311 206.285C155.877 205.706 154.666 204.586 154.019 203.063C153.696 202.303 154.058 201.428 154.828 201.109C155.598 200.79 156.484 201.148 156.807 201.908C157.131 202.671 157.738 203.232 158.455 203.522C159.174 203.812 160.004 203.832 160.777 203.512C161.552 203.191 162.121 202.593 162.413 201.889L162.416 201.881C162.708 201.177 162.725 200.357 162.4 199.591Z" fill="#FFE578"/>
<path d="M152.74 49.687C151.87 51.7107 150.719 53.5648 149.345 55.2245C147.929 56.9344 146.297 58.4042 144.511 59.6085C143.444 60.3265 142.106 60.3515 141.041 59.7867L140.614 59.5805C140.401 59.4703 140.203 59.3642 140.032 59.2659L139.898 59.1858C136.468 57.2288 133.929 54.2375 132.523 50.8022C131.096 47.3148 130.832 43.3574 131.984 39.547C132.064 39.2735 132.166 38.9663 132.288 38.6262L132.311 38.5639C132.439 38.2127 132.548 37.9301 132.634 37.7296C132.876 37.1672 133.162 36.5973 133.491 36.0216C133.804 35.4721 134.15 34.9414 134.525 34.4285C135.458 33.1553 137.14 32.7352 138.546 33.3278L138.549 33.3216L152.475 39.1785C153.907 39.781 154.699 41.2501 154.487 42.7027C154.393 43.8396 154.204 44.9899 153.921 46.1434C153.619 47.3691 153.226 48.5548 152.74 49.687ZM144.158 51.0454C145.109 49.8976 145.922 48.574 146.56 47.0883C146.932 46.2231 147.217 45.3787 147.418 44.5621L147.484 44.2811L138.703 40.5879L138.597 40.8573C138.539 41.0158 138.477 41.21 138.41 41.434L138.405 41.4462C137.702 43.7636 137.867 46.1844 138.744 48.3271C139.48 50.126 140.715 51.7224 142.357 52.8911C143.005 52.3261 143.608 51.7098 144.158 51.0454Z" fill="#FFE578"/>
<path d="M78.4225 131.857C77.9047 133.613 76.0437 134.619 74.2661 134.104C72.4884 133.589 71.4669 131.749 71.9847 129.994L84.2761 87.758L94.6507 52.1359C95.1685 50.3809 97.0295 49.3748 98.8072 49.8895C100.485 50.375 101.489 52.0415 101.161 53.703C100.672 57.6879 101.531 61.6706 103.496 65.0631C105.443 68.4263 108.494 71.2188 112.41 72.8658C116.686 74.6642 121.252 74.7734 125.343 73.4959C129.457 72.2113 133.101 69.525 135.498 65.7455C135.54 65.6727 135.584 65.6019 135.63 65.5333C135.86 65.1604 136.071 64.7912 136.261 64.4263C136.464 64.0376 136.668 63.6062 136.871 63.1335C137.291 62.1552 137.615 61.1866 137.846 60.2376C138.021 59.5152 138.151 58.8038 138.235 58.1084C135.641 56.2054 133.691 53.6581 132.523 50.804C131.096 47.3166 130.832 43.3592 131.984 39.5489C132.064 39.2754 132.166 38.9681 132.288 38.628L132.311 38.5658C132.391 38.3469 132.463 38.1548 132.527 37.9924L97.1323 23.1061C96.4266 22.8093 95.8769 22.3024 95.5254 21.6906L87.4889 9.63329L52.8737 69.613L31.5874 106.479L28.5315 111.777C27.6206 113.367 25.5757 113.924 23.9649 113.021C22.354 112.118 21.7866 110.097 22.6977 108.507L25.7533 103.209L47.0398 66.3433L84.3617 1.67325C84.6154 1.23422 84.9734 0.845062 85.4296 0.547211C86.9711 -0.458923 89.049 -0.0383911 90.0702 1.48627L100.673 17.3943L138.548 33.3234L138.545 33.3296C138.772 33.4251 138.992 33.5471 139.2 33.6962C140.699 34.7692 141.035 36.8376 139.952 38.316C139.733 38.6154 139.526 38.933 139.335 39.2689C139.158 39.5784 138.984 39.9322 138.813 40.3301C138.714 40.5589 138.647 40.7236 138.606 40.8304L138.596 40.8591C138.539 41.0176 138.477 41.2118 138.41 41.4358L138.404 41.448C137.702 43.7655 137.867 46.1862 138.744 48.329C139.621 50.472 141.206 52.3275 143.342 53.5153L143.339 53.5215C144.382 54.1022 145.076 55.2182 145.046 56.4824C145.042 56.6991 145.036 56.9123 145.028 57.0918C145.016 57.3619 145.001 57.6136 144.978 57.8284L144.975 57.8281C144.876 59.1758 144.671 60.5041 144.358 61.7952C144.029 63.1454 143.594 64.4637 143.049 65.7322C142.807 66.2964 142.531 66.8753 142.221 67.4674C141.931 68.0241 141.631 68.5512 141.322 69.0486L141.277 69.1222C138.017 74.3342 133.018 78.0378 127.364 79.8031C121.789 81.544 115.584 81.4021 109.79 78.9653C104.504 76.7422 100.364 72.9368 97.7006 68.3366C97.5219 68.0282 97.3501 67.716 97.1852 67.4008L90.7134 89.6215L78.4225 131.857Z" fill="#FFE578"/>
<path d="M23.9637 113.021C1.95345 102.839 -3.42537 90.0538 1.90955 72.7412C2.23344 71.8956 3.10801 70.8371 4.64124 71.3929C5.69323 71.8815 6.17729 72.9191 5.75163 74.1428C3.32018 81.8562 10.8429 101.49 28.6692 104.844C23.9638 113.021 28.6692 104.844 23.9637 113.021Z" fill="#FFE578"/>
<path d="M103.489 39.8232C103.106 38.7449 103.681 37.5653 104.771 37.1891C105.862 36.8129 107.057 37.3825 107.44 38.4608C107.737 39.2966 107.88 40.1924 107.852 41.1054C107.824 41.99 107.637 42.8727 107.277 43.7123C106.825 44.765 105.594 45.2549 104.527 44.8063C103.461 44.3578 102.963 43.1406 103.415 42.0879C103.578 41.7084 103.662 41.3288 103.673 40.9658C103.685 40.5825 103.621 40.1947 103.489 39.8232Z" fill="#FFE578"/>
<path d="M101.721 37.9462C100.655 37.4978 100.157 36.2807 100.609 35.2279C101.061 34.1752 102.292 33.6852 103.359 34.1337C104.332 34.543 105.179 35.1453 105.872 35.8803C106.587 36.6389 107.122 37.5284 107.45 38.4829C107.821 39.5663 107.233 40.74 106.137 41.1043C105.041 41.4687 103.852 40.8861 103.481 39.8028C103.339 39.3882 103.112 39.0076 102.813 38.6901C102.527 38.3869 102.16 38.1305 101.721 37.9462Z" fill="#FFE578"/>
<path d="M97.5288 39.6121C97.0768 40.6649 95.8455 41.1548 94.7792 40.7062C93.7127 40.2577 93.2147 39.0407 93.6667 37.9879C94.464 36.1318 95.9468 34.7739 97.6993 34.0766C99.4536 33.3786 101.479 33.3428 103.357 34.1324C104.423 34.581 104.921 35.798 104.469 36.8508C104.017 37.9036 102.786 38.3935 101.719 37.9448C100.907 37.6033 100.031 37.6187 99.2723 37.9206C98.5149 38.2219 97.8737 38.8093 97.5288 39.6121Z" fill="#FFE578"/>
<path d="M77.4134 378.72C78.2063 380.104 77.7126 381.862 76.3105 382.646C74.9085 383.429 73.1287 382.941 72.3356 381.556L53.1516 348.336L36.9765 320.312C36.1836 318.927 36.6773 317.169 38.0794 316.386C39.4026 315.647 41.062 316.04 41.9112 317.25C44.1276 319.972 47.1602 321.86 50.4902 322.709C53.7917 323.551 57.402 323.366 60.8148 321.952C64.5409 320.408 67.3771 317.66 69.0516 314.363C70.7354 311.047 71.2502 307.17 70.3198 303.398C70.2991 303.328 70.281 303.258 70.2659 303.188C69.5797 300.118 74.047 298.03 75.8519 301.507C75.901 301.602 75.9072 301.712 75.9331 301.813L75.9525 301.885C77.2634 307.059 76.5685 312.39 74.2544 316.946C71.9728 321.44 68.1221 325.178 63.0732 327.27C58.4668 329.179 53.5578 329.42 49.0421 328.268C48.7392 328.191 48.4382 328.108 48.1394 328.018L58.2293 345.499L77.4134 378.72Z" fill="#FFE578"/>
<path d="M107.994 329.164C113.502 322.612 123.945 321.227 130.786 326.208C136.98 330.466 139.104 339.752 137.327 346.624C135.413 353.224 130.509 357.283 125.769 360.786C122.199 363.39 118.379 365.366 114.314 366.965C112.959 367.487 111.926 367.972 110.43 368.495C109.268 368.828 107.174 367.312 106.836 366.165C106.509 365.06 106.987 362.847 108.055 362.462C109.169 362.008 110.406 361.422 111.553 360.83C119.083 356.968 130.672 350.362 128.761 340.977C128.55 338.712 127.355 335.868 125.198 334.98C122.705 333.851 119.547 334.836 118.401 337.164C116.737 340.418 112.717 341.723 109.423 340.08C105.135 337.918 104.574 332.386 107.994 329.164Z" fill="#FFE578"/>
<path d="M74.9832 341.215C74.7786 340.733 75.0083 340.178 75.4962 339.976C75.9839 339.774 76.5457 340.001 76.7503 340.482C77.1585 341.444 77.133 342.481 76.7616 343.381L76.7587 343.389C76.385 344.286 75.6677 345.043 74.6955 345.446C73.7184 345.851 72.6673 345.826 71.7577 345.458C70.8485 345.091 70.0805 344.381 69.6708 343.416C69.4661 342.934 69.6958 342.379 70.1838 342.177C70.6716 341.975 71.2332 342.202 71.4379 342.684C71.6432 343.167 72.0278 343.523 72.4829 343.707C72.9381 343.891 73.4647 343.903 73.9542 343.7C74.446 343.497 74.8065 343.118 74.9914 342.671L74.9931 342.667C75.1781 342.22 75.1895 341.7 74.9832 341.215Z" fill="#FFE578"/>
<path d="M112.123 364.317C112.916 365.701 112.423 367.459 111.021 368.242C109.618 369.026 107.839 368.538 107.046 367.153L81.3598 322.667C80.5669 321.282 81.0606 319.524 82.4627 318.741C83.8647 317.958 85.6445 318.446 86.4376 319.83L112.123 364.317Z" fill="#FFE578"/>
<path d="M92.5295 330.375C93.3224 331.76 92.8288 333.518 91.4266 334.301C90.0246 335.084 88.2448 334.597 87.4518 333.212L70.5874 304.012C69.7945 302.627 70.2881 300.869 71.6903 300.086C73.0924 299.303 74.872 299.79 75.6651 301.175L92.5295 330.375Z" fill="#FFE578"/>
<path d="M105.888 341.927C107.077 342.123 107.881 343.234 107.684 344.408C107.486 345.583 106.361 346.377 105.172 346.182L86.3831 343.099C85.194 342.904 84.3898 341.793 84.5875 340.619C84.7852 339.444 85.9099 338.65 87.099 338.845L105.888 341.927Z" fill="#FFE578"/>
<path d="M57.2631 365.986C56.6071 366.986 55.2541 367.272 54.2415 366.624C53.2288 365.976 52.9395 364.639 53.5954 363.639L63.1408 349.111C63.7968 348.111 65.1499 347.825 66.1624 348.473C67.1751 349.121 67.4644 350.457 66.8086 351.458L57.2631 365.986Z" fill="#FFE578"/>
<path d="M83.1934 337.869C82.0781 338.331 80.7949 337.812 80.327 336.711C79.8592 335.61 80.3842 334.342 81.4994 333.88L98.7162 326.747C99.8314 326.285 101.115 326.803 101.583 327.905C102.05 329.006 101.525 330.274 100.41 330.736L83.1934 337.869Z" fill="#FFE578"/>
<path d="M47.073 352.828C45.9577 353.29 44.6745 352.772 44.2066 351.67C43.7389 350.569 44.2637 349.301 45.379 348.839L62.3933 341.79C63.5084 341.328 64.7918 341.847 65.2595 342.948C65.7272 344.049 65.2024 345.317 64.0873 345.779L47.073 352.828Z" fill="#FFE578"/>
<path d="M65.0152 334.209C64.8021 333.707 65.0413 333.129 65.5496 332.919C66.0578 332.708 66.643 332.944 66.8563 333.446C67.2816 334.448 67.255 335.529 66.8679 336.466L66.865 336.474C66.4756 337.41 65.7283 338.198 64.7154 338.618C63.6976 339.039 62.6025 339.013 61.6547 338.631C60.7077 338.248 59.9076 337.508 59.4805 336.503C59.2674 336.001 59.5065 335.423 60.0148 335.212C60.5231 335.001 61.1083 335.238 61.3216 335.74C61.5355 336.244 61.9362 336.614 62.4104 336.806C62.8847 336.997 63.4332 337.01 63.9433 336.799C64.4555 336.587 64.831 336.192 65.0238 335.727L65.0255 335.722C65.2182 335.257 65.2301 334.715 65.0152 334.209Z" fill="#FFE578"/>
<path d="M75.4547 329.882C75.2415 329.38 75.4807 328.802 75.989 328.592C76.4973 328.381 77.0825 328.618 77.2958 329.12C77.7211 330.121 77.6945 331.202 77.3074 332.14L77.3045 332.147C76.9151 333.083 76.1678 333.871 75.1548 334.291C74.137 334.713 73.0419 334.687 72.0942 334.304C71.1471 333.921 70.347 333.181 69.9199 332.176C69.7068 331.674 69.946 331.096 70.4543 330.885C70.9625 330.675 71.5478 330.911 71.7611 331.413C71.9748 331.917 72.3756 332.287 72.8498 332.479C73.324 332.671 73.8727 332.684 74.3826 332.472C74.895 332.26 75.2705 331.865 75.4632 331.4L75.4655 331.395C75.6582 330.93 75.6701 330.388 75.4552 329.882" fill="#FFE578"/>
</svg>
