<svg width="89" height="78" viewBox="0 0 89 78" fill="none" xmlns="http://www.w3.org/2000/svg">
<path d="M87.9747 28.7235C87.4742 29.8933 86.8111 30.9652 86.0196 31.9246C85.204 32.913 84.2636 33.7627 83.2353 34.4588C82.6208 34.8739 81.8501 34.8883 81.2363 34.5618L80.9907 34.4426C80.8679 34.379 80.754 34.3176 80.6551 34.2608L80.5785 34.2145C78.6025 33.0832 77.14 31.354 76.3305 29.3682C75.5085 27.3522 75.3562 25.0646 76.0196 22.8619C76.0659 22.7038 76.1245 22.5262 76.195 22.3296L76.2084 22.2936C76.282 22.0906 76.3445 21.9272 76.3943 21.8113C76.5334 21.4862 76.6982 21.1568 76.8876 20.824C77.0681 20.5063 77.2672 20.1996 77.4835 19.903C78.0209 19.1671 78.9894 18.9242 79.7993 19.2667L79.801 19.2632L87.8222 22.6489C88.6473 22.9972 89.1031 23.8464 88.9815 24.6861C88.9269 25.3433 88.8185 26.0083 88.6551 26.6751C88.4812 27.3836 88.2548 28.069 87.9747 28.7235ZM83.0319 29.5088C83.5794 28.8453 84.0481 28.0801 84.4157 27.2213C84.6296 26.7211 84.7939 26.2331 84.9098 25.761L84.9478 25.5986L79.8898 23.4636L79.8286 23.6194C79.7956 23.7109 79.7597 23.8232 79.721 23.9527L79.7181 23.9598C79.3135 25.2994 79.4086 26.6988 79.9136 27.9374C80.3376 28.9773 81.049 29.9001 81.9945 30.5757C82.3677 30.2491 82.7152 29.8928 83.0319 29.5088Z" fill="#FFE578"/>
<path d="M45.1689 76.2228C44.8707 77.2374 43.7987 77.8189 42.7749 77.5214C41.751 77.224 41.1626 76.1601 41.4608 75.1456L48.5405 50.7302L54.5162 30.1382C54.8144 29.1237 55.8863 28.5421 56.9102 28.8396C57.8765 29.1203 58.4548 30.0836 58.2661 31.0441C57.9842 33.3476 58.4792 35.6499 59.6107 37.611C60.7324 39.5552 62.4898 41.1694 64.7454 42.1215C67.2084 43.1611 69.838 43.2243 72.1946 42.4858C74.5643 41.7432 76.6632 40.1903 78.0438 38.0055C78.0677 37.9634 78.093 37.9225 78.1197 37.8828C78.2522 37.6673 78.3736 37.4538 78.4833 37.2429C78.6002 37.0182 78.7174 36.7688 78.8343 36.4956C79.0763 35.93 79.263 35.3701 79.3959 34.8215C79.4971 34.4039 79.5715 33.9927 79.6202 33.5907C78.1262 32.4907 77.0029 31.0181 76.3303 29.3682C75.5083 27.3523 75.356 25.0646 76.0195 22.862C76.0657 22.7039 76.1243 22.5263 76.1949 22.3297L76.2083 22.2937C76.2541 22.1672 76.2957 22.0562 76.3325 21.9622L55.9455 13.3569C55.539 13.1854 55.2224 12.8923 55.02 12.5387L50.391 5.56871L30.4531 40.2411L18.1925 61.5523L16.4324 64.615C15.9077 65.534 14.7299 65.8559 13.802 65.334C12.8742 64.8121 12.5473 63.6438 13.0721 62.7248L14.8322 59.6622L27.0929 38.3511L48.5898 0.967255C48.736 0.713463 48.9421 0.488495 49.2049 0.316322C50.0928 -0.265289 51.2897 -0.0222015 51.8778 0.859161L57.9852 10.0551L79.8006 19.2632L79.799 19.2668C79.9296 19.322 80.0561 19.3926 80.1761 19.4787C81.0392 20.099 81.233 21.2947 80.6089 22.1493C80.4828 22.3224 80.3638 22.506 80.2535 22.7002C80.1518 22.8791 80.0513 23.0836 79.9529 23.3136C79.8963 23.4459 79.8573 23.5411 79.834 23.6028L79.8283 23.6194C79.7953 23.711 79.7593 23.8233 79.7207 23.9528L79.7177 23.9598C79.3132 25.2995 79.4082 26.6988 79.9133 27.9375C80.4183 29.1763 81.3313 30.2489 82.5619 30.9356L82.5599 30.9391C83.161 31.2749 83.5606 31.92 83.5433 32.6507C83.5406 32.776 83.5376 32.8993 83.5329 33.0031C83.5259 33.1592 83.517 33.3047 83.5042 33.4289L83.5022 33.4287C83.4452 34.2077 83.3274 34.9756 83.1466 35.722C82.9574 36.5024 82.7069 37.2645 82.393 37.9978C82.2536 38.3239 82.0944 38.6586 81.9161 39.0009C81.7489 39.3227 81.576 39.6274 81.398 39.9149L81.3724 39.9575C79.4948 42.9704 76.6153 45.1113 73.3586 46.1318C70.1474 47.1381 66.5735 47.0561 63.2363 45.6475C60.1914 44.3623 57.8072 42.1626 56.2729 39.5033C56.1699 39.325 56.071 39.1446 55.976 38.9624L52.2483 51.8075L45.1689 76.2228Z" fill="#FFE578"/>
<path d="M13.8027 65.334C1.12502 59.4481 -1.97311 52.0575 1.09974 42.0497C1.28629 41.5608 1.79003 40.949 2.67315 41.2702C3.27908 41.5527 3.5579 42.1525 3.31272 42.8599C1.91224 47.3188 6.24524 58.6683 16.5129 60.6072C13.8027 65.334 16.5129 60.6072 13.8027 65.334Z" fill="#FFE578"/>
<path d="M59.6066 23.0213C59.3861 22.398 59.717 21.7161 60.3453 21.4986C60.9736 21.2811 61.662 21.6104 61.8824 22.2337C62.0536 22.7169 62.1362 23.2347 62.1196 23.7625C62.1035 24.2739 61.9963 24.7841 61.7886 25.2695C61.5281 25.878 60.819 26.1612 60.2048 25.9019C59.5904 25.6426 59.3036 24.939 59.5641 24.3304C59.6579 24.1111 59.7061 23.8917 59.7126 23.6818C59.7197 23.4602 59.6827 23.236 59.6066 23.0213Z" fill="#FFE578"/>
<path d="M58.5874 21.9358C57.9732 21.6766 57.6863 20.9731 57.9467 20.3645C58.2071 19.7559 58.9162 19.4727 59.5305 19.732C60.0909 19.9686 60.5789 20.3167 60.9782 20.7416C61.39 21.1801 61.6985 21.6944 61.8871 22.2461C62.1007 22.8724 61.7621 23.5509 61.1309 23.7615C60.4998 23.9721 59.8148 23.6353 59.6012 23.0091C59.5194 22.7694 59.3885 22.5494 59.2162 22.3659C59.0513 22.1906 58.8398 22.0424 58.5874 21.9358Z" fill="#FFE578"/>
<path d="M56.1742 22.8995C55.9138 23.5081 55.2046 23.7913 54.5904 23.532C53.9761 23.2727 53.6893 22.5692 53.9496 21.9606C54.4089 20.8877 55.263 20.1027 56.2724 19.6997C57.2829 19.2961 58.4496 19.2754 59.531 19.7319C60.1452 19.9912 60.4321 20.6947 60.1717 21.3033C59.9113 21.9119 59.2021 22.1951 58.5878 21.9357C58.1202 21.7383 57.6153 21.7472 57.1784 21.9218C56.7422 22.0959 56.3729 22.4354 56.1742 22.8995Z" fill="#FFE578"/>
</svg>
