<svg width="59" height="49" viewBox="0 0 59 49" fill="none" xmlns="http://www.w3.org/2000/svg">
<path d="M23.7652 46.1759C24.2269 46.9852 23.9395 48.0125 23.1231 48.4702C22.3067 48.9279 21.2704 48.6429 20.8086 47.8336L9.63848 28.4204L0.220312 12.0444C-0.241351 11.2351 0.0460855 10.2078 0.862488 9.75008C1.63293 9.31813 2.59917 9.54772 3.09359 10.2552C4.38412 11.8454 6.14988 12.9491 8.08885 13.4451C10.0112 13.937 12.1133 13.8288 14.1004 13.0026C16.2701 12.1005 17.9215 10.4948 18.8965 8.56791C19.8769 6.63008 20.1766 4.36441 19.6349 2.16013C19.6229 2.1193 19.6123 2.07829 19.6035 2.03736C19.2039 0.243801 21.8051 -0.976482 22.856 1.05555C22.8846 1.11061 22.8882 1.175 22.9033 1.23426L22.9146 1.27639C23.6779 4.29982 23.2732 7.41469 21.9259 10.0776C20.5974 12.7034 18.3552 14.8881 15.4155 16.1105C12.7333 17.2257 9.875 17.3665 7.24565 16.6938C7.06932 16.6488 6.89402 16.5999 6.72007 16.5474L12.595 26.7627L23.7652 46.1759Z" fill="#FFE578"/>
<path d="M41.5672 17.2171C44.7747 13.3882 50.8548 12.5787 54.8384 15.4896C58.4452 17.9774 59.6819 23.4042 58.6468 27.4201C57.5325 31.2766 54.6771 33.6488 51.9173 35.6958C49.8386 37.2175 47.6142 38.3723 45.2473 39.3065C44.4582 39.6113 43.8567 39.8952 42.9857 40.2005C42.3094 40.3949 41.09 39.5093 40.8933 38.8388C40.7031 38.1934 40.9809 36.8999 41.6032 36.675C42.2514 36.4097 42.9721 36.0674 43.6395 35.7214C48.0241 33.4643 54.7722 29.6043 53.6593 24.12C53.5366 22.7964 52.8406 21.1343 51.5846 20.6153C50.1332 19.9558 48.2942 20.5314 47.6269 21.8919C46.6581 23.7932 44.3177 24.5561 42.3993 23.5956C39.9026 22.3326 39.5759 19.0994 41.5672 17.2171Z" fill="#FFE578"/>
<path d="M22.3499 24.2592C22.2307 23.9777 22.3645 23.6534 22.6486 23.5353C22.9326 23.4172 23.2597 23.5498 23.3789 23.8314C23.6166 24.3932 23.6017 24.9995 23.3854 25.5252L23.3838 25.5296C23.1661 26.0543 22.7484 26.4964 22.1823 26.7319C21.6134 26.9684 21.0013 26.9539 20.4716 26.7391C19.9422 26.5245 19.4949 26.1096 19.2563 25.5457C19.1371 25.264 19.2709 24.9398 19.5551 24.8217C19.8391 24.7035 20.1662 24.8362 20.2853 25.1177C20.4049 25.4003 20.6289 25.6082 20.8939 25.7156C21.159 25.8231 21.4656 25.8303 21.7507 25.7118C22.037 25.5928 22.247 25.3715 22.3546 25.1105L22.3557 25.1078C22.4633 24.8468 22.47 24.5431 22.3499 24.2592Z" fill="#FFE578"/>
<path d="M43.9753 37.7593C44.4369 38.5686 44.1495 39.5958 43.3331 40.0535C42.5167 40.5113 41.4804 40.2263 41.0187 39.417L26.0627 13.4207C25.6011 12.6115 25.8885 11.5842 26.7049 11.1265C27.5212 10.6689 28.5575 10.9538 29.0193 11.763L43.9753 37.7593Z" fill="#FFE578"/>
<path d="M32.5654 17.924C33.027 18.7333 32.7396 19.7605 31.9232 20.2182C31.1069 20.6759 30.0706 20.391 29.6088 19.5817L19.7893 2.51814C19.3276 1.70894 19.615 0.681629 20.4315 0.223953C21.2479 -0.233725 22.2841 0.0512447 22.7458 0.860445L32.5654 17.924Z" fill="#FFE578"/>
<path d="M40.3455 24.6754C41.0379 24.7894 41.5061 25.4387 41.3911 26.1251C41.2761 26.8115 40.6211 27.2755 39.9287 27.1615L28.9886 25.3603C28.2962 25.2463 27.828 24.5971 27.9431 23.9106C28.0582 23.2243 28.713 22.7602 29.4054 22.8742L40.3455 24.6754Z" fill="#FFE578"/>
<path d="M12.0348 38.7341C11.6528 39.3185 10.865 39.4856 10.2754 39.107C9.68576 38.7284 9.51731 37.9474 9.89922 37.363L15.4572 28.8732C15.8391 28.2888 16.627 28.1218 17.2165 28.5003C17.8062 28.879 17.9747 29.6599 17.5928 30.2445L12.0348 38.7341Z" fill="#FFE578"/>
<path d="M27.1292 22.3038C26.4798 22.5737 25.7326 22.2708 25.4601 21.6271C25.1878 20.9835 25.4935 20.2428 26.1428 19.9728L36.1675 15.8045C36.8169 15.5345 37.5641 15.8375 37.8365 16.4811C38.1088 17.1247 37.8032 17.8655 37.1539 18.1355L27.1292 22.3038Z" fill="#FFE578"/>
<path d="M6.09959 31.0459C5.45021 31.3158 4.70302 31.0129 4.43061 30.3692C4.15828 29.7256 4.46384 28.9848 5.11322 28.7148L15.02 24.5955C15.6693 24.3256 16.4166 24.6285 16.6889 25.2722C16.9613 25.9158 16.6557 26.6566 16.0064 26.9266L6.09959 31.0459Z" fill="#FFE578"/>
<path d="M16.5427 20.1656C16.4186 19.8721 16.558 19.5344 16.8539 19.4114C17.1499 19.2883 17.4907 19.4264 17.6149 19.7198C17.8625 20.305 17.847 20.9367 17.6216 21.4846L17.6199 21.4891C17.3932 22.0357 16.958 22.4964 16.3682 22.7416C15.7755 22.9881 15.1378 22.973 14.5859 22.7493C14.0344 22.5256 13.5685 22.0933 13.3198 21.5058C13.1957 21.2123 13.335 20.8746 13.6309 20.7515C13.9269 20.6285 14.2677 20.7665 14.3919 21.0599C14.5165 21.3544 14.7498 21.571 15.0259 21.6828C15.3021 21.7948 15.6215 21.8024 15.9185 21.6789C16.2168 21.5548 16.4355 21.3244 16.5477 21.0524L16.5487 21.0498C16.661 20.7778 16.6679 20.4612 16.5427 20.1656Z" fill="#FFE578"/>
<path d="M22.6262 17.6363C22.5021 17.343 22.6414 17.0052 22.9374 16.8821C23.2334 16.7591 23.5742 16.8972 23.6984 17.1906C23.946 17.7759 23.9305 18.4076 23.7051 18.9553L23.7034 18.9599C23.4767 19.5065 23.0415 19.9672 22.4517 20.2124C21.8589 20.4589 21.2213 20.4437 20.6694 20.22C20.1179 19.9964 19.652 19.5642 19.4033 18.9765C19.2792 18.6832 19.4185 18.3454 19.7144 18.2223C20.0104 18.0992 20.3512 18.2374 20.4754 18.5308C20.5999 18.8252 20.8333 19.0418 21.1094 19.1537C21.3855 19.2657 21.705 19.2733 22.002 19.1497C22.3003 19.0257 22.519 18.7952 22.6312 18.5232L22.6325 18.5202C22.7448 18.2482 22.7517 17.932 22.6265 17.6362" fill="#FFE578"/>
</svg>
